<svg width="39" height="57" xmlns="http://www.w3.org/2000/svg" fill="none">
  <path fill="#fff" d="m13.1186,55.71332c-0.2122,0.4792 -0.8565,0.5639 -1.1852,0.1557l-3.1493,-3.9096c-0.1443,-0.179 -0.3673,-0.2758 -0.5966,-0.2589l-5.0956,0.3754c-0.5296,0.039 -0.9081,-0.5028 -0.6892,-0.9866l5.6379,-12.4619c0.1549,-0.3423 0.5524,-0.5013 0.9007,-0.3602l3.8743,1.5698c0.0295,0.0119 0.0609,0.018 0.0927,0.018l0,0c0.1363,0 0.2468,0.1105 0.2468,0.2468l0,0.1558c0,0.2224 0.1802,0.4027 0.4026,0.4027l1.6326,0l0.236,0l0.4038,0c0.2749,0 0.5244,0.1609 0.6377,0.4113l1.4545,3.2139c0.0822,0.1816 0.0831,0.3897 0.0024,0.572l-4.8061,10.8558zm23.7127,-4.622c0.2172,0.4837 -0.1613,1.0238 -0.69,0.9849l-5.0979,-0.3756c-0.2301,-0.017 -0.4539,0.0806 -0.5981,0.2609l-3.1263,3.9092c-0.3265,0.4083 -0.9692,0.3275 -1.1845,-0.1489l-6.3089,-13.9585c-0.2095,-0.4633 0.1294,-0.9883 0.6378,-0.9883l1.0638,0c0.1999,0 0.3807,0.1187 0.4603,0.3021l0,0c0.1077,0.2484 0.3932,0.3664 0.645,0.2667l1.3119,-0.5196c0.0821,-0.0325 0.1695,-0.0492 0.2578,-0.0492l0.1097,0c0.0925,0 0.1841,-0.0183 0.2696,-0.054l0.2836,-0.1183l5.143,-2.0679c0.0513,-0.0206 0.106,-0.0312 0.1612,-0.0312l0,0c0.1164,0 0.2278,0.0469 0.3091,0.1301l0.3208,0.3283c0.0784,0.0803 0.2071,0.0819 0.2875,0.0035l0,0c0.1012,-0.0987 0.2698,-0.0666 0.3277,0.0623l5.4169,12.0635zm2.343,-29.1858c-0.0021,0.3852 -0.3149,0.6962 -0.7,0.6962l-1.2701,0c-0.7685,0 -0.9756,1.0589 -0.2637,1.3485l0.8338,0.3391c0.3621,0.1473 0.5334,0.5627 0.3804,0.9224l-1.6058,3.7744c-0.1493,0.351 -0.5523,0.5178 -0.906,0.3751l-1.2016,-0.4848c-0.7116,-0.2871 -1.3,0.6148 -0.7505,1.1504l0.6278,0.6121c0.2826,0.2755 0.2817,0.7299 -0.0018,1.0043l-3.0051,2.908c-0.2721,0.2633 -0.7043,0.2625 -0.9754,-0.0019l-0.9232,-0.9c-0.5482,-0.5344 -1.4334,0.0728 -1.1322,0.7766l0.3436,0.8029c0.1544,0.361 -0.0182,0.7784 -0.3825,0.9249l-3.9287,1.5796c-0.3502,0.1408 -0.7491,-0.0215 -0.9015,-0.3669l-0.5689,-1.2891c-0.3057,-0.6926 -1.3404,-0.4744 -1.3404,0.2826l0,1.0699c0,0.3866 -0.3134,0.7 -0.7,0.7l-4.2337,0c-0.3866,0 -0.7,-0.3134 -0.7,-0.7l0,-1.32c0,-0.7614 -1.0439,-0.9754 -1.3435,-0.2754l-0.3924,0.917c-0.15,0.3503 -0.5527,0.5164 -0.906,0.3735l-3.8949,-1.575c-0.3628,-0.1466 -0.5348,-0.5622 -0.382,-0.9224l0.4848,-1.1422c0.2987,-0.7036 -0.5856,-1.3083 -1.133,-0.7747l-0.7047,0.687c-0.2718,0.2651 -0.7054,0.265 -0.9773,0l-2.9791,-2.9046c-0.2818,-0.2748 -0.2818,-0.7277 0,-1.0025l0.8812,-0.859c0.5488,-0.5351 -0.0376,-1.4361 -0.749,-1.151l-0.8951,0.3587c-0.3535,0.1416 -0.7555,-0.0253 -0.9046,-0.3758l-1.6055,-3.7739c-0.1534,-0.3605 0.0189,-0.7766 0.3822,-0.9232l1.1262,-0.4543c0.7137,-0.2879 0.5077,-1.3492 -0.2619,-1.3492l-0.9142,0c-0.3866,0 -0.7,-0.3134 -0.7,-0.7l0,-4.0924c0,-0.3866 0.3134,-0.7 0.7,-0.7l1.2957,0c0.7684,0 0.9755,-1.0588 0.2637,-1.3484l-0.8351,-0.3397c-0.3617,-0.147 -0.5331,-0.5616 -0.381,-0.9211l1.6086,-3.80209c0.1488,-0.35184 0.5523,-0.51935 0.9066,-0.37641l1.165,0.47004c0.7131,0.28766 1.3012,-0.61781 0.7485,-1.15234l-0.5903,-0.57093c-0.283,-0.27367 -0.2847,-0.72677 -0.0039,-1.00261l2.9808,-2.92748c0.2716,-0.26673 0.7065,-0.26754 0.9791,-0.00182l0.9494,0.92552c0.5481,0.53438 1.4333,-0.07282 1.1322,-0.77663l-0.345,-0.80624c-0.154,-0.35978 0.0169,-0.7759 0.3793,-0.92361l3.9208,-1.59808c0.3549,-0.14465 0.7602,0.02296 0.9092,0.37604l0.51,1.2085c0.2968,0.7033 1.3449,0.49119 1.3449,-0.27218l0,-0.9309c0,-0.3866 0.3134,-0.7 0.7,-0.7l4.2337,0c0.3866,0 0.7,0.3134 0.7,0.7l0,1.25343c0,0.76435 1.0501,0.9755 1.3456,0.27055l0.3628,-0.8658c0.1484,-0.35408 0.5543,-0.52257 0.9098,-0.37766l3.9212,1.59821c0.3616,0.14741 0.5327,0.56223 0.3801,0.92172l-0.4855,1.14399c-0.2987,0.70364 0.5856,1.30831 1.133,0.77471l0.7047,-0.68702c0.2719,-0.26503 0.7054,-0.26503 0.9773,0l2.9791,2.90434c0.2818,0.27473 0.2818,0.72769 0,1.00243l-0.8815,0.85952c-0.5488,0.535 0.0376,1.4361 0.749,1.1509l0.8953,-0.3587c0.3535,-0.1417 0.7554,0.0252 0.9045,0.3757l1.6057,3.7739c0.1534,0.3605 -0.0189,0.7767 -0.3822,0.9233l-1.1262,0.4542c-0.7137,0.2879 -0.5077,1.3492 0.2619,1.3492l0.9694,0c0.3881,0 0.7021,0.3157 0.7,0.7038l-0.0219,4.0348zm-19.7366,-13.27888c-2.106,0 -4.1647,0.60883 -5.9157,1.74948c-1.7511,1.1406 -3.1158,2.7619 -3.9218,4.6587c-0.8059,1.8969 -1.0168,3.9839 -0.6059,5.9975c0.4108,2.0137 1.4249,3.8634 2.9141,5.3152c1.4891,1.4517 3.3865,2.4406 5.452,2.8411c2.0655,0.4006 4.2064,0.1949 6.1521,-0.5908c1.9457,-0.7856 3.6088,-2.1162 4.7789,-3.8233c1.17,-1.7071 1.7943,-3.7141 1.7943,-5.7672c0.0001,-2.7432 -1.1136,-5.375 -3.0977,-7.3201c-1.9842,-1.9452 -4.6774,-3.04538 -7.4912,-3.06058l-0.0591,0zm0,18.02978c-1.5505,-0.0057 -3.0645,-0.4591 -4.3509,-1.303c-1.2864,-0.8439 -2.2874,-2.0408 -2.8767,-3.439c-0.5893,-1.3981 -0.7405,-2.935 -0.4344,-4.4168c0.3061,-1.4819 1.0556,-2.8421 2.154,-3.909c1.0985,-1.0668 2.4966,-1.7926 4.0178,-2.0854c1.5211,-0.2928 3.0972,-0.1396 4.5291,0.4402c1.432,0.5798 2.6555,1.56 3.5163,2.8173c0.8609,1.2572 1.3202,2.735 1.3202,4.2466c0,2.0237 -0.8224,3.965 -2.2875,5.3987c-1.465,1.4336 -3.4531,2.2428 -5.5288,2.2504l-0.0591,0z"/>
</svg>