<svg width="84" height="113" viewBox="0 0 84 113" fill="none" xmlns="http://www.w3.org/2000/svg">
<g filter="url(#filter0_i)">
<path d="M7.7081 90.7308L32.9081 106.949C37.3231 109.79 39.5306 111.211 42 111.211C44.4694 111.211 46.6769 109.79 51.0919 106.949L76.2919 90.7308C80.0624 88.3042 81.9476 87.0909 82.9738 85.2101C84 83.3294 84 81.0874 84 76.6036V32.2917C84 24.3721 84 20.4123 81.5397 17.952C79.0794 15.4917 75.1196 15.4917 67.2 15.4917H16.8C8.88041 15.4917 4.92061 15.4917 2.4603 17.952C0 20.4123 0 24.3721 0 32.2917V76.6036C0 81.0874 0 83.3294 1.0262 85.2101C2.05239 87.0909 3.93763 88.3042 7.7081 90.7308Z" fill="#0072A3"/>
<path d="M7.7081 90.7308L32.9081 106.949C37.3231 109.79 39.5306 111.211 42 111.211C44.4694 111.211 46.6769 109.79 51.0919 106.949L76.2919 90.7308C80.0624 88.3042 81.9476 87.0909 82.9738 85.2101C84 83.3294 84 81.0874 84 76.6036V32.2917C84 24.3721 84 20.4123 81.5397 17.952C79.0794 15.4917 75.1196 15.4917 67.2 15.4917H16.8C8.88041 15.4917 4.92061 15.4917 2.4603 17.952C0 20.4123 0 24.3721 0 32.2917V76.6036C0 81.0874 0 83.3294 1.0262 85.2101C2.05239 87.0909 3.93763 88.3042 7.7081 90.7308Z" fill="url(#paint0_linear)"/>
</g>
<path d="M33.6658 105.772L8.46575 89.5535C6.55865 88.3262 5.21013 87.4566 4.2032 86.6651C3.21942 85.8918 2.64598 85.2559 2.25516 84.5396C1.86435 83.8233 1.63989 82.9969 1.52205 81.7512C1.40144 80.4761 1.4 78.8715 1.4 76.6036V32.2917C1.4 28.2923 1.40297 25.4336 1.69505 23.2612C1.98172 21.129 2.52358 19.8686 3.45025 18.942C4.37693 18.0153 5.63727 17.4734 7.76946 17.1868C9.94193 16.8947 12.8006 16.8917 16.8 16.8917H67.2C71.1994 16.8917 74.0581 16.8947 76.2305 17.1868C78.3627 17.4734 79.6231 18.0153 80.5497 18.942C81.4764 19.8686 82.0183 21.129 82.3049 23.2612C82.597 25.4336 82.6 28.2923 82.6 32.2917V76.6036C82.6 78.8715 82.5986 80.4761 82.4779 81.7512C82.3601 82.9969 82.1357 83.8233 81.7448 84.5396C81.354 85.2559 80.7806 85.8918 79.7968 86.6651C78.7899 87.4566 77.4413 88.3262 75.5342 89.5535L50.3342 105.772C48.1018 107.208 46.5181 108.225 45.1873 108.895C43.8864 109.549 42.9387 109.811 42 109.811C41.0613 109.811 40.1135 109.549 38.8127 108.895C37.4819 108.225 35.8982 107.208 33.6658 105.772Z" stroke="#007CB0" stroke-width="2.8"/>
<rect x="30.8" y="8.81177" width="22.4" height="21.6241" rx="10.8121" fill="#003850"/>
<g filter="url(#filter1_dd)">
<path d="M35.5186 56.4162C35.3064 56.8954 34.6621 56.9801 34.3334 56.5719L31.1841 52.6623C31.0398 52.4833 30.8168 52.3865 30.5875 52.4034L25.4919 52.7788C24.9623 52.8178 24.5838 52.276 24.8027 51.7922L30.4406 39.3303C30.5955 38.988 30.993 38.829 31.3413 38.9701L35.2156 40.5399C35.2451 40.5518 35.2765 40.5579 35.3083 40.5579V40.5579C35.4446 40.5579 35.5551 40.6684 35.5551 40.8047V40.9605C35.5551 41.1829 35.7353 41.3632 35.9577 41.3632H37.5903H37.8263H38.2301C38.505 41.3632 38.7545 41.5241 38.8678 41.7745L40.3223 44.9884C40.4045 45.17 40.4054 45.3781 40.3247 45.5604L35.5186 56.4162ZM59.2313 51.7942C59.4485 52.2779 59.07 52.818 58.5413 52.7791L53.4434 52.4035C53.2133 52.3865 52.9895 52.4841 52.8453 52.6644L49.719 56.5736C49.3925 56.9819 48.7498 56.9011 48.5345 56.4247L42.2256 42.4662C42.0161 42.0029 42.355 41.4779 42.8634 41.4779H43.9272C44.1271 41.4779 44.3079 41.5966 44.3875 41.78V41.78C44.4952 42.0284 44.7807 42.1464 45.0325 42.0467L46.3444 41.5271C46.4265 41.4946 46.5139 41.4779 46.6022 41.4779H46.7119C46.8044 41.4779 46.896 41.4596 46.9815 41.4239L47.2651 41.3056L52.4081 39.2377C52.4594 39.2171 52.5141 39.2065 52.5693 39.2065V39.2065C52.6857 39.2065 52.7971 39.2534 52.8784 39.3366L53.1992 39.6649C53.2776 39.7452 53.4063 39.7468 53.4867 39.6684V39.6684C53.5879 39.5697 53.7565 39.6018 53.8144 39.7307L59.2313 51.7942ZM61.5743 22.6084C61.5722 22.9936 61.2594 23.3046 60.8743 23.3046H59.6042C58.8357 23.3046 58.6286 24.3635 59.3405 24.6531L60.1743 24.9922C60.5364 25.1395 60.7077 25.5549 60.5547 25.9146L58.9489 29.689C58.7996 30.04 58.3966 30.2068 58.0429 30.0641L56.8413 29.5793C56.1297 29.2922 55.5413 30.1941 56.0908 30.7297L56.7186 31.3418C57.0012 31.6173 57.0003 32.0717 56.7168 32.3461L53.7117 35.2541C53.4396 35.5174 53.0074 35.5166 52.7363 35.2522L51.8131 34.3522C51.2649 33.8178 50.3797 34.425 50.6809 35.1288L51.0245 35.9317C51.1789 36.2927 51.0063 36.7101 50.642 36.8566L46.7133 38.4362C46.3631 38.577 45.9642 38.4147 45.8118 38.0693L45.2429 36.7802C44.9372 36.0876 43.9025 36.3058 43.9025 37.0628V38.1327C43.9025 38.5193 43.5891 38.8327 43.2025 38.8327H38.9688C38.5822 38.8327 38.2688 38.5193 38.2688 38.1327V36.8127C38.2688 36.0513 37.2249 35.8373 36.9253 36.5373L36.5329 37.4543C36.3829 37.8046 35.9802 37.9707 35.6269 37.8278L31.732 36.2528C31.3692 36.1062 31.1972 35.6906 31.35 35.3304L31.8348 34.1882C32.1335 33.4846 31.2492 32.8799 30.7018 33.4135L29.9971 34.1005C29.7253 34.3656 29.2917 34.3655 29.0198 34.1005L26.0407 31.1959C25.7589 30.9211 25.7589 30.4682 26.0407 30.1934L26.9219 29.3344C27.4707 28.7993 26.8843 27.8983 26.1729 28.1834L25.2778 28.5421C24.9243 28.6837 24.5223 28.5168 24.3732 28.1663L22.7677 24.3924C22.6143 24.0319 22.7866 23.6158 23.1499 23.4692L24.2761 23.0149C24.9898 22.727 24.7838 21.6657 24.0142 21.6657H23.1C22.7134 21.6657 22.4 21.3523 22.4 20.9657V16.8733C22.4 16.4867 22.7134 16.1733 23.1 16.1733H24.3957C25.1641 16.1733 25.3712 15.1145 24.6594 14.8249L23.8243 14.4852C23.4626 14.3382 23.2912 13.9236 23.4433 13.5641L25.0519 9.76201C25.2007 9.41017 25.6042 9.24266 25.9585 9.3856L27.1235 9.85564C27.8366 10.1433 28.4247 9.23783 27.872 8.7033L27.2817 8.13237C26.9987 7.8587 26.997 7.4056 27.2778 7.12976L30.2586 4.20228C30.5302 3.93555 30.9651 3.93474 31.2377 4.20046L32.1871 5.12598C32.7352 5.66036 33.6204 5.05316 33.3193 4.34935L32.9743 3.54311C32.8203 3.18333 32.9912 2.76721 33.3536 2.6195L37.2744 1.02142C37.6293 0.876771 38.0346 1.04438 38.1836 1.39746L38.6936 2.60596C38.9904 3.30926 40.0385 3.09715 40.0385 2.33378V1.40288C40.0385 1.01628 40.3519 0.702881 40.7385 0.702881H44.9722C45.3588 0.702881 45.6722 1.01628 45.6722 1.40288V2.65631C45.6722 3.42066 46.7223 3.63181 47.0178 2.92686L47.3806 2.06106C47.529 1.70698 47.9349 1.53849 48.2904 1.6834L52.2116 3.28161C52.5732 3.42902 52.7443 3.84384 52.5917 4.20333L52.1062 5.34732C51.8075 6.05096 52.6918 6.65563 53.2392 6.12203L53.9439 5.43501C54.2158 5.16998 54.6493 5.16998 54.9212 5.43501L57.9003 8.33935C58.1821 8.61408 58.1821 9.06704 57.9003 9.34178L57.0188 10.2013C56.47 10.7363 57.0564 11.6374 57.7678 11.3522L58.6631 10.9935C59.0166 10.8518 59.4185 11.0187 59.5676 11.3692L61.1733 15.1431C61.3267 15.5036 61.1544 15.9198 60.7911 16.0664L59.6649 16.5206C58.9512 16.8085 59.1572 17.8698 59.9268 17.8698H60.8962C61.2843 17.8698 61.5983 18.1855 61.5962 18.5736L61.5743 22.6084ZM41.8377 9.32952C39.7317 9.32952 37.673 9.93835 35.922 11.079C34.1709 12.2196 32.8062 13.8409 32.0002 15.7377C31.1943 17.6346 30.9834 19.7216 31.3943 21.7352C31.8051 23.7489 32.8192 25.5986 34.3084 27.0504C35.7975 28.5021 37.6949 29.491 39.7604 29.8915C41.8259 30.2921 43.9668 30.0864 45.9125 29.3007C47.8582 28.5151 49.5213 27.1845 50.6914 25.4774C51.8614 23.7703 52.4857 21.7633 52.4857 19.7102C52.4858 16.967 51.3721 14.3352 49.388 12.3901C47.4038 10.4449 44.7106 9.34472 41.8968 9.32952H41.8377ZM41.8377 27.3593C40.2872 27.3536 38.7732 26.9002 37.4868 26.0563C36.2004 25.2124 35.1994 24.0155 34.6101 22.6173C34.0208 21.2192 33.8696 19.6823 34.1757 18.2005C34.4818 16.7186 35.2313 15.3584 36.3297 14.2915C37.4282 13.2247 38.8263 12.4989 40.3475 12.2061C41.8686 11.9133 43.4447 12.0665 44.8766 12.6463C46.3086 13.2261 47.5321 14.2063 48.3929 15.4636C49.2538 16.7208 49.7131 18.1986 49.7131 19.7102C49.7131 21.7339 48.8907 23.6752 47.4256 25.1089C45.9606 26.5425 43.9725 27.3517 41.8968 27.3593H41.8377Z" fill="url(#paint1_linear)"/>
<path d="M41.8987 8.97952H41.8968H41.8377C39.6645 8.97952 37.5393 9.60776 35.7309 10.7857C33.9225 11.9638 32.5116 13.6391 31.6781 15.6009C30.8445 17.5627 30.6263 19.7219 31.0513 21.8052C31.4764 23.8885 32.5253 25.8009 34.0641 27.301C35.6027 28.801 37.562 29.8217 39.6937 30.2351C41.8254 30.6485 44.035 30.4364 46.0436 29.6253C48.0521 28.8142 49.7705 27.4401 50.9801 25.6753C52.1897 23.9104 52.8357 21.8345 52.8357 19.7102C52.8358 16.8716 51.6833 14.1501 49.633 12.1401C47.5829 10.1304 44.8021 8.99521 41.8987 8.97952ZM34.6059 56.3523L31.4567 52.4428C31.2403 52.1742 30.9058 52.029 30.5618 52.0543L25.4662 52.4297C25.2014 52.4493 25.0121 52.1783 25.1216 51.9364L30.7595 39.4746C30.837 39.3034 31.0357 39.2239 31.2098 39.2945L35.0842 40.8642C35.1232 40.8801 35.1638 40.8917 35.2051 40.8989V40.9605C35.2051 41.3762 35.542 41.7132 35.9577 41.7132H37.5903H37.8263H38.2301C38.3676 41.7132 38.4923 41.7936 38.549 41.9188L40.0034 45.1327C40.0445 45.2235 40.045 45.3275 40.0046 45.4187L35.1985 56.2745C35.0924 56.5141 34.7703 56.5564 34.6059 56.3523ZM58.567 52.43L53.4692 52.0544C53.1239 52.029 52.7882 52.1754 52.572 52.4458L49.4457 56.355C49.2824 56.5591 48.9611 56.5187 48.8534 56.2805L42.5445 42.3221C42.4398 42.0904 42.6092 41.8279 42.8634 41.8279H43.9272C43.9876 41.8279 44.0423 41.8638 44.0664 41.9193C44.2494 42.341 44.734 42.5414 45.1614 42.3721L46.4733 41.8525C46.5143 41.8363 46.5581 41.8279 46.6022 41.8279H46.7119C46.8507 41.8279 46.9881 41.8004 47.1163 41.7469L47.3956 41.6303L47.3999 41.6286L52.5387 39.5624C52.5484 39.5585 52.5588 39.5565 52.5693 39.5565C52.5914 39.5565 52.6126 39.5654 52.6281 39.5812L52.9488 39.9095C53.1139 40.0785 53.3607 40.1193 53.5653 40.0305L58.912 51.9376C59.0206 52.1794 58.8314 52.4495 58.567 52.43ZM60.8743 22.9546H59.6042C58.4515 22.9546 58.1408 24.543 59.2086 24.9773L60.0424 25.3164C60.2235 25.3901 60.3091 25.5977 60.2326 25.7776L58.6268 29.552C58.5522 29.7275 58.3507 29.8109 58.1738 29.7395L56.9723 29.2548C55.9049 28.8241 55.0223 30.1769 55.8464 30.9803L56.4743 31.5925C56.6156 31.7302 56.6152 31.9574 56.4734 32.0946L53.4683 35.0025C53.3323 35.1342 53.1162 35.1338 52.9806 35.0016L52.0574 34.1016C51.2351 33.3 49.9073 34.2108 50.3591 35.2665L50.7027 36.0694C50.7799 36.2499 50.6936 36.4586 50.5115 36.5319L46.5828 38.1114C46.4076 38.1819 46.2082 38.1007 46.132 37.928L45.5631 36.6389C45.1046 35.6 43.5525 35.9272 43.5525 37.0628V38.1327C43.5525 38.326 43.3958 38.4827 43.2025 38.4827H38.9688C38.7755 38.4827 38.6188 38.326 38.6188 38.1327V36.8127C38.6188 35.6706 37.0529 35.3496 36.6035 36.3996L36.2111 37.3166C36.1361 37.4917 35.9348 37.5748 35.7581 37.5033L31.8632 35.9284C31.6818 35.855 31.5958 35.6472 31.6722 35.4671L32.157 34.325C32.605 33.2695 31.2785 32.3625 30.4575 33.1629L29.7528 33.8499C29.6169 33.9824 29.4001 33.9824 29.2641 33.8499L26.285 30.9453C26.1441 30.8079 26.1441 30.5814 26.285 30.4441L27.1662 29.585C27.9894 28.7825 27.1098 27.4308 26.0427 27.8585L25.1476 28.2172C24.9708 28.288 24.7699 28.2046 24.6953 28.0293L23.0897 24.2554C23.013 24.0751 23.0992 23.8671 23.2809 23.7938L24.407 23.3395C25.4776 22.9076 25.1686 21.3157 24.0142 21.3157H23.1C22.9067 21.3157 22.75 21.159 22.75 20.9657V16.8733C22.75 16.68 22.9067 16.5233 23.1 16.5233H24.3957C25.5484 16.5233 25.859 14.935 24.7913 14.5007L23.9561 14.161C23.7753 14.0875 23.6896 13.8802 23.7657 13.7005L25.3742 9.89838C25.4486 9.72246 25.6504 9.63871 25.8275 9.71017L26.9925 10.1802C28.0621 10.6118 28.9444 9.2535 28.1153 8.4517L27.525 7.88077C27.3835 7.74394 27.3826 7.51739 27.5231 7.37947L30.5038 4.45199C30.6396 4.31862 30.8571 4.31822 30.9934 4.45108L31.9428 5.37659C32.765 6.17817 34.0928 5.26737 33.641 4.21166L33.296 3.40542C33.2191 3.22553 33.3045 3.01747 33.4857 2.94362L37.4065 1.34553C37.584 1.27321 37.7866 1.35701 37.8611 1.53355L38.3711 2.74205C38.8164 3.797 40.3885 3.47883 40.3885 2.33378V1.40288C40.3885 1.20958 40.5452 1.05288 40.7385 1.05288H44.9722C45.1655 1.05288 45.3222 1.20958 45.3222 1.40288V2.65631C45.3222 3.80284 46.8974 4.11956 47.3406 3.06214L47.7034 2.19634C47.7776 2.0193 47.9805 1.93505 48.1583 2.00751L52.0795 3.60573C52.2603 3.67943 52.3458 3.88684 52.2695 4.06658L51.784 5.21057C51.336 6.26604 52.6625 7.17304 53.4835 6.37265L54.1882 5.68563C54.3241 5.55311 54.5409 5.55311 54.6769 5.68562L57.656 8.58996C57.7969 8.72733 57.7969 8.95381 57.656 9.09118L56.7744 9.95068C55.9513 10.7532 56.8309 12.1048 57.898 11.6771L58.7933 11.3184C58.97 11.2475 59.171 11.331 59.2455 11.5062L60.8512 15.2802C60.9279 15.4604 60.8418 15.6685 60.6601 15.7418L59.534 16.1961C58.4634 16.6279 58.7724 18.2198 59.9268 18.2198H60.8962C61.0903 18.2198 61.2473 18.3777 61.2462 18.5717L61.2243 22.6065C61.2232 22.7991 61.0669 22.9546 60.8743 22.9546ZM41.839 27.0093C41.8388 27.0093 41.8387 27.0093 41.8385 27.0093C40.3554 27.0037 38.9079 26.57 37.6788 25.7636C36.4497 24.9573 35.4946 23.8146 34.9326 22.4814C34.3708 21.1483 34.2268 19.6835 34.5185 18.2713C34.8102 16.8589 35.5248 15.5612 36.5736 14.5426C37.6225 13.5239 38.9586 12.8299 40.4136 12.5498C41.8686 12.2697 43.3761 12.4164 44.7453 12.9707C46.1144 13.525 47.2828 14.4617 48.1041 15.6613C48.9254 16.8608 49.3631 18.2698 49.3631 19.7102C49.3631 21.6384 48.5795 23.49 47.1808 24.8587C45.782 26.2276 43.8818 27.0019 41.896 27.0093C41.8958 27.0093 41.8957 27.0093 41.8955 27.0093H41.839Z" stroke="white" stroke-opacity="0.5" stroke-width="0.7"/>
</g>
<defs>
<filter id="filter0_i" x="0" y="15.4917" width="84" height="95.7192" filterUnits="userSpaceOnUse" color-interpolation-filters="sRGB">
<feFlood flood-opacity="0" result="BackgroundImageFix"/>
<feBlend mode="normal" in="SourceGraphic" in2="BackgroundImageFix" result="shape"/>
<feColorMatrix in="SourceAlpha" type="matrix" values="0 0 0 0 0 0 0 0 0 0 0 0 0 0 0 0 0 0 127 0" result="hardAlpha"/>
<feOffset/>
<feGaussianBlur stdDeviation="7"/>
<feComposite in2="hardAlpha" operator="arithmetic" k2="-1" k3="1"/>
<feColorMatrix type="matrix" values="0 0 0 0 0 0 0 0 0 0 0 0 0 0 0 0 0 0 0.5 0"/>
<feBlend mode="normal" in2="shape" result="effect1_innerShadow"/>
</filter>
<filter id="filter1_dd" x="8.40002" y="0.702881" width="67.1962" height="84.1336" filterUnits="userSpaceOnUse" color-interpolation-filters="sRGB">
<feFlood flood-opacity="0" result="BackgroundImageFix"/>
<feColorMatrix in="SourceAlpha" type="matrix" values="0 0 0 0 0 0 0 0 0 0 0 0 0 0 0 0 0 0 127 0"/>
<feOffset dy="14"/>
<feGaussianBlur stdDeviation="7"/>
<feColorMatrix type="matrix" values="0 0 0 0 1 0 0 0 0 1 0 0 0 0 1 0 0 0 0.5 0"/>
<feBlend mode="overlay" in2="BackgroundImageFix" result="effect1_dropShadow"/>
<feColorMatrix in="SourceAlpha" type="matrix" values="0 0 0 0 0 0 0 0 0 0 0 0 0 0 0 0 0 0 127 0"/>
<feOffset dy="2.8"/>
<feColorMatrix type="matrix" values="0 0 0 0 0 0 0 0 0 0 0 0 0 0 0 0 0 0 0.5 0"/>
<feBlend mode="normal" in2="effect1_dropShadow" result="effect2_dropShadow"/>
<feBlend mode="normal" in="SourceGraphic" in2="effect2_dropShadow" result="shape"/>
</filter>
<linearGradient id="paint0_linear" x1="42" y1="3.96833" x2="42" y2="112.8" gradientUnits="userSpaceOnUse">
<stop stop-color="#0072A3"/>
<stop offset="1" stop-color="#004766"/>
</linearGradient>
<linearGradient id="paint1_linear" x1="42" y1="0.702881" x2="42" y2="57.4662" gradientUnits="userSpaceOnUse">
<stop stop-color="white"/>
<stop offset="0.213542" stop-color="#C5C5C5"/>
<stop offset="0.5" stop-color="white"/>
</linearGradient>
</defs>
</svg>
