<svg width="84" height="115" viewBox="0 0 84 115" fill="none" xmlns="http://www.w3.org/2000/svg">
<g filter="url(#filter0_i)">
<path d="M7.48105 91.9033L32.681 108.703C37.1981 111.715 39.4567 113.22 42 113.22C44.5433 113.22 46.8019 111.715 51.319 108.703L76.519 91.9033C80.1811 89.4619 82.0121 88.2412 83.0061 86.384C84 84.5268 84 82.3262 84 77.9249V30.916C84 22.9964 84 19.0366 81.5397 16.5763C79.0794 14.116 75.1196 14.116 67.2 14.116H16.8C8.88041 14.116 4.92061 14.116 2.4603 16.5763C0 19.0366 0 22.9964 0 30.916V77.9249C0 82.3262 0 84.5268 0.993933 86.384C1.98787 88.2412 3.81893 89.4619 7.48105 91.9033Z" fill="#A30013"/>
<path d="M7.48105 91.9033L32.681 108.703C37.1981 111.715 39.4567 113.22 42 113.22C44.5433 113.22 46.8019 111.715 51.319 108.703L76.519 91.9033C80.1811 89.4619 82.0121 88.2412 83.0061 86.384C84 84.5268 84 82.3262 84 77.9249V30.916C84 22.9964 84 19.0366 81.5397 16.5763C79.0794 14.116 75.1196 14.116 67.2 14.116H16.8C8.88041 14.116 4.92061 14.116 2.4603 16.5763C0 19.0366 0 22.9964 0 30.916V77.9249C0 82.3262 0 84.5268 0.993933 86.384C1.98787 88.2412 3.81893 89.4619 7.48105 91.9033Z" fill="url(#paint0_linear)"/>
</g>
<path d="M33.4576 107.538L8.25763 90.7385C6.40527 89.5036 5.09576 88.6289 4.11829 87.8368C3.16334 87.0631 2.60687 86.4308 2.22828 85.7234C1.84968 85.016 1.6323 84.2023 1.5182 82.9785C1.4014 81.7259 1.4 80.1511 1.4 77.9249V30.916C1.4 26.9166 1.40297 24.0579 1.69505 21.8854C1.98172 19.7532 2.52358 18.4929 3.45025 17.5662C4.37693 16.6395 5.63727 16.0977 7.76946 15.811C9.94193 15.5189 12.8006 15.516 16.8 15.516H67.2C71.1994 15.516 74.0581 15.5189 76.2305 15.811C78.3627 16.0977 79.6231 16.6395 80.5497 17.5662C81.4764 18.4929 82.0183 19.7532 82.3049 21.8854C82.597 24.0579 82.6 26.9166 82.6 30.916V77.9249C82.6 80.1511 82.5986 81.7259 82.4818 82.9785C82.3677 84.2023 82.1503 85.016 81.7717 85.7234C81.3931 86.4308 80.8367 87.0631 79.8817 87.8368C78.9042 88.6289 77.5947 89.5036 75.7424 90.7385L50.5424 107.538C48.2585 109.061 46.6374 110.139 45.2732 110.849C43.9394 111.543 42.9664 111.82 42 111.82C41.0336 111.82 40.0606 111.543 38.7268 110.849C37.3626 110.139 35.7415 109.061 33.4576 107.538Z" stroke="#B00015" stroke-width="2.8"/>
<rect x="19.6" y="0.115967" width="35.84" height="50.4" rx="1.4" fill="#66000C"/>
<g filter="url(#filter1_dd)">
<path fill-rule="evenodd" clip-rule="evenodd" d="M55.44 1.40267V49.2297C55.44 49.3986 55.4035 49.5658 55.3326 49.7218C55.2618 49.8779 55.1583 50.0197 55.0274 50.1391C54.8965 50.2586 54.741 50.3534 54.57 50.418C54.3989 50.4827 54.2153 50.516 54.0301 50.516H21.0104C20.8252 50.516 20.6416 50.4827 20.4705 50.418C20.2995 50.3534 20.144 50.2586 20.0131 50.1391C19.8822 50.0197 19.7787 49.8779 19.7078 49.7218C19.637 49.5658 19.6005 49.3986 19.6005 49.2297V1.40267C19.5954 1.23249 19.6284 1.06336 19.6974 0.905201C19.7665 0.747041 19.8698 0.603308 20.0018 0.482929C20.1337 0.36255 20.2913 0.267845 20.4646 0.204858C20.638 0.14187 20.8238 0.111772 21.0104 0.116437H54.0301C54.2153 0.116437 54.3989 0.149722 54.57 0.214361C54.741 0.279 54.8965 0.373822 55.0274 0.493259C55.1583 0.612695 55.2618 0.754521 55.3326 0.910573C55.4035 1.06662 55.44 1.23376 55.44 1.40267ZM63.9869 6.09254C64.2513 6.33359 64.4 6.66045 64.4 7.00135V54.8306C64.4 55.1715 64.2513 55.4983 63.9869 55.7394C63.7225 55.9804 63.364 56.116 62.9901 56.116H29.9698C29.5959 56.116 29.2374 55.9804 28.973 55.7394C28.7086 55.4983 28.56 55.1715 28.56 54.8306V52.226H53.4177C54.4017 52.226 55.3455 51.8697 56.0413 51.2354C56.7371 50.601 57.1278 49.7405 57.1278 48.8434V5.71597H62.9901C63.364 5.71597 63.7225 5.85149 63.9869 6.09254ZM44.8832 14.613C46.6474 9.79898 37.5917 6.9178 37.1803 13.0106C35.338 12.7381 33.5766 12.5288 36.8954 14.6318C36.9722 20.9938 39.1609 21.6282 39.1738 21.6319L39.1739 21.6319C39.174 21.632 34.8059 25.644 34.3319 25.9793C34.2606 26.0301 34.0652 25.5324 34.1183 25.3899C34.6997 25.1421 34.6737 25.0941 34.4942 24.7634C34.4878 24.7516 34.4812 24.7394 34.4744 24.7268C34.3882 24.567 34.3678 24.479 34.321 24.4614C34.262 24.4392 34.161 24.5286 33.8336 24.7268C33.7271 24.7925 32.1493 21.3325 30.4379 17.5797C28.6288 13.6125 26.6705 9.31813 26.1434 8.51589C25.8648 8.54862 25.7423 8.72634 25.6536 8.85489C25.6249 8.89665 25.5996 8.93322 25.5738 8.95794C25.3325 9.18903 25.9051 9.98647 26.0723 9.91582C26.2017 9.97474 26.2608 10.16 26.3268 10.367C26.3568 10.461 26.3882 10.5595 26.4283 10.6527C26.3297 10.7181 26.2112 10.7706 26.0938 10.8225C25.9177 10.9005 25.7443 10.9773 25.645 11.0947C25.342 11.4533 25.584 12.0596 25.8518 12.7309C25.9552 12.9898 26.0624 13.2585 26.1437 13.5263C26.1437 13.5263 25.0164 13.9433 26.2149 14.4104C26.3156 14.4497 26.4997 14.263 26.4997 14.263C26.4997 14.263 28.2519 18.8763 28.7783 19.421C28.8088 19.4202 28.8887 19.3943 28.9867 19.3626C29.2024 19.2927 29.5058 19.1945 29.5615 19.2737C29.9478 19.8204 30.2736 20.8947 30.2736 20.8947C30.2736 20.8947 30.6811 20.8761 30.9143 20.7474C30.9767 20.7129 30.9862 20.7483 30.9988 20.795C31.0083 20.8302 31.0195 20.8719 31.0567 20.8947C31.2006 20.9828 29.1162 21.8868 27.3975 22.6322C26.2602 23.1254 25.283 23.5492 25.2179 23.6211C25.0542 23.8016 26.0722 25.3158 26.0722 25.3158C26.0722 25.3158 28.8967 23.7395 29.0629 23.9897C29.3335 24.3971 30.1773 25.8912 29.9885 26.8634C29.4882 27.0939 28.2588 28.0507 28.3508 28.3371C27.2341 28.2026 28.5644 29.5898 28.5644 29.5898L32.6942 38.6527C32.6942 38.6527 32.8365 41.4556 32.8365 42.1159C35.7714 41.8125 36.9757 41.4959 37.2513 41.0843C37.2513 40.7472 37.1673 40.2798 36.9665 39.6106C37.3957 39.4412 37.8618 38.2857 37.3937 37.5474C45.2396 41.4128 49.4998 31.9485 50.2819 27.9683C50.9145 24.7487 48.8367 23.5373 48.0657 23.0877C47.8896 22.985 47.7816 22.9221 47.7897 22.8841C47.7934 22.4574 47.1796 22.0907 46.5259 21.7003C46.1054 21.4491 45.6684 21.188 45.3687 20.8948C45.2669 20.5348 45.0751 20.2089 44.8125 19.9501C44.55 19.6913 44.2261 19.5089 43.8736 19.4211C43.8774 18.7737 43.9693 18.1301 44.1467 17.5092C45.5455 17.2562 47.1423 16.5784 44.8832 14.613ZM30.7005 24.2844C30.7005 23.9376 30.5374 23.6567 30.2733 23.5475C30.1709 23.5052 30.0924 23.6642 30.0203 23.8101C29.9851 23.8814 29.9514 23.9496 29.9172 23.9897C29.8686 24.0469 29.8372 24.0052 29.7969 23.9517C29.7581 23.9003 29.711 23.8379 29.6324 23.8423C29.2813 23.8618 29.7631 24.7917 30.078 24.7917C30.3929 24.7917 30.7005 24.6312 30.7005 24.2844ZM30.8429 25.1686C30.8429 25.0465 30.7105 24.9434 30.4869 25.0212H30.487C30.3322 25.0751 30.2273 25.0445 30.0932 25.0053C30.0227 24.9847 29.9442 24.9618 29.8462 24.9475C29.8462 25.0696 30.2509 25.4634 30.4869 25.4634C30.7229 25.4634 30.8429 25.2907 30.8429 25.1686Z" fill="url(#paint1_linear)"/>
</g>
<defs>
<filter id="filter0_i" x="0" y="14.116" width="84" height="99.1045" filterUnits="userSpaceOnUse" color-interpolation-filters="sRGB">
<feFlood flood-opacity="0" result="BackgroundImageFix"/>
<feBlend mode="normal" in="SourceGraphic" in2="BackgroundImageFix" result="shape"/>
<feColorMatrix in="SourceAlpha" type="matrix" values="0 0 0 0 0 0 0 0 0 0 0 0 0 0 0 0 0 0 127 0" result="hardAlpha"/>
<feOffset/>
<feGaussianBlur stdDeviation="7"/>
<feComposite in2="hardAlpha" operator="arithmetic" k2="-1" k3="1"/>
<feColorMatrix type="matrix" values="0 0 0 0 0 0 0 0 0 0 0 0 0 0 0 0 0 0 0.5 0"/>
<feBlend mode="normal" in2="shape" result="effect1_innerShadow"/>
</filter>
<filter id="filter1_dd" x="5.59998" y="0.115967" width="72.8" height="84" filterUnits="userSpaceOnUse" color-interpolation-filters="sRGB">
<feFlood flood-opacity="0" result="BackgroundImageFix"/>
<feColorMatrix in="SourceAlpha" type="matrix" values="0 0 0 0 0 0 0 0 0 0 0 0 0 0 0 0 0 0 127 0"/>
<feOffset dy="14"/>
<feGaussianBlur stdDeviation="7"/>
<feColorMatrix type="matrix" values="0 0 0 0 1 0 0 0 0 1 0 0 0 0 1 0 0 0 0.5 0"/>
<feBlend mode="overlay" in2="BackgroundImageFix" result="effect1_dropShadow"/>
<feColorMatrix in="SourceAlpha" type="matrix" values="0 0 0 0 0 0 0 0 0 0 0 0 0 0 0 0 0 0 127 0"/>
<feOffset dy="2.8"/>
<feColorMatrix type="matrix" values="0 0 0 0 0 0 0 0 0 0 0 0 0 0 0 0 0 0 0.5 0"/>
<feBlend mode="normal" in2="effect1_dropShadow" result="effect2_dropShadow"/>
<feBlend mode="normal" in="SourceGraphic" in2="effect2_dropShadow" result="shape"/>
</filter>
<linearGradient id="paint0_linear" x1="42" y1="2.17913" x2="42" y2="114.916" gradientUnits="userSpaceOnUse">
<stop stop-color="#A30013"/>
<stop offset="1" stop-color="#66000C"/>
</linearGradient>
<linearGradient id="paint1_linear" x1="42" y1="0.115967" x2="42" y2="56.116" gradientUnits="userSpaceOnUse">
<stop stop-color="white"/>
<stop offset="0.213542" stop-color="#C5C5C5"/>
<stop offset="0.5" stop-color="white"/>
</linearGradient>
</defs>
</svg>
