<svg width="84" height="115" viewBox="0 0 84 115" fill="none" xmlns="http://www.w3.org/2000/svg">
<g filter="url(#filter0_i)">
<path d="M7.48105 91.9033L32.681 108.703C37.1981 111.715 39.4567 113.22 42 113.22C44.5433 113.22 46.8019 111.715 51.319 108.703L76.519 91.9033C80.1811 89.4619 82.0121 88.2412 83.0061 86.384C84 84.5268 84 82.3262 84 77.9249V30.916C84 22.9964 84 19.0366 81.5397 16.5763C79.0794 14.116 75.1196 14.116 67.2 14.116H16.8C8.88041 14.116 4.92061 14.116 2.4603 16.5763C0 19.0366 0 22.9964 0 30.916V77.9249C0 82.3262 0 84.5268 0.993933 86.384C1.98787 88.2412 3.81893 89.4619 7.48105 91.9033Z" fill="#00A44C"/>
<path d="M7.48105 91.9033L32.681 108.703C37.1981 111.715 39.4567 113.22 42 113.22C44.5433 113.22 46.8019 111.715 51.319 108.703L76.519 91.9033C80.1811 89.4619 82.0121 88.2412 83.0061 86.384C84 84.5268 84 82.3262 84 77.9249V30.916C84 22.9964 84 19.0366 81.5397 16.5763C79.0794 14.116 75.1196 14.116 67.2 14.116H16.8C8.88041 14.116 4.92061 14.116 2.4603 16.5763C0 19.0366 0 22.9964 0 30.916V77.9249C0 82.3262 0 84.5268 0.993933 86.384C1.98787 88.2412 3.81893 89.4619 7.48105 91.9033Z" fill="url(#paint0_linear)"/>
</g>
<path d="M33.4576 107.538L8.25763 90.7385C6.40527 89.5036 5.09576 88.6289 4.11829 87.8368C3.16334 87.0631 2.60687 86.4308 2.22828 85.7234C1.84968 85.016 1.6323 84.2023 1.5182 82.9785C1.4014 81.7259 1.4 80.1511 1.4 77.9249V30.916C1.4 26.9166 1.40297 24.0579 1.69505 21.8854C1.98172 19.7532 2.52358 18.4929 3.45025 17.5662C4.37693 16.6395 5.63727 16.0977 7.76946 15.811C9.94193 15.5189 12.8006 15.516 16.8 15.516H67.2C71.1994 15.516 74.0581 15.5189 76.2305 15.811C78.3627 16.0977 79.6231 16.6395 80.5497 17.5662C81.4764 18.4929 82.0183 19.7532 82.3049 21.8854C82.597 24.0579 82.6 26.9166 82.6 30.916V77.9249C82.6 80.1511 82.5986 81.7259 82.4818 82.9785C82.3677 84.2023 82.1503 85.016 81.7717 85.7234C81.3931 86.4308 80.8367 87.0631 79.8817 87.8368C78.9042 88.6289 77.5947 89.5036 75.7424 90.7385L50.5424 107.538C48.2585 109.061 46.6374 110.139 45.2732 110.849C43.9394 111.543 42.9664 111.82 42 111.82C41.0336 111.82 40.0606 111.543 38.7268 110.849C37.3626 110.139 35.7415 109.061 33.4576 107.538Z" stroke="#00A44C" stroke-width="2.8"/>
<g filter="url(#filter1_dd)">
<path d="M69.8921 2.93297C69.8472 2.83319 69.7776 2.74606 69.6908 2.67942C69.596 2.60664 69.491 2.54656 69.3786 2.50104C69.2145 2.43459 69.0381 2.40059 68.86 2.40105H61.5202C60.8892 2.40105 60.3776 1.88952 60.3776 1.25851V1.25851C60.3776 0.6275 59.8661 0.115967 59.2351 0.115967H24.9835C24.3525 0.115967 23.841 0.6275 23.841 1.25851V1.25851C23.841 1.88952 23.3295 2.40105 22.6984 2.40105H15.3586C15.0012 2.40994 14.6612 2.54974 14.4084 2.79177C14.1555 3.03379 14.0093 3.35956 14 3.70172V13.9666C14.0008 14.1539 14.044 14.3389 14.1264 14.5088C14.2088 14.6787 14.3285 14.8295 14.4774 14.951L25.3602 24.0151C25.4463 24.0868 25.5548 24.1261 25.6668 24.1261V24.1261C25.9613 24.1261 26.1856 24.3894 26.1485 24.6815C26.0652 25.3371 26.0181 25.9965 26.0076 26.6571C26.0086 30.3984 27.4454 34.009 30.0451 36.8024C32.6448 39.5958 36.226 41.3773 40.108 41.8083C40.2468 41.8182 40.3806 41.8623 40.4964 41.9362C40.6122 42.0101 40.7063 42.1115 40.7692 42.2304C40.8334 42.3437 40.8671 42.4705 40.8671 42.5994C40.8671 42.7284 40.8334 42.8552 40.7692 42.9685L34.0013 53.983C33.4281 54.9158 34.0993 56.116 35.1941 56.116H49.7576C50.8527 56.116 51.5238 54.9153 50.9501 53.9825L44.1106 42.8631C44.0463 42.7498 44.0127 42.6228 44.0127 42.4939C44.0127 42.3649 44.0463 42.2381 44.1106 42.1248C44.1682 42.0059 44.2551 41.9021 44.3639 41.8225C44.4726 41.7429 44.5998 41.6898 44.7348 41.6678C48.8338 40.9622 52.4828 38.7519 54.9041 35.5079C57.3228 32.2675 58.3256 28.2516 57.6992 24.3146C57.6978 24.3061 57.6971 24.2975 57.6971 24.2889V24.2889C57.6971 24.199 57.77 24.1261 57.8599 24.1261H58.2637C58.3958 24.1261 58.5238 24.0799 58.6254 23.9955L69.4842 14.9862C69.6331 14.8647 69.753 14.7138 69.8354 14.544C69.9177 14.3741 69.9607 14.1891 69.9615 14.0018V3.9143C69.9615 3.79651 69.9806 3.67964 69.9932 3.56251C70.0161 3.34796 69.9813 3.13116 69.8921 2.93297ZM17.2072 13.7542C16.8745 13.4885 16.6807 13.0859 16.6807 12.6601V6.4024C16.6807 5.6292 17.3075 5.0024 18.0807 5.0024H23.3216C23.71 5.0024 24.0248 5.3172 24.0248 5.70552V5.70552C24.0248 6.09384 24.3396 6.40864 24.7279 6.40864H31.1483C31.3319 6.40845 31.5112 6.45706 31.6665 6.54791C31.7401 6.59095 31.8039 6.64981 31.8509 6.72091C31.9484 6.86823 31.9984 7.04088 31.993 7.21711V10.7933C31.993 10.9394 32.0266 11.0844 32.029 11.2305C32.0291 11.2375 32.0291 11.2444 32.029 11.2513C32.0272 11.3992 31.9484 11.5316 31.8624 11.6519C29.9317 14.3489 28.4736 17.3284 27.5447 20.4728C27.4352 20.8435 27.0978 21.1029 26.7113 21.1029V21.1029C26.5172 21.1029 26.3288 21.0369 26.1771 20.9158L17.2072 13.7542ZM67.5155 12.6914C67.5065 13.0992 67.3201 13.4829 67.005 13.742L58.3743 20.8381C58.2213 20.9638 58.0295 21.0325 57.8315 21.0325V21.0325C57.4481 21.0325 57.1129 20.7768 57.0018 20.4098C56.0559 17.2861 54.6029 14.3233 52.6951 11.6301C52.6037 11.501 52.5219 11.3579 52.5233 11.1997C52.5234 11.1921 52.5235 11.1845 52.5238 11.1769C52.5288 11.0434 52.5562 10.9107 52.5562 10.7771V7.18192C52.5692 6.96069 52.6598 6.75019 52.8133 6.58436C52.9867 6.44218 53.2092 6.36699 53.4375 6.37345H59.8757C60.2543 6.37345 60.5612 6.06653 60.5612 5.68792V5.68792C60.5612 5.30932 60.8681 5.0024 61.2467 5.0024H66.2537C67.039 5.0024 67.6707 5.64816 67.6534 6.43324L67.5155 12.6914Z" fill="url(#paint1_linear)"/>
<path d="M16.3307 12.6601V6.4024C16.3307 5.4359 17.1142 4.6524 18.0807 4.6524H23.3216C23.9033 4.6524 24.3748 5.1239 24.3748 5.70552C24.3748 5.90054 24.5329 6.05864 24.7279 6.05864L31.1479 6.05864M16.3307 12.6601L31.1479 6.05864M16.3307 12.6601C16.3307 13.1923 16.5729 13.6956 16.9888 14.0277L25.9587 21.1893C26.1725 21.36 26.4378 21.4529 26.7113 21.4529C27.2576 21.4529 27.7282 21.0869 27.8803 20.5719C28.7981 17.4655 30.2388 14.5213 32.147 11.8556C32.2361 11.731 32.3757 11.5209 32.379 11.2556C32.3791 11.2454 32.3791 11.2352 32.3789 11.225C32.3775 11.1358 32.3671 11.0492 32.3591 10.9823L32.3576 10.9704C32.3487 10.8954 32.343 10.8424 32.343 10.7933V7.22208C32.3494 6.97417 32.2784 6.73267 32.1428 6.52778C32.0646 6.40954 31.9604 6.31434 31.8432 6.24579C31.6339 6.12334 31.3935 6.05844 31.1483 6.05864M16.3307 12.6601L31.1483 6.05864M31.1479 6.05864L31.1483 6.05864M31.1479 6.05864C31.148 6.05864 31.1481 6.05864 31.1483 6.05864M68.86 2.75105L68.8609 2.75105C68.994 2.75071 69.1255 2.77613 69.2472 2.82544C69.3306 2.85922 69.4081 2.90362 69.4776 2.95701C69.5195 2.98916 69.5522 3.03062 69.5729 3.07664C69.6368 3.21853 69.6614 3.37295 69.6451 3.52536C69.643 3.54543 69.6402 3.56861 69.6371 3.59408C69.626 3.68423 69.6115 3.8031 69.6115 3.9143L69.6115 14.0002C69.6115 14.0004 69.6115 14.0007 69.6115 14.0009C69.6108 14.1354 69.58 14.2685 69.5204 14.3912C69.4608 14.5143 69.3732 14.625 69.2629 14.715L69.2607 14.7168L58.4019 23.7262C58.3631 23.7584 58.3142 23.7761 58.2637 23.7761H57.8599C57.5767 23.7761 57.3471 24.0057 57.3471 24.2889C57.3471 24.3161 57.3493 24.3431 57.3535 24.3696C57.9648 28.2118 56.9867 32.1326 54.6236 35.2986C52.2578 38.4681 48.6897 40.6314 44.677 41.3226C44.489 41.3535 44.3106 41.4277 44.1571 41.5401C44.0062 41.6506 43.8835 41.795 43.8006 41.9621C43.7104 42.125 43.6627 42.3075 43.6627 42.4939C43.6627 42.6839 43.7123 42.8704 43.8062 43.0358L43.806 43.0359L43.8125 43.0465L50.652 54.1659C51.0823 54.8654 50.5789 55.766 49.7576 55.766H35.1941C34.373 55.766 33.8696 54.8659 34.2995 54.1663L41.0674 43.1517L41.0676 43.1518L41.0736 43.1412C41.1674 42.9758 41.2171 42.7896 41.2171 42.5994C41.2171 42.411 41.1683 42.2264 41.0761 42.0622C40.9843 41.8905 40.8489 41.7459 40.6847 41.6412C40.5214 41.5369 40.334 41.4748 40.1404 41.4598C36.3419 41.0365 32.8411 39.293 30.3013 36.5639C27.7612 33.8345 26.3593 30.3097 26.3576 26.6598C26.368 26.0131 26.4141 25.3675 26.4957 24.7256C26.5584 24.2318 26.1795 23.7761 25.6668 23.7761C25.6366 23.7761 25.6074 23.7655 25.5842 23.7462L14.7014 14.6821L14.7014 14.682L14.6986 14.6798C14.5885 14.59 14.5011 14.4793 14.4413 14.356C14.3817 14.2331 14.3507 14.0999 14.35 13.9657V3.70685C14.3578 3.46075 14.4635 3.22346 14.6504 3.04459C14.8378 2.86518 15.0924 2.75878 15.3633 2.75105H22.6984C23.5228 2.75105 24.191 2.08282 24.191 1.25851C24.191 0.8208 24.5458 0.465967 24.9835 0.465967H59.2351C59.6728 0.465967 60.0276 0.8208 60.0276 1.25851C60.0276 2.08282 60.6959 2.75105 61.5202 2.75105L68.86 2.75105ZM52.2068 7.16142L52.2062 7.17166V7.18192V10.7771C52.2062 10.8223 52.2016 10.8713 52.1941 10.938C52.1934 10.9444 52.1926 10.9511 52.1918 10.958C52.1852 11.0163 52.1768 11.0897 52.1741 11.1638C52.1737 11.1747 52.1734 11.1856 52.1733 11.1966C52.1708 11.4739 52.313 11.6962 52.4095 11.8324C54.2957 14.4952 55.732 17.424 56.6668 20.5112C56.8213 21.0215 57.2895 21.3825 57.8315 21.3825C58.1106 21.3825 58.381 21.2856 58.5965 21.1084L67.2273 14.0123C67.6211 13.6885 67.8542 13.2089 67.8654 12.6991L68.0033 6.44094C68.0249 5.45959 67.2353 4.6524 66.2537 4.6524H61.2467C60.6748 4.6524 60.2112 5.11602 60.2112 5.68792C60.2112 5.87323 60.061 6.02345 59.8757 6.02345H53.442C53.133 6.01596 52.8299 6.11813 52.5914 6.31369L52.5728 6.32895L52.5564 6.34661C52.3491 6.57063 52.2246 6.85747 52.2068 7.16142Z" stroke="white" stroke-opacity="0.5" stroke-width="0.7"/>
</g>
<defs>
<filter id="filter0_i" x="0" y="14.116" width="84" height="99.1045" filterUnits="userSpaceOnUse" color-interpolation-filters="sRGB">
<feFlood flood-opacity="0" result="BackgroundImageFix"/>
<feBlend mode="normal" in="SourceGraphic" in2="BackgroundImageFix" result="shape"/>
<feColorMatrix in="SourceAlpha" type="matrix" values="0 0 0 0 0 0 0 0 0 0 0 0 0 0 0 0 0 0 127 0" result="hardAlpha"/>
<feOffset/>
<feGaussianBlur stdDeviation="7"/>
<feComposite in2="hardAlpha" operator="arithmetic" k2="-1" k3="1"/>
<feColorMatrix type="matrix" values="0 0 0 0 0 0 0 0 0 0 0 0 0 0 0 0 0 0 0.5 0"/>
<feBlend mode="normal" in2="shape" result="effect1_innerShadow"/>
</filter>
<filter id="filter1_dd" x="0" y="0.115967" width="84" height="84" filterUnits="userSpaceOnUse" color-interpolation-filters="sRGB">
<feFlood flood-opacity="0" result="BackgroundImageFix"/>
<feColorMatrix in="SourceAlpha" type="matrix" values="0 0 0 0 0 0 0 0 0 0 0 0 0 0 0 0 0 0 127 0"/>
<feOffset dy="14"/>
<feGaussianBlur stdDeviation="7"/>
<feColorMatrix type="matrix" values="0 0 0 0 1 0 0 0 0 1 0 0 0 0 1 0 0 0 0.5 0"/>
<feBlend mode="overlay" in2="BackgroundImageFix" result="effect1_dropShadow"/>
<feColorMatrix in="SourceAlpha" type="matrix" values="0 0 0 0 0 0 0 0 0 0 0 0 0 0 0 0 0 0 127 0"/>
<feOffset dy="2.8"/>
<feColorMatrix type="matrix" values="0 0 0 0 0 0 0 0 0 0 0 0 0 0 0 0 0 0 0.5 0"/>
<feBlend mode="normal" in2="effect1_dropShadow" result="effect2_dropShadow"/>
<feBlend mode="normal" in="SourceGraphic" in2="effect2_dropShadow" result="shape"/>
</filter>
<linearGradient id="paint0_linear" x1="42" y1="2.17913" x2="42" y2="114.916" gradientUnits="userSpaceOnUse">
<stop stop-color="#00A44C"/>
<stop offset="1" stop-color="#006630"/>
</linearGradient>
<linearGradient id="paint1_linear" x1="42" y1="0.115967" x2="42" y2="56.116" gradientUnits="userSpaceOnUse">
<stop stop-color="white"/>
<stop offset="0.213542" stop-color="#C5C5C5"/>
<stop offset="0.5" stop-color="white"/>
</linearGradient>
</defs>
</svg>
