<?xml version="1.0" encoding="utf-8"?>
<svg version="1.1" id="Слой_1" xmlns="http://www.w3.org/2000/svg" xmlns:xlink="http://www.w3.org/1999/xlink" x="0px" y="0px"
	 viewBox="0 0 87.3 87.3" style="enable-background:new 0 0 87.3 87.3;" xml:space="preserve">
<style type="text/css">
	.st0{fill:url(#SVGID_1_);}
	.st1{fill:none;}
	.st2{fill-rule:evenodd;clip-rule:evenodd;fill:url(#SVGID_2_);stroke:url(#SVGID_3_);stroke-width:0.6821;stroke-linejoin:round;}
	.st3{fill-rule:evenodd;clip-rule:evenodd;fill:#A5A5A5;}
</style>
<g>
		<radialGradient id="SVGID_1_" cx="-252.25" cy="455.7719" r="1" gradientTransform="matrix(2.326829e-15 38 38 -2.326829e-15 -17271.5898 9633.8506)" gradientUnits="userSpaceOnUse">
		<stop  offset="0" style="stop-color:#E80000"/>
		<stop  offset="0.3906" style="stop-color:#A00006"/>
	</radialGradient>
	<path class="st0" d="M47.7,86.4c21,0,38-17,38-38s-17-38-38-38s-38,17-38,38S26.8,86.4,47.7,86.4z"/>
	<path class="st1" d="M47.7,86.4c21,0,38-17,38-38s-17-38-38-38s-38,17-38,38S26.8,86.4,47.7,86.4z"/>
</g>
<linearGradient id="SVGID_2_" gradientUnits="userSpaceOnUse" x1="44.0134" y1="106.3389" x2="44.0134" y2="19.746" gradientTransform="matrix(1 0 0 -1 0 106.7021)">
	<stop  offset="0.4844" style="stop-color:#000000"/>
	<stop  offset="1" style="stop-color:#111111"/>
</linearGradient>
<linearGradient id="SVGID_3_" gradientUnits="userSpaceOnUse" x1="44.0134" y1="19.6831" x2="44.0134" y2="106.398" gradientTransform="matrix(1 0 0 -1 0 106.7021)">
	<stop  offset="0" style="stop-color:#111111"/>
	<stop  offset="0.151" style="stop-color:#111111"/>
	<stop  offset="0.991" style="stop-color:#AD0303"/>
	<stop  offset="0.9911" style="stop-color:#CC0000"/>
</linearGradient>
<path class="st2" d="M14.2,66.1c0,0-4.3-4.3-0.7-3.9c-0.3-0.9,3.7-3.9,5.3-4.6c0.6-3-2.1-7.7-3-9c-0.5-0.8-9.7,4.1-9.7,4.1
	S2.9,48,3.4,47.5c0.5-0.6,19.6-8,18.8-8.5c-0.3-0.2-0.1-0.6-0.5-0.5C21,38.9,19.7,39,19.7,39s-1.1-3.3-2.3-5.1
	c-0.3-0.4-2.2,0.5-2.5,0.5c-1.7-1.7-7.4-16.1-7.4-16.1S7,18.9,6.6,18.7C2.8,17.3,6.4,16,6.4,16c-0.9-3-3-6-1.6-7.6
	C5.3,7.8,6.5,7.5,7.3,7C6.9,6.1,6.8,5,6.2,4.7c-0.5,0.2-2.4-2.3-1.6-3c0.3-0.3,0.6-1.2,1.8-1.4c3.3,4.9,24.1,51,24.8,50.5
	c1.9-1.1,1.4-1.1,2.1,0c0.6,1.1,0.8,1.3-1.1,2.1c-0.2,0.4,0.5,2,0.7,1.8c1.5-1,15.6-13.6,15.6-13.6c0,0-7.1-1.9-7.4-21.8
	c-10.7-6.6-5-5.9,0.9-5.1c1.3-19,30.5-10,24.9,5c7.3,6.1,2.1,8.2-2.4,9c-0.6,1.9-0.9,3.9-0.9,6c1.1,0.3,2.2,0.8,3,1.6
	c0.8,0.8,1.5,1.8,1.8,2.9c2.5,2.3,7.8,4,7.8,6.2c-0.1,0.6,10.5,3.5,8,15.9C81.3,79.1,38.8,106.4,14.2,66.1 M19.7,47.2
	c0.9,0.3,1.4,1.2,1.4,2.3c0,1.1-1,1.6-2,1.6c-1,0-2.6-2.9-1.4-3c0.5,0,0.6,0.8,0.9,0.5C18.9,48.2,19.2,47,19.7,47.2z M20.4,51.8
	c0.7-0.2,1.1,0.1,1.1,0.5s-0.4,0.9-1.1,0.9c-0.8,0-2.1-1.2-2.1-1.6C19.3,51.7,19.7,52.1,20.4,51.8L20.4,51.8z"/>
<path class="st3" d="M35,14.4c0,0-1.2,1.4,5.9,5c0.4,2.3-1.1,15.5,7.1,21.9c-7.8-7.6-5.9-22.1-5.9-22.1S37,16.8,36,15.6
	C35.5,15.3,35,14.4,35,14.4z"/>
<path class="st3" d="M42.2,14.1c0,0,0-3,1.7-5.7c1.3-2.1,2.9-3.6,5.2-4.3C54.7,2.5,61.1,4.3,65,8.7c3,3.4,2.9,5.7,2.1,10.5
	c0.6-3.6,0.2-7.6-3.6-10.7c-5.9-4.8-13.1-3.4-14.7-2.9c-1.8,0.6-3.5,1.7-4.7,3.2C43,10.4,42.3,12.2,42.2,14.1z"/>
<path class="st3" d="M70.7,24.6c0,0-0.7,2.2-5.9,2.9c-0.1,0-0.2,1.2-0.2,1.2S71,27.2,70.7,24.6z"/>
<path class="st3" d="M63.8,34.6c0,0,4.2,0.7,4.5,4.5c0.9,0.8,8,3.9,8.1,5.7c0.1,1.8,3.2-0.1,7.6,8.1c-4.6-6.1-7.3-6.8-7.8-6.7
	c-0.6,0.1,1.8-0.2-8.6-6.2C67.4,39.6,67.1,35.7,63.8,34.6z M48.3,41.5L33.1,55l16.2-12.6L48.3,41.5z"/>
<path class="st3" d="M4.6,1.6C5,1.1,5.5,0.7,6,0.4c0.5-0.2,1,0.7,1,0.7c0.2-0.2,19.9,40.5,23.5,48.7C28.3,46.1,6.6,1.1,6,1.1
	L4.6,1.6z M31.5,50.7c0,0,1.5-0.6,2.3,1C34.7,53.3,33.8,48.5,31.5,50.7z"/>
<path class="st3" d="M7.5,7l0.2,0.7c0,0-2.7,0.5-3.3,2.1C3.8,8.2,7.4,6.8,7.5,7z M5.1,17.7c0,0-1-0.6,1.2-1.7
	c0.2-0.1,0.2,0.5,0.2,0.5L5.1,17.7z"/>
<path class="st3" d="M4.4,50c-0.2-0.2-0.6-1.2-0.7-1.4c-0.1-0.3-0.2-0.6-0.2-1c0.3-0.2,0.6-0.6,1-0.7c6.4-2.8,17.5-7.4,18.3-7.8
	c0,0,0.2-0.3,0,0c-0.5,0.8-18.1,9-18.1,9L4.4,50z M20.3,51.2c0.7-0.6,0.6-0.6,0.7-1c0.2-0.5,0.2-1.1,0-1.6c-0.1,0.7-0.3,1.7-1,1.9
	c-1.2,0.4-1.6-0.2-2.1-0.6c0.1,0.5,0.5,1.1,1,1.2C19.3,51.3,19.8,51.3,20.3,51.2z"/>
<path class="st3" d="M21,53.8c0.7-0.6,0.6-0.6,0.7-1c0.2-0.4,0.2-0.5,0-1c-0.1,0.7-0.3,1.1-1,1.3c-1.1,0.4-1.8-0.9-2.4-1.3
	c0.1,0.5,1.1,1.8,1.4,1.9C20.2,53.9,20.6,53.9,21,53.8z"/>
</svg>
