<svg width="129" height="107" viewBox="0 0 129 107" fill="none" xmlns="http://www.w3.org/2000/svg" xmlns:xlink="http://www.w3.org/1999/xlink">
<g filter="url(#filter0_i)">
<path d="M65 87C85.9868 87 103 69.9868 103 49C103 28.0132 85.9868 11 65 11C44.0132 11 27 28.0132 27 49C27 69.9868 44.0132 87 65 87Z" fill="url(#paint0_angular)"/>
<path d="M65 87C85.9868 87 103 69.9868 103 49C103 28.0132 85.9868 11 65 11C44.0132 11 27 28.0132 27 49C27 69.9868 44.0132 87 65 87Z" fill="url(#pattern0)"/>
</g>
<path fill-rule="evenodd" clip-rule="evenodd" d="M59.2739 15.0275C60.6014 -3.97098 89.8223 5.01316 84.1294 20.0243C91.4191 26.1527 86.2667 28.2664 81.7529 29.0552C81.1807 30.9913 80.8841 32.9983 80.8719 35.0171C82.0093 35.2906 83.0544 35.8596 83.9016 36.6665C84.7487 37.4734 85.3678 38.4896 85.6963 39.6124C88.1665 41.9479 93.5281 43.6288 93.5083 45.8152C93.3679 46.4531 104.058 49.3366 101.55 61.6691C99.0265 74.08 85.2795 103.592 59.9624 91.5387C61.4729 93.8407 59.9688 97.4438 58.584 97.9721C59.232 100.059 59.503 101.516 59.503 102.567C58.6137 103.851 54.7277 104.838 45.2574 105.784C45.2574 103.725 44.798 94.9852 44.798 94.9852L31.4721 66.725C31.4721 66.725 27.1795 62.3996 30.7829 62.8189C30.486 61.9258 34.453 58.9422 36.0674 58.2235C36.6765 55.1922 33.9537 50.5332 33.0805 49.2627C32.5444 48.4827 23.4303 53.3979 23.4303 53.3979C23.4303 53.3979 20.1454 48.6764 20.6734 48.1134C21.2015 47.5504 40.2861 40.0687 39.5141 39.6119C39.2359 39.4472 39.4082 38.9638 39.0548 39.1525C38.3021 39.5539 36.9871 39.6119 36.9871 39.6119C36.9871 39.6119 35.936 36.2622 34.6895 34.5572C34.4281 34.1981 32.4776 35.0088 32.1622 35.0166C30.4637 33.3183 24.8096 18.9329 24.8096 18.9329C24.8096 18.9329 24.2155 19.5152 23.8906 19.3926C20.0232 17.936 23.6608 16.6358 23.6608 16.6358C22.719 13.6361 20.6967 10.6031 22.0518 9.05356C22.5856 8.44326 23.7837 8.18516 24.5793 7.67515C24.1651 6.74425 24.0377 5.64461 23.4305 5.37748C22.891 5.59779 21.0435 3.11119 21.822 2.39062C22.1619 2.0762 22.4689 1.14743 23.6601 1.01221C26.9694 5.88013 47.768 51.9829 48.4748 51.5613C50.3703 50.4522 49.914 50.4358 50.5424 51.5613C51.1769 52.6968 51.3364 52.8285 49.3935 53.6289C49.2222 54.0733 49.8525 55.6252 50.0827 55.467C51.6121 54.4213 65.707 41.911 65.7068 41.9108C65.7065 41.9105 58.6032 39.9793 58.3544 20.083C47.6453 13.5253 53.3291 14.1779 59.2739 15.0275ZM36.9864 47.884C37.8384 48.2244 38.3648 49.1004 38.3648 50.1817C38.3648 51.263 37.3721 51.7635 36.3562 51.7635C35.3402 51.7635 33.7854 48.8641 34.9183 48.8031C35.4355 48.7753 35.5291 49.6128 35.8374 49.2627C36.1734 48.8815 36.4947 47.6875 36.9864 47.884ZM37.6756 52.4794C38.3972 52.2367 38.8245 52.5583 38.8245 52.939C38.8245 53.3197 38.4371 53.858 37.6756 53.858C36.9142 53.858 35.608 52.6303 35.608 52.2496C36.5268 52.3788 36.9139 52.7356 37.6759 52.4794H37.6756Z" fill="url(#paint1_linear)" stroke="url(#paint2_linear)" stroke-width="0.682068" stroke-linejoin="round"/>
<path fill-rule="evenodd" clip-rule="evenodd" d="M52.2838 15.0328C52.2838 15.0328 51.066 16.3875 58.2252 20.0236C58.6328 22.2754 57.1194 35.5716 65.3549 41.888C57.5241 34.2554 59.4135 19.786 59.4135 19.786C59.4135 19.786 54.2647 17.4667 53.2344 16.2211C52.799 15.9122 52.2838 15.0328 52.2838 15.0328Z" fill="#A5A5A5"/>
<path fill-rule="evenodd" clip-rule="evenodd" d="M59.4133 14.7952C59.4274 14.7973 59.3896 11.7518 61.0769 9.09142C62.4261 6.96368 63.9984 5.51089 66.3054 4.8136C71.9659 3.10248 78.408 4.98377 82.2284 9.32908C85.1881 12.6957 85.1221 14.987 84.3673 19.786C84.9541 16.2104 84.5652 12.1755 80.8024 9.09142C74.9323 4.27911 67.7175 5.7167 66.0677 6.23954C64.2249 6.82787 62.6032 7.95987 61.4155 9.48682C60.2279 11.0138 59.5299 12.8643 59.4133 14.7952Z" fill="#A5A5A5"/>
<path fill-rule="evenodd" clip-rule="evenodd" d="M87.9322 25.2522C87.9322 25.2522 87.243 27.4909 81.9908 28.1041C81.8672 28.1186 81.7532 29.2924 81.7532 29.2924C81.7532 29.2924 88.3032 27.8101 87.9322 25.2522Z" fill="#A5A5A5"/>
<path fill-rule="evenodd" clip-rule="evenodd" d="M81.04 35.2336C81.04 35.2336 85.2228 35.9566 85.5555 39.7491C86.447 40.5058 93.5386 43.6113 93.6358 45.4529C93.733 47.2945 96.8028 45.3816 101.241 53.5332C96.5966 47.4121 93.9728 46.7778 93.3982 46.8788C92.7565 46.9915 95.2115 46.6649 84.8425 40.6997C84.6923 40.2598 84.3361 36.3772 81.04 35.2336ZM65.5923 42.1257L50.3823 55.6721L66.543 43.0763L65.5923 42.1257Z" fill="#A5A5A5"/>
<path fill-rule="evenodd" clip-rule="evenodd" d="M21.8638 2.1994C22.3036 1.77365 22.7794 1.38658 23.2857 1.04249C23.7413 0.792948 24.2403 1.72409 24.2403 1.72409C24.4176 1.55464 44.1049 42.2638 47.7683 50.4437C45.5315 46.789 23.8739 1.74785 23.2897 1.72409L21.8638 2.1994ZM48.7496 51.3825C48.7496 51.3825 50.2269 50.7374 51.0955 52.345C51.9642 53.9525 51.0639 49.157 48.7496 51.3825Z" fill="#A5A5A5"/>
<path fill-rule="evenodd" clip-rule="evenodd" d="M24.7155 7.66547L24.9532 8.37844C24.9532 8.37844 22.2738 8.84258 21.626 10.5173C21.0159 8.80622 24.6735 7.46179 24.7155 7.66547ZM22.339 18.36C22.339 18.36 21.3567 17.7286 23.5272 16.6964C23.7057 16.6116 23.7649 17.1717 23.7649 17.1717L22.339 18.36Z" fill="#A5A5A5"/>
<path fill-rule="evenodd" clip-rule="evenodd" d="M21.6259 50.6814C21.4303 50.4701 21.0318 49.5169 20.9129 49.2554C20.7763 48.9557 20.6958 48.6335 20.6753 48.3048C20.9914 48.1458 21.2994 47.7321 21.6259 47.5918C28.0747 44.8236 39.0856 40.1582 39.9255 39.7492C39.9293 39.7473 40.1717 39.4065 39.9255 39.7492C39.3803 40.5049 21.8636 48.7801 21.8636 48.7801L21.6259 50.6814ZM37.5489 51.8697C38.2671 51.2755 38.1112 51.2301 38.2619 50.919C38.4596 50.4191 38.4654 49.8637 38.278 49.3598C38.183 50.0592 37.9667 51.0911 37.2987 51.3019C36.1486 51.6646 35.7168 51.088 35.1723 50.6814C35.3045 51.1436 35.6624 51.7508 36.123 51.8697C36.5958 51.9391 37.0761 51.9391 37.5489 51.8697Z" fill="#A5A5A5"/>
<path fill-rule="evenodd" clip-rule="evenodd" d="M38.2617 54.4839C38.9799 53.8897 38.824 53.8443 38.9747 53.5333C39.1769 53.1162 39.1577 53.0047 38.9747 52.5826C38.8796 53.2821 38.6795 53.7053 38.0114 53.9161C36.8614 54.2788 36.1919 52.9893 35.6475 52.5826C35.7796 53.0449 36.7464 54.4057 37.0734 54.4839C37.4677 54.5367 37.8674 54.5367 38.2617 54.4839Z" fill="#A5A5A5"/>
<g filter="url(#filter1_d)">
<path d="M23.1597 91.9944L15.1187 77.2233V90.6196C15.1187 90.9499 15.1933 91.2004 15.3426 91.3709C15.4918 91.5414 15.7582 91.68 16.1418 91.7865V92.2981H9.73148V91.7865C10.1151 91.68 10.3816 91.5414 10.5308 91.3709C10.68 91.2004 10.7546 90.9499 10.7546 90.6196V72.1398C10.7546 71.8201 10.68 71.575 10.5308 71.4044C10.3816 71.2339 10.1151 71.0954 9.73148 70.9888V70.4772H18.1401V70.9888C17.6392 71.1167 17.3888 71.4098 17.3888 71.868C17.3888 72.0812 17.4634 72.3263 17.6126 72.6034L23.5593 83.5698L29.586 72.7952C29.8525 72.305 29.9857 71.948 29.9857 71.7242C29.9857 71.2872 29.7193 71.0421 29.1864 70.9888V70.4772H37.4352V70.9888C37.0515 71.0954 36.7851 71.2339 36.6359 71.4044C36.4867 71.575 36.4121 71.8201 36.4121 72.1398V90.6196C36.4121 90.9499 36.4867 91.2004 36.6359 91.3709C36.7851 91.5414 37.0515 91.68 37.4352 91.7865V92.2981H30.6251V91.7865C30.9981 91.6906 31.2592 91.5574 31.4084 91.3869C31.5683 91.2057 31.6482 90.9499 31.6482 90.6196V77.2233L23.1597 91.9944ZM56.0601 86.735H46.1488L44.6781 89.8043C44.4756 90.2306 44.3743 90.5663 44.3743 90.8114C44.3743 91.2803 44.7314 91.6054 45.4454 91.7865V92.2981H38.2198V91.7865C38.646 91.7013 38.9711 91.5521 39.1949 91.3389C39.4187 91.1258 39.6745 90.7102 39.9622 90.092L47.9872 73.3228C48.243 72.7899 48.3708 72.3636 48.3708 72.0439C48.3708 71.5536 48.0618 71.2019 47.4437 70.9888V70.4772H55.1809V70.9888C54.5521 71.17 54.2377 71.4844 54.2377 71.932C54.2377 72.241 54.3389 72.5927 54.5414 72.987L62.8541 89.8043C63.2058 90.5183 63.5149 91.0086 63.7813 91.275C64.0477 91.5308 64.4048 91.7013 64.8524 91.7865V92.2981H56.8274V91.7865C57.5308 91.6693 57.8825 91.3389 57.8825 90.7954C57.8825 90.5716 57.7759 90.2412 57.5628 89.8043L56.0601 86.735ZM54.6853 83.7456L51.1524 75.9764L47.5715 83.7456H54.6853ZM71.1841 82.7545V90.6196C71.1841 90.9499 71.2587 91.2057 71.4079 91.3869C71.5678 91.5574 71.8342 91.6906 72.2072 91.7865V92.2981H65.3972V91.7865C65.7808 91.68 66.0473 91.5414 66.1965 91.3709C66.3457 91.2004 66.4203 90.9499 66.4203 90.6196V72.1558C66.4203 71.8254 66.3457 71.575 66.1965 71.4044C66.0473 71.2339 65.7808 71.0954 65.3972 70.9888V70.4772H84.7082C85.0279 70.4772 85.2731 70.4026 85.4436 70.2534C85.6141 70.1042 85.7526 69.8325 85.8592 69.4382H86.3708V75.0812H85.8592C85.7526 74.6975 85.6141 74.4364 85.4436 74.2979C85.2731 74.1487 85.0279 74.0741 84.7082 74.0741H71.1841V79.2855H80.0243C80.3547 79.2855 80.6052 79.2109 80.7757 79.0617C80.9462 78.9019 81.0847 78.6301 81.1913 78.2464H81.7029V83.7616H81.1913C81.0847 83.3886 80.9462 83.1275 80.7757 82.9783C80.6052 82.8291 80.3547 82.7545 80.0243 82.7545H71.1841ZM88.9298 90.6196V72.1398C88.9298 71.8201 88.8552 71.575 88.706 71.4044C88.5568 71.2339 88.2904 71.0954 87.9067 70.9888V70.4772H94.7167V70.9888C94.333 71.0847 94.0666 71.2233 93.9174 71.4044C93.7682 71.575 93.6936 71.8201 93.6936 72.1398V90.6196C93.6936 90.9499 93.7682 91.2057 93.9174 91.3869C94.0773 91.5574 94.3437 91.6906 94.7167 91.7865V92.2981H87.9067V91.7865C88.2904 91.68 88.5568 91.5414 88.706 91.3709C88.8552 91.2004 88.9298 90.9499 88.9298 90.6196ZM113.326 86.735H103.414L101.944 89.8043C101.741 90.2306 101.64 90.5663 101.64 90.8114C101.64 91.2803 101.997 91.6054 102.711 91.7865V92.2981H95.4853V91.7865C95.9116 91.7013 96.2367 91.5521 96.4605 91.3389C96.6843 91.1258 96.94 90.7102 97.2278 90.092L105.253 73.3228C105.509 72.7899 105.636 72.3636 105.636 72.0439C105.636 71.5536 105.327 71.2019 104.709 70.9888V70.4772H112.446V70.9888C111.818 71.17 111.503 71.4844 111.503 71.932C111.503 72.241 111.604 72.5927 111.807 72.987L120.12 89.8043C120.471 90.5183 120.78 91.0086 121.047 91.275C121.313 91.5308 121.67 91.7013 122.118 91.7865V92.2981H114.093V91.7865C114.796 91.6693 115.148 91.3389 115.148 90.7954C115.148 90.5716 115.041 90.2412 114.828 89.8043L113.326 86.735ZM111.951 83.7456L108.418 75.9764L104.837 83.7456H111.951Z" fill="white"/>
<path d="M23.1597 91.9944L15.1187 77.2233V90.6196C15.1187 90.9499 15.1933 91.2004 15.3426 91.3709C15.4918 91.5414 15.7582 91.68 16.1418 91.7865V92.2981H9.73148V91.7865C10.1151 91.68 10.3816 91.5414 10.5308 91.3709C10.68 91.2004 10.7546 90.9499 10.7546 90.6196V72.1398C10.7546 71.8201 10.68 71.575 10.5308 71.4044C10.3816 71.2339 10.1151 71.0954 9.73148 70.9888V70.4772H18.1401V70.9888C17.6392 71.1167 17.3888 71.4098 17.3888 71.868C17.3888 72.0812 17.4634 72.3263 17.6126 72.6034L23.5593 83.5698L29.586 72.7952C29.8525 72.305 29.9857 71.948 29.9857 71.7242C29.9857 71.2872 29.7193 71.0421 29.1864 70.9888V70.4772H37.4352V70.9888C37.0515 71.0954 36.7851 71.2339 36.6359 71.4044C36.4867 71.575 36.4121 71.8201 36.4121 72.1398V90.6196C36.4121 90.9499 36.4867 91.2004 36.6359 91.3709C36.7851 91.5414 37.0515 91.68 37.4352 91.7865V92.2981H30.6251V91.7865C30.9981 91.6906 31.2592 91.5574 31.4084 91.3869C31.5683 91.2057 31.6482 90.9499 31.6482 90.6196V77.2233L23.1597 91.9944ZM56.0601 86.735H46.1488L44.6781 89.8043C44.4756 90.2306 44.3743 90.5663 44.3743 90.8114C44.3743 91.2803 44.7314 91.6054 45.4454 91.7865V92.2981H38.2198V91.7865C38.646 91.7013 38.9711 91.5521 39.1949 91.3389C39.4187 91.1258 39.6745 90.7102 39.9622 90.092L47.9872 73.3228C48.243 72.7899 48.3708 72.3636 48.3708 72.0439C48.3708 71.5536 48.0618 71.2019 47.4437 70.9888V70.4772H55.1809V70.9888C54.5521 71.17 54.2377 71.4844 54.2377 71.932C54.2377 72.241 54.3389 72.5927 54.5414 72.987L62.8541 89.8043C63.2058 90.5183 63.5149 91.0086 63.7813 91.275C64.0477 91.5308 64.4048 91.7013 64.8524 91.7865V92.2981H56.8274V91.7865C57.5308 91.6693 57.8825 91.3389 57.8825 90.7954C57.8825 90.5716 57.7759 90.2412 57.5628 89.8043L56.0601 86.735ZM54.6853 83.7456L51.1524 75.9764L47.5715 83.7456H54.6853ZM71.1841 82.7545V90.6196C71.1841 90.9499 71.2587 91.2057 71.4079 91.3869C71.5678 91.5574 71.8342 91.6906 72.2072 91.7865V92.2981H65.3972V91.7865C65.7808 91.68 66.0473 91.5414 66.1965 91.3709C66.3457 91.2004 66.4203 90.9499 66.4203 90.6196V72.1558C66.4203 71.8254 66.3457 71.575 66.1965 71.4044C66.0473 71.2339 65.7808 71.0954 65.3972 70.9888V70.4772H84.7082C85.0279 70.4772 85.2731 70.4026 85.4436 70.2534C85.6141 70.1042 85.7526 69.8325 85.8592 69.4382H86.3708V75.0812H85.8592C85.7526 74.6975 85.6141 74.4364 85.4436 74.2979C85.2731 74.1487 85.0279 74.0741 84.7082 74.0741H71.1841V79.2855H80.0243C80.3547 79.2855 80.6052 79.2109 80.7757 79.0617C80.9462 78.9019 81.0847 78.6301 81.1913 78.2464H81.7029V83.7616H81.1913C81.0847 83.3886 80.9462 83.1275 80.7757 82.9783C80.6052 82.8291 80.3547 82.7545 80.0243 82.7545H71.1841ZM88.9298 90.6196V72.1398C88.9298 71.8201 88.8552 71.575 88.706 71.4044C88.5568 71.2339 88.2904 71.0954 87.9067 70.9888V70.4772H94.7167V70.9888C94.333 71.0847 94.0666 71.2233 93.9174 71.4044C93.7682 71.575 93.6936 71.8201 93.6936 72.1398V90.6196C93.6936 90.9499 93.7682 91.2057 93.9174 91.3869C94.0773 91.5574 94.3437 91.6906 94.7167 91.7865V92.2981H87.9067V91.7865C88.2904 91.68 88.5568 91.5414 88.706 91.3709C88.8552 91.2004 88.9298 90.9499 88.9298 90.6196ZM113.326 86.735H103.414L101.944 89.8043C101.741 90.2306 101.64 90.5663 101.64 90.8114C101.64 91.2803 101.997 91.6054 102.711 91.7865V92.2981H95.4853V91.7865C95.9116 91.7013 96.2367 91.5521 96.4605 91.3389C96.6843 91.1258 96.94 90.7102 97.2278 90.092L105.253 73.3228C105.509 72.7899 105.636 72.3636 105.636 72.0439C105.636 71.5536 105.327 71.2019 104.709 70.9888V70.4772H112.446V70.9888C111.818 71.17 111.503 71.4844 111.503 71.932C111.503 72.241 111.604 72.5927 111.807 72.987L120.12 89.8043C120.471 90.5183 120.78 91.0086 121.047 91.275C121.313 91.5308 121.67 91.7013 122.118 91.7865V92.2981H114.093V91.7865C114.796 91.6693 115.148 91.3389 115.148 90.7954C115.148 90.5716 115.041 90.2412 114.828 89.8043L113.326 86.735ZM111.951 83.7456L108.418 75.9764L104.837 83.7456H111.951Z" fill="url(#pattern1)"/>
</g>
<defs>
<filter id="filter0_i" x="27" y="11" width="76" height="76" filterUnits="userSpaceOnUse" color-interpolation-filters="sRGB">
<feFlood flood-opacity="0" result="BackgroundImageFix"/>
<feBlend mode="normal" in="SourceGraphic" in2="BackgroundImageFix" result="shape"/>
<feColorMatrix in="SourceAlpha" type="matrix" values="0 0 0 0 0 0 0 0 0 0 0 0 0 0 0 0 0 0 127 0" result="hardAlpha"/>
<feOffset dy="0.682068"/>
<feComposite in2="hardAlpha" operator="arithmetic" k2="-1" k3="1"/>
<feColorMatrix type="matrix" values="0 0 0 0 0.8 0 0 0 0 0 0 0 0 0 0 0 0 0 1 0"/>
<feBlend mode="normal" in2="shape" result="effect1_innerShadow"/>
</filter>
<pattern id="pattern0" patternContentUnits="objectBoundingBox" width="4.59498" height="3.03116">
<use xlink:href="#image0" transform="scale(0.00224364)"/>
</pattern>
<filter id="filter1_d" x="9.73145" y="69.4382" width="112.386" height="24.2241" filterUnits="userSpaceOnUse" color-interpolation-filters="sRGB">
<feFlood flood-opacity="0" result="BackgroundImageFix"/>
<feColorMatrix in="SourceAlpha" type="matrix" values="0 0 0 0 0 0 0 0 0 0 0 0 0 0 0 0 0 0 127 0"/>
<feOffset dy="1.36414"/>
<feColorMatrix type="matrix" values="0 0 0 0 0 0 0 0 0 0 0 0 0 0 0 0 0 0 0.3 0"/>
<feBlend mode="normal" in2="BackgroundImageFix" result="effect1_dropShadow"/>
<feBlend mode="normal" in="SourceGraphic" in2="effect1_dropShadow" result="shape"/>
</filter>
<pattern id="pattern1" patternContentUnits="objectBoundingBox" width="2.11702" height="4.42674">
<use xlink:href="#image0" transform="scale(0.0010337 0.00327664)"/>
</pattern>
<radialGradient id="paint0_angular" cx="0" cy="0" r="1" gradientUnits="userSpaceOnUse" gradientTransform="translate(65 49) rotate(90) scale(38)">
<stop stop-color="#E80000"/>
<stop offset="0.390625" stop-color="#A00006"/>
</radialGradient>
<linearGradient id="paint1_linear" x1="61.2737" y1="1.01221" x2="61.2737" y2="105.784" gradientUnits="userSpaceOnUse">
<stop offset="0.484375"/>
<stop offset="1" stop-color="#111111"/>
</linearGradient>
<linearGradient id="paint2_linear" x1="61.2773" y1="105.789" x2="61.2773" y2="1.01173" gradientUnits="userSpaceOnUse">
<stop stop-color="#111111"/>
<stop offset="0.151042" stop-color="#111111"/>
<stop offset="0.991" stop-color="#AD0303"/>
<stop offset="0.9911" stop-color="#CC0000"/>
</linearGradient>
</defs>
</svg>
