<svg width="90" height="86" viewBox="0 0 90 86" fill="none" xmlns="http://www.w3.org/2000/svg" xmlns:xlink="http://www.w3.org/1999/xlink">
<g filter="url(#filter0_dddi)">
<path fill-rule="evenodd" clip-rule="evenodd" d="M65 40.4983C65 42.3177 56.0457 43.7927 45 43.7927C33.9543 43.7927 25 42.3177 25 40.4983C25 39.3022 28.8703 38.255 34.6604 37.6778L36.2898 27.056C36.2898 25.9304 37.1763 25.0179 38.2699 25.0179C39.8153 24.765 42.7189 27.2812 45.2004 27.2598C47.6141 27.239 50.2081 25.0747 51.9329 25.0179C52.4579 25.0179 52.9619 25.2327 53.333 25.6148C53.6914 25.9836 53.913 26.4932 53.913 27.056L55.3617 37.68C61.1396 38.2576 65 39.3037 65 40.4983ZM32.235 45.4565C44.0889 47.2158 57.7001 45.653 57.684 45.5284C58.2936 46.7998 56.2732 52.6437 56.2732 52.6437C56.2732 52.6437 58.4181 54.4971 54.5743 56.891C51.5281 58.7881 52.466 56.3892 51.1763 56.891C48.6354 57.8797 50.7525 58.7339 49.801 59.6985C49.3116 60.1946 48.5093 60.5365 47.5597 60.745C47.5021 59.8819 47.3252 59.2534 47.1159 59.2534C46.8943 59.2534 46.7092 59.9573 46.6632 60.8981C46.1202 60.9669 45.5498 61 44.9764 61C44.9352 59.9024 44.7047 59.0622 44.4264 59.0622C44.1516 59.0622 43.9235 59.8823 43.8782 60.9602C43.3571 60.9226 42.847 60.8592 42.3671 60.7717C42.3045 59.7881 42.0872 59.0622 41.8286 59.0622C41.5921 59.0622 41.3903 59.6692 41.3096 60.525C40.236 60.2112 39.4545 59.755 39.2837 59.1946C39.1107 58.6272 40.1474 58.0387 38.3129 56.963C36.4783 55.8873 38.7501 59.5604 34.7531 56.819C30.7562 54.0777 33.4587 52.5717 33.4587 52.5717C33.4082 51.8957 32.0925 48.534 32.235 45.4565ZM51.3823 53.0837C53.5018 53.0837 54.2908 51.7848 54.2908 50.4933C54.2908 49.2018 53.3402 47.4712 51.2208 47.4712C49.1014 47.4712 47.4508 47.9098 46.9389 48.9822C46.9389 50.2738 49.263 53.0837 51.3823 53.0837ZM43.1417 55.5301C43.5236 56.1647 46.6347 56.1674 46.6157 55.3862C46.5857 54.1546 45.6999 52.0763 44.9191 52.0763C44.1383 52.0763 42.4883 54.4443 43.1417 55.5301ZM38.779 53.2276C40.5861 53.2276 43.2731 50.2169 42.6569 48.9822C42.3826 48.4324 40.8328 47.6024 39.0214 47.6151C37.2143 47.6278 35.7897 48.5665 35.7897 49.9177C35.7897 51.2688 36.9719 53.2276 38.779 53.2276Z" fill="#E80000"/>
<path fill-rule="evenodd" clip-rule="evenodd" d="M65 40.4983C65 42.3177 56.0457 43.7927 45 43.7927C33.9543 43.7927 25 42.3177 25 40.4983C25 39.3022 28.8703 38.255 34.6604 37.6778L36.2898 27.056C36.2898 25.9304 37.1763 25.0179 38.2699 25.0179C39.8153 24.765 42.7189 27.2812 45.2004 27.2598C47.6141 27.239 50.2081 25.0747 51.9329 25.0179C52.4579 25.0179 52.9619 25.2327 53.333 25.6148C53.6914 25.9836 53.913 26.4932 53.913 27.056L55.3617 37.68C61.1396 38.2576 65 39.3037 65 40.4983ZM32.235 45.4565C44.0889 47.2158 57.7001 45.653 57.684 45.5284C58.2936 46.7998 56.2732 52.6437 56.2732 52.6437C56.2732 52.6437 58.4181 54.4971 54.5743 56.891C51.5281 58.7881 52.466 56.3892 51.1763 56.891C48.6354 57.8797 50.7525 58.7339 49.801 59.6985C49.3116 60.1946 48.5093 60.5365 47.5597 60.745C47.5021 59.8819 47.3252 59.2534 47.1159 59.2534C46.8943 59.2534 46.7092 59.9573 46.6632 60.8981C46.1202 60.9669 45.5498 61 44.9764 61C44.9352 59.9024 44.7047 59.0622 44.4264 59.0622C44.1516 59.0622 43.9235 59.8823 43.8782 60.9602C43.3571 60.9226 42.847 60.8592 42.3671 60.7717C42.3045 59.7881 42.0872 59.0622 41.8286 59.0622C41.5921 59.0622 41.3903 59.6692 41.3096 60.525C40.236 60.2112 39.4545 59.755 39.2837 59.1946C39.1107 58.6272 40.1474 58.0387 38.3129 56.963C36.4783 55.8873 38.7501 59.5604 34.7531 56.819C30.7562 54.0777 33.4587 52.5717 33.4587 52.5717C33.4082 51.8957 32.0925 48.534 32.235 45.4565ZM51.3823 53.0837C53.5018 53.0837 54.2908 51.7848 54.2908 50.4933C54.2908 49.2018 53.3402 47.4712 51.2208 47.4712C49.1014 47.4712 47.4508 47.9098 46.9389 48.9822C46.9389 50.2738 49.263 53.0837 51.3823 53.0837ZM43.1417 55.5301C43.5236 56.1647 46.6347 56.1674 46.6157 55.3862C46.5857 54.1546 45.6999 52.0763 44.9191 52.0763C44.1383 52.0763 42.4883 54.4443 43.1417 55.5301ZM38.779 53.2276C40.5861 53.2276 43.2731 50.2169 42.6569 48.9822C42.3826 48.4324 40.8328 47.6024 39.0214 47.6151C37.2143 47.6278 35.7897 48.5665 35.7897 49.9177C35.7897 51.2688 36.9719 53.2276 38.779 53.2276Z" fill="url(#paint0_diamond)"/>
<path fill-rule="evenodd" clip-rule="evenodd" d="M65 40.4983C65 42.3177 56.0457 43.7927 45 43.7927C33.9543 43.7927 25 42.3177 25 40.4983C25 39.3022 28.8703 38.255 34.6604 37.6778L36.2898 27.056C36.2898 25.9304 37.1763 25.0179 38.2699 25.0179C39.8153 24.765 42.7189 27.2812 45.2004 27.2598C47.6141 27.239 50.2081 25.0747 51.9329 25.0179C52.4579 25.0179 52.9619 25.2327 53.333 25.6148C53.6914 25.9836 53.913 26.4932 53.913 27.056L55.3617 37.68C61.1396 38.2576 65 39.3037 65 40.4983ZM32.235 45.4565C44.0889 47.2158 57.7001 45.653 57.684 45.5284C58.2936 46.7998 56.2732 52.6437 56.2732 52.6437C56.2732 52.6437 58.4181 54.4971 54.5743 56.891C51.5281 58.7881 52.466 56.3892 51.1763 56.891C48.6354 57.8797 50.7525 58.7339 49.801 59.6985C49.3116 60.1946 48.5093 60.5365 47.5597 60.745C47.5021 59.8819 47.3252 59.2534 47.1159 59.2534C46.8943 59.2534 46.7092 59.9573 46.6632 60.8981C46.1202 60.9669 45.5498 61 44.9764 61C44.9352 59.9024 44.7047 59.0622 44.4264 59.0622C44.1516 59.0622 43.9235 59.8823 43.8782 60.9602C43.3571 60.9226 42.847 60.8592 42.3671 60.7717C42.3045 59.7881 42.0872 59.0622 41.8286 59.0622C41.5921 59.0622 41.3903 59.6692 41.3096 60.525C40.236 60.2112 39.4545 59.755 39.2837 59.1946C39.1107 58.6272 40.1474 58.0387 38.3129 56.963C36.4783 55.8873 38.7501 59.5604 34.7531 56.819C30.7562 54.0777 33.4587 52.5717 33.4587 52.5717C33.4082 51.8957 32.0925 48.534 32.235 45.4565ZM51.3823 53.0837C53.5018 53.0837 54.2908 51.7848 54.2908 50.4933C54.2908 49.2018 53.3402 47.4712 51.2208 47.4712C49.1014 47.4712 47.4508 47.9098 46.9389 48.9822C46.9389 50.2738 49.263 53.0837 51.3823 53.0837ZM43.1417 55.5301C43.5236 56.1647 46.6347 56.1674 46.6157 55.3862C46.5857 54.1546 45.6999 52.0763 44.9191 52.0763C44.1383 52.0763 42.4883 54.4443 43.1417 55.5301ZM38.779 53.2276C40.5861 53.2276 43.2731 50.2169 42.6569 48.9822C42.3826 48.4324 40.8328 47.6024 39.0214 47.6151C37.2143 47.6278 35.7897 48.5665 35.7897 49.9177C35.7897 51.2688 36.9719 53.2276 38.779 53.2276Z" fill="url(#pattern0)"/>
</g>
<defs>
<filter id="filter0_dddi" x="0" y="0" width="90" height="86" filterUnits="userSpaceOnUse" color-interpolation-filters="sRGB">
<feFlood flood-opacity="0" result="BackgroundImageFix"/>
<feColorMatrix in="SourceAlpha" type="matrix" values="0 0 0 0 0 0 0 0 0 0 0 0 0 0 0 0 0 0 127 0"/>
<feOffset/>
<feGaussianBlur stdDeviation="12.5"/>
<feColorMatrix type="matrix" values="0 0 0 0 0.909804 0 0 0 0 0 0 0 0 0 0 0 0 0 1 0"/>
<feBlend mode="normal" in2="BackgroundImageFix" result="effect1_dropShadow"/>
<feColorMatrix in="SourceAlpha" type="matrix" values="0 0 0 0 0 0 0 0 0 0 0 0 0 0 0 0 0 0 127 0"/>
<feOffset dy="5"/>
<feGaussianBlur stdDeviation="2.5"/>
<feColorMatrix type="matrix" values="0 0 0 0 0 0 0 0 0 0 0 0 0 0 0 0 0 0 0.25 0"/>
<feBlend mode="normal" in2="effect1_dropShadow" result="effect2_dropShadow"/>
<feColorMatrix in="SourceAlpha" type="matrix" values="0 0 0 0 0 0 0 0 0 0 0 0 0 0 0 0 0 0 127 0"/>
<feOffset dy="2"/>
<feColorMatrix type="matrix" values="0 0 0 0 0 0 0 0 0 0 0 0 0 0 0 0 0 0 0.25 0"/>
<feBlend mode="normal" in2="effect2_dropShadow" result="effect3_dropShadow"/>
<feBlend mode="normal" in="SourceGraphic" in2="effect3_dropShadow" result="shape"/>
<feColorMatrix in="SourceAlpha" type="matrix" values="0 0 0 0 0 0 0 0 0 0 0 0 0 0 0 0 0 0 127 0" result="hardAlpha"/>
<feOffset dy="1"/>
<feComposite in2="hardAlpha" operator="arithmetic" k2="-1" k3="1"/>
<feColorMatrix type="matrix" values="0 0 0 0 0.816927 0 0 0 0 0 0 0 0 0 0 0 0 0 1 0"/>
<feBlend mode="normal" in2="shape" result="effect4_innerShadow"/>
</filter>
<pattern id="pattern0" patternContentUnits="objectBoundingBox" width="12.8" height="9.38194">
<use xlink:href="#image0" transform="scale(0.00625 0.00694444)"/>
</pattern>
<radialGradient id="paint0_diamond" cx="0" cy="0" r="1" gradientUnits="userSpaceOnUse" gradientTransform="translate(45 40.8684) rotate(90) scale(20.1316 22.3684)">
<stop offset="0.328125" stop-color="#E80000"/>
<stop offset="1" stop-color="#A00006"/>
</radialGradient>
</defs>
</svg>
