<svg viewBox="0 0 280 252" fill="none" xmlns="http://www.w3.org/2000/svg" xmlns:xlink="http://www.w3.org/1999/xlink">
    <g filter="url(#filter0_i)">
        <path d="M140 189.333C186.024 189.333 223.333 152.024 223.333 106C223.333 59.9763 186.024 22.6667 140 22.6667C93.9762 22.6667 56.6666 59.9763 56.6666 106C56.6666 152.024 93.9762 189.333 140 189.333Z"
              fill="url(#paint0_angular)"/>
        <path d="M140 189.333C186.024 189.333 223.333 152.024 223.333 106C223.333 59.9763 186.024 22.6667 140 22.6667C93.9762 22.6667 56.6666 59.9763 56.6666 106C56.6666 152.024 93.9762 189.333 140 189.333Z"
              fill="url(#pattern0)"/>
    </g>
    <path fill-rule="evenodd" clip-rule="evenodd"
          d="M127.747 31.63C130.646 -9.85506 194.452 9.76268 182.021 42.5409C197.939 55.923 186.688 60.5385 176.832 62.2609C175.582 66.4884 174.935 70.8709 174.908 75.2792C177.392 75.8765 179.674 77.1189 181.524 78.8808C183.373 80.6427 184.725 82.8617 185.443 85.3135C190.837 90.4132 202.544 94.0837 202.501 98.858C202.194 100.251 225.536 106.547 220.061 133.476C214.55 160.577 184.532 225.019 129.25 198.7C132.548 203.726 129.264 211.594 126.24 212.748C127.655 217.304 128.247 220.487 128.247 222.782C126.305 225.584 117.82 227.74 97.1402 229.806C97.1402 225.31 96.1371 206.225 96.1371 206.225L67.0387 144.516C67.0387 144.516 57.6655 135.072 65.5338 135.987C64.8856 134.037 73.5479 127.522 77.0731 125.953C78.4031 119.334 72.4576 109.16 70.551 106.386C69.3802 104.683 49.4786 115.416 49.4786 115.416C49.4786 115.416 42.3057 105.106 43.4588 103.876C44.6119 102.647 86.2849 86.3099 84.5994 85.3125C83.9917 84.9528 84.3679 83.8973 83.5962 84.3093C81.9527 85.1858 79.0814 85.3125 79.0814 85.3125C79.0814 85.3125 76.7861 77.9979 74.0642 74.275C73.4934 73.4909 69.2344 75.261 68.5458 75.2781C64.8368 71.5697 52.4906 40.1579 52.4906 40.1579C52.4906 40.1579 51.1932 41.4293 50.4838 41.1615C42.039 37.9809 49.982 35.1418 49.982 35.1418C47.9254 28.5916 43.5097 21.9688 46.4687 18.5853C47.6343 17.2526 50.2503 16.6891 51.9877 15.5754C51.0832 13.5427 50.805 11.1415 49.4791 10.5582C48.3011 11.0393 44.2668 5.60955 45.9669 4.0361C46.709 3.34954 47.3795 1.3215 49.9804 1.02621C57.2068 11.6558 102.622 112.326 104.166 111.405C108.305 108.983 107.308 108.947 108.681 111.405C110.066 113.885 110.414 114.172 106.172 115.92C105.798 116.89 107.174 120.279 107.677 119.933C111.016 117.65 141.794 90.3327 141.794 90.3322C141.793 90.3317 126.282 86.1148 125.739 42.6691C102.355 28.3498 114.766 29.7748 127.747 31.63ZM79.0799 103.375C80.9403 104.119 82.0897 106.031 82.0897 108.393C82.0897 110.754 79.9221 111.847 77.7036 111.847C75.4851 111.847 72.0902 105.516 74.564 105.382C75.6932 105.321 75.8977 107.15 76.5707 106.386C77.3045 105.553 78.0062 102.946 79.0799 103.375ZM80.5848 113.41C82.1603 112.88 83.0934 113.582 83.0934 114.413C83.0934 115.245 82.2475 116.42 80.5848 116.42C78.9221 116.42 76.07 113.739 76.07 112.908C78.0762 113.19 78.9216 113.969 80.5853 113.41H80.5848Z"
          fill="url(#paint1_linear)" stroke="url(#paint2_linear)" stroke-width="1.48936" stroke-linejoin="round"/>
    <path fill-rule="evenodd" clip-rule="evenodd"
          d="M112.482 31.6421C112.482 31.6421 109.823 34.6001 125.456 42.54C126.346 47.457 123.041 76.4905 141.024 90.2831C123.925 73.6166 128.051 42.021 128.051 42.021C128.051 42.021 116.808 36.9567 114.558 34.2369C113.607 33.5622 112.482 31.6421 112.482 31.6421Z"
          fill="#A5A5A5"/>
    <path fill-rule="evenodd" clip-rule="evenodd"
          d="M128.051 31.1232C128.081 31.1279 127.999 24.4776 131.683 18.6685C134.629 14.0223 138.063 10.85 143.1 9.32743C155.46 5.59101 169.528 9.69899 177.87 19.1874C184.333 26.5388 184.188 31.542 182.54 42.0211C183.821 34.2135 182.972 25.4028 174.756 18.6685C161.938 8.16032 146.184 11.2994 142.581 12.4411C138.557 13.7258 135.016 16.1976 132.423 19.5319C129.829 22.8661 128.305 26.9068 128.051 31.1232Z"
          fill="#A5A5A5"/>
    <path fill-rule="evenodd" clip-rule="evenodd"
          d="M190.324 53.9568C190.324 53.9568 188.819 58.8453 177.351 60.1842C177.081 60.2158 176.832 62.7789 176.832 62.7789C176.832 62.7789 191.134 59.5422 190.324 53.9568Z"
          fill="#A5A5A5"/>
    <path fill-rule="evenodd" clip-rule="evenodd"
          d="M175.275 75.7526C175.275 75.7526 184.408 77.3312 185.135 85.6125C187.081 87.2649 202.567 94.0459 202.779 98.0673C202.991 102.089 209.694 97.9116 219.385 115.711C209.244 102.345 203.515 100.96 202.26 101.181C200.859 101.427 206.22 100.714 183.578 87.6883C183.25 86.7278 182.472 78.2497 175.275 75.7526ZM141.543 90.802L108.331 120.382L143.619 92.8778L141.543 90.802Z"
          fill="#A5A5A5"/>
    <path fill-rule="evenodd" clip-rule="evenodd"
          d="M46.0572 3.61901C47.0177 2.68935 48.0565 1.84415 49.1621 1.09278C50.1569 0.547882 51.2467 2.58111 51.2467 2.58111C51.6338 2.21111 94.6228 91.1035 102.622 108.965C97.7381 100.985 50.4465 2.63301 49.1709 2.58111L46.0572 3.61901ZM104.765 111.015C104.765 111.015 107.991 109.607 109.888 113.117C111.784 116.627 109.819 106.156 104.765 111.015Z"
          fill="#A5A5A5"/>
    <path fill-rule="evenodd" clip-rule="evenodd"
          d="M52.2845 15.5547L52.8035 17.1116C52.8035 17.1116 46.9529 18.1251 45.5382 21.7821C44.2061 18.0457 52.1927 15.11 52.2845 15.5547ZM47.0951 38.9074C47.0951 38.9074 44.9503 37.5285 49.6898 35.2747C50.0795 35.0895 50.2087 36.3126 50.2087 36.3126L47.0951 38.9074Z"
          fill="#A5A5A5"/>
    <path fill-rule="evenodd" clip-rule="evenodd"
          d="M45.5383 109.484C45.1112 109.023 44.2409 106.941 43.9814 106.37C43.6831 105.716 43.5072 105.012 43.4625 104.295C44.1527 103.947 44.8252 103.044 45.5383 102.738C59.6199 96.6931 83.6632 86.5057 85.4971 85.6126C85.5054 85.6084 86.0348 84.8642 85.4971 85.6126C84.3067 87.2628 46.0572 105.333 46.0572 105.333L45.5383 109.484ZM80.3077 112.079C81.8759 110.781 81.5355 110.682 81.8645 110.003C82.2962 108.911 82.3088 107.699 81.8998 106.598C81.6922 108.126 81.22 110.379 79.7612 110.839C77.25 111.631 76.3071 110.372 75.1182 109.484C75.4067 110.493 76.1883 111.819 77.194 112.079C78.2264 112.23 79.2753 112.23 80.3077 112.079Z"
          fill="#A5A5A5"/>
    <path fill-rule="evenodd" clip-rule="evenodd"
          d="M81.8645 117.787C83.4327 116.49 83.0923 116.391 83.4213 115.711C83.863 114.801 83.8209 114.557 83.4213 113.636C83.2137 115.163 82.7768 116.087 81.318 116.547C78.8069 117.339 77.345 114.524 76.1561 113.636C76.4446 114.645 78.5557 117.616 79.2698 117.787C80.1308 117.903 81.0034 117.903 81.8645 117.787Z"
          fill="#A5A5A5"/>
    <g filter="url(#filter1_d)">
        <path d="M68.7216 220.824C68.7216 219.912 68.5965 219.242 68.3463 218.813C68.096 218.366 67.5956 218.143 66.845 218.143H66.3892V217.526H73.4131C78.3637 217.526 80.839 219.09 80.839 222.218C80.839 223.058 80.5441 223.826 79.9543 224.523C79.3646 225.202 78.4799 225.73 77.3003 226.105C78.9446 226.337 80.0973 226.82 80.7586 227.553C81.4199 228.268 81.7505 229.206 81.7505 230.368C81.7505 232.19 81.0267 233.459 79.579 234.174C78.1492 234.871 76.362 235.22 74.2173 235.22H68.7216V220.824ZM73.8152 225.649C74.9769 225.649 75.9599 225.345 76.7641 224.738C77.5684 224.112 77.9705 223.228 77.9705 222.084C77.9705 220.886 77.4969 219.993 76.5497 219.403C75.6203 218.795 74.548 218.491 73.3326 218.491C72.725 218.491 72.0905 218.581 71.4292 218.759V225.649H73.8152ZM73.8152 234.255C75.4058 234.255 76.6301 233.933 77.488 233.29C78.3458 232.646 78.7748 231.717 78.7748 230.502C78.7748 229.286 78.3548 228.366 77.5148 227.74C76.6748 227.097 75.4416 226.775 73.8152 226.775H71.4292V233.906C72.2871 234.139 73.0824 234.255 73.8152 234.255ZM85.0193 220.824C85.0193 219.912 84.8942 219.242 84.644 218.813C84.3937 218.366 83.8933 218.143 83.1427 218.143H82.6869V217.526H85.3142C85.9576 217.526 86.4491 217.616 86.7886 217.794C87.1282 217.973 87.3695 218.295 87.5125 218.759C87.6554 219.224 87.7269 219.912 87.7269 220.824V232.539L96.0912 217.526H98.7184V235.22H96.0108V220.207L87.6465 235.22H85.0193V220.824ZM100.442 235.059C100.442 234.791 100.531 234.568 100.71 234.389C100.889 234.21 101.112 234.121 101.38 234.121H102.426C103.248 232.333 103.829 230.35 104.168 228.169C104.526 225.971 104.704 223.522 104.704 220.824C104.704 219.912 104.579 219.242 104.329 218.813C104.079 218.366 103.579 218.143 102.828 218.143H102.453V217.526H116.071V234.121H117.385C117.653 234.121 117.876 234.21 118.055 234.389C118.234 234.568 118.323 234.791 118.323 235.059V240.072H117.09C116.876 238.267 116.509 237.007 115.991 236.292C115.473 235.577 114.722 235.22 113.739 235.22H105.026C104.043 235.22 103.293 235.577 102.774 236.292C102.256 237.007 101.89 238.267 101.675 240.072H100.442V235.059ZM113.364 234.121V218.625H106.688C106.688 222.325 106.527 225.381 106.206 227.794C105.884 230.207 105.33 232.316 104.544 234.121H113.364ZM121.097 220.824C121.097 219.912 120.972 219.242 120.721 218.813C120.471 218.366 119.971 218.143 119.22 218.143H118.764V217.526H130.292C131.811 217.526 132.571 218.241 132.571 219.671V221.762H131.954C131.954 219.671 130.837 218.625 128.603 218.625H123.804V225.542H130.962V226.641H123.804V234.121H128.469C129.631 234.121 130.551 233.897 131.23 233.45C131.927 232.986 132.49 232.217 132.919 231.145L133.509 231.306L132.624 233.745C132.446 234.228 132.195 234.594 131.874 234.845C131.552 235.095 131.105 235.22 130.533 235.22H121.097V220.824ZM143.315 235.756C141.635 235.756 140.151 235.345 138.865 234.523C137.596 233.701 136.613 232.575 135.916 231.145C135.219 229.715 134.87 228.125 134.87 226.373C134.87 224.622 135.219 223.031 135.916 221.601C136.613 220.171 137.596 219.045 138.865 218.223C140.151 217.401 141.635 216.99 143.315 216.99C144.995 216.99 146.469 217.401 147.738 218.223C149.025 219.045 150.017 220.171 150.714 221.601C151.411 223.031 151.759 224.622 151.759 226.373C151.759 228.125 151.411 229.715 150.714 231.145C150.017 232.575 149.025 233.701 147.738 234.523C146.469 235.345 144.995 235.756 143.315 235.756ZM143.315 234.657C145.031 234.657 146.371 233.924 147.336 232.459C148.319 230.975 148.811 228.947 148.811 226.373C148.811 223.799 148.319 221.78 147.336 220.314C146.371 218.831 145.031 218.089 143.315 218.089C141.599 218.089 140.25 218.831 139.267 220.314C138.302 221.78 137.819 223.799 137.819 226.373C137.819 228.947 138.302 230.975 139.267 232.459C140.25 233.924 141.599 234.657 143.315 234.657ZM154.949 220.824C154.949 219.912 154.824 219.242 154.573 218.813C154.323 218.366 153.823 218.143 153.072 218.143H152.616V217.526H155.244C155.887 217.526 156.378 217.616 156.718 217.794C157.058 217.973 157.299 218.295 157.442 218.759C157.585 219.224 157.656 219.912 157.656 220.824V232.539L166.021 217.526H168.648V235.22H165.94V220.207L157.576 235.22H154.949V220.824ZM173.079 220.824C173.079 219.912 172.954 219.242 172.704 218.813C172.453 218.366 171.953 218.143 171.202 218.143H170.747V217.526H181.953C183.472 217.526 184.231 218.241 184.231 219.671V221.762H183.642C183.642 219.671 182.524 218.625 180.29 218.625H175.787V235.22H173.079V220.824ZM186.994 220.824C186.994 219.912 186.869 219.242 186.619 218.813C186.369 218.366 185.868 218.143 185.118 218.143H184.662V217.526H191.739C193.491 217.526 195.064 217.893 196.458 218.625C197.87 219.34 198.576 220.761 198.576 222.888C198.576 224.282 198.209 225.363 197.476 226.132C196.761 226.882 195.948 227.383 195.037 227.633C194.125 227.883 193.294 228.008 192.544 228.008H189.702V235.22H186.994V220.824ZM191.605 227.016C192.195 227.016 192.794 226.882 193.401 226.614C194.027 226.328 194.545 225.864 194.956 225.22C195.385 224.577 195.6 223.755 195.6 222.754C195.6 221.753 195.385 220.931 194.956 220.288C194.545 219.644 194.036 219.188 193.428 218.92C192.821 218.634 192.222 218.491 191.632 218.491C191.007 218.491 190.363 218.581 189.702 218.759V227.016H191.605ZM213.672 235.354C211.403 235.354 209.821 234.192 208.927 231.869L208.257 230.18H200.858L198.687 235.22H197.427L205.04 217.526H205.952L211.876 231.869C212.287 232.834 212.698 233.522 213.109 233.933C213.538 234.326 214.101 234.559 214.798 234.63V235.22C214.477 235.309 214.101 235.354 213.672 235.354ZM207.721 229.081L204.584 221.494L201.287 229.081H207.721Z"
              fill="url(#paint3_radial)"/>
        <path d="M68.7216 220.824C68.7216 219.912 68.5965 219.242 68.3463 218.813C68.096 218.366 67.5956 218.143 66.845 218.143H66.3892V217.526H73.4131C78.3637 217.526 80.839 219.09 80.839 222.218C80.839 223.058 80.5441 223.826 79.9543 224.523C79.3646 225.202 78.4799 225.73 77.3003 226.105C78.9446 226.337 80.0973 226.82 80.7586 227.553C81.4199 228.268 81.7505 229.206 81.7505 230.368C81.7505 232.19 81.0267 233.459 79.579 234.174C78.1492 234.871 76.362 235.22 74.2173 235.22H68.7216V220.824ZM73.8152 225.649C74.9769 225.649 75.9599 225.345 76.7641 224.738C77.5684 224.112 77.9705 223.228 77.9705 222.084C77.9705 220.886 77.4969 219.993 76.5497 219.403C75.6203 218.795 74.548 218.491 73.3326 218.491C72.725 218.491 72.0905 218.581 71.4292 218.759V225.649H73.8152ZM73.8152 234.255C75.4058 234.255 76.6301 233.933 77.488 233.29C78.3458 232.646 78.7748 231.717 78.7748 230.502C78.7748 229.286 78.3548 228.366 77.5148 227.74C76.6748 227.097 75.4416 226.775 73.8152 226.775H71.4292V233.906C72.2871 234.139 73.0824 234.255 73.8152 234.255ZM85.0193 220.824C85.0193 219.912 84.8942 219.242 84.644 218.813C84.3937 218.366 83.8933 218.143 83.1427 218.143H82.6869V217.526H85.3142C85.9576 217.526 86.4491 217.616 86.7886 217.794C87.1282 217.973 87.3695 218.295 87.5125 218.759C87.6554 219.224 87.7269 219.912 87.7269 220.824V232.539L96.0912 217.526H98.7184V235.22H96.0108V220.207L87.6465 235.22H85.0193V220.824ZM100.442 235.059C100.442 234.791 100.531 234.568 100.71 234.389C100.889 234.21 101.112 234.121 101.38 234.121H102.426C103.248 232.333 103.829 230.35 104.168 228.169C104.526 225.971 104.704 223.522 104.704 220.824C104.704 219.912 104.579 219.242 104.329 218.813C104.079 218.366 103.579 218.143 102.828 218.143H102.453V217.526H116.071V234.121H117.385C117.653 234.121 117.876 234.21 118.055 234.389C118.234 234.568 118.323 234.791 118.323 235.059V240.072H117.09C116.876 238.267 116.509 237.007 115.991 236.292C115.473 235.577 114.722 235.22 113.739 235.22H105.026C104.043 235.22 103.293 235.577 102.774 236.292C102.256 237.007 101.89 238.267 101.675 240.072H100.442V235.059ZM113.364 234.121V218.625H106.688C106.688 222.325 106.527 225.381 106.206 227.794C105.884 230.207 105.33 232.316 104.544 234.121H113.364ZM121.097 220.824C121.097 219.912 120.972 219.242 120.721 218.813C120.471 218.366 119.971 218.143 119.22 218.143H118.764V217.526H130.292C131.811 217.526 132.571 218.241 132.571 219.671V221.762H131.954C131.954 219.671 130.837 218.625 128.603 218.625H123.804V225.542H130.962V226.641H123.804V234.121H128.469C129.631 234.121 130.551 233.897 131.23 233.45C131.927 232.986 132.49 232.217 132.919 231.145L133.509 231.306L132.624 233.745C132.446 234.228 132.195 234.594 131.874 234.845C131.552 235.095 131.105 235.22 130.533 235.22H121.097V220.824ZM143.315 235.756C141.635 235.756 140.151 235.345 138.865 234.523C137.596 233.701 136.613 232.575 135.916 231.145C135.219 229.715 134.87 228.125 134.87 226.373C134.87 224.622 135.219 223.031 135.916 221.601C136.613 220.171 137.596 219.045 138.865 218.223C140.151 217.401 141.635 216.99 143.315 216.99C144.995 216.99 146.469 217.401 147.738 218.223C149.025 219.045 150.017 220.171 150.714 221.601C151.411 223.031 151.759 224.622 151.759 226.373C151.759 228.125 151.411 229.715 150.714 231.145C150.017 232.575 149.025 233.701 147.738 234.523C146.469 235.345 144.995 235.756 143.315 235.756ZM143.315 234.657C145.031 234.657 146.371 233.924 147.336 232.459C148.319 230.975 148.811 228.947 148.811 226.373C148.811 223.799 148.319 221.78 147.336 220.314C146.371 218.831 145.031 218.089 143.315 218.089C141.599 218.089 140.25 218.831 139.267 220.314C138.302 221.78 137.819 223.799 137.819 226.373C137.819 228.947 138.302 230.975 139.267 232.459C140.25 233.924 141.599 234.657 143.315 234.657ZM154.949 220.824C154.949 219.912 154.824 219.242 154.573 218.813C154.323 218.366 153.823 218.143 153.072 218.143H152.616V217.526H155.244C155.887 217.526 156.378 217.616 156.718 217.794C157.058 217.973 157.299 218.295 157.442 218.759C157.585 219.224 157.656 219.912 157.656 220.824V232.539L166.021 217.526H168.648V235.22H165.94V220.207L157.576 235.22H154.949V220.824ZM173.079 220.824C173.079 219.912 172.954 219.242 172.704 218.813C172.453 218.366 171.953 218.143 171.202 218.143H170.747V217.526H181.953C183.472 217.526 184.231 218.241 184.231 219.671V221.762H183.642C183.642 219.671 182.524 218.625 180.29 218.625H175.787V235.22H173.079V220.824ZM186.994 220.824C186.994 219.912 186.869 219.242 186.619 218.813C186.369 218.366 185.868 218.143 185.118 218.143H184.662V217.526H191.739C193.491 217.526 195.064 217.893 196.458 218.625C197.87 219.34 198.576 220.761 198.576 222.888C198.576 224.282 198.209 225.363 197.476 226.132C196.761 226.882 195.948 227.383 195.037 227.633C194.125 227.883 193.294 228.008 192.544 228.008H189.702V235.22H186.994V220.824ZM191.605 227.016C192.195 227.016 192.794 226.882 193.401 226.614C194.027 226.328 194.545 225.864 194.956 225.22C195.385 224.577 195.6 223.755 195.6 222.754C195.6 221.753 195.385 220.931 194.956 220.288C194.545 219.644 194.036 219.188 193.428 218.92C192.821 218.634 192.222 218.491 191.632 218.491C191.007 218.491 190.363 218.581 189.702 218.759V227.016H191.605ZM213.672 235.354C211.403 235.354 209.821 234.192 208.927 231.869L208.257 230.18H200.858L198.687 235.22H197.427L205.04 217.526H205.952L211.876 231.869C212.287 232.834 212.698 233.522 213.109 233.933C213.538 234.326 214.101 234.559 214.798 234.63V235.22C214.477 235.309 214.101 235.354 213.672 235.354ZM207.721 229.081L204.584 221.494L201.287 229.081H207.721Z"
              fill="url(#pattern1)"/>
    </g>
    <g filter="url(#filter2_d)">
        <path d="M48.8874 200.003L31.3292 167.749V197.001C31.3292 197.723 31.4921 198.27 31.8179 198.642C32.1437 199.014 32.7255 199.317 33.5632 199.55V200.667H19.5656V199.55C20.4033 199.317 20.9851 199.014 21.3109 198.642C21.6367 198.27 21.7996 197.723 21.7996 197.001V156.649C21.7996 155.951 21.6367 155.416 21.3109 155.043C20.9851 154.671 20.4033 154.368 19.5656 154.136V153.019H37.9266V154.136C36.8328 154.415 36.286 155.055 36.286 156.056C36.286 156.521 36.4489 157.056 36.7747 157.661L49.76 181.607L62.9199 158.08C63.5017 157.01 63.7926 156.23 63.7926 155.741C63.7926 154.787 63.2108 154.252 62.0473 154.136V153.019H80.0592V154.136C79.2215 154.368 78.6397 154.671 78.3139 155.043C77.9881 155.416 77.8252 155.951 77.8252 156.649V197.001C77.8252 197.723 77.9881 198.27 78.3139 198.642C78.6397 199.014 79.2215 199.317 80.0592 199.55V200.667H65.1889V199.55C66.0034 199.34 66.5735 199.049 66.8993 198.677C67.2484 198.281 67.4229 197.723 67.4229 197.001V167.749L48.8874 200.003ZM120.729 188.519H99.0863L95.8749 195.221C95.4327 196.152 95.2116 196.885 95.2116 197.42C95.2116 198.444 95.9912 199.154 97.5504 199.55V200.667H81.7725V199.55C82.7033 199.363 83.4131 199.038 83.9018 198.572C84.3905 198.107 84.949 197.199 85.5773 195.849L103.101 159.232C103.659 158.069 103.938 157.138 103.938 156.44C103.938 155.369 103.263 154.601 101.914 154.136V153.019H118.809V154.136C117.436 154.531 116.749 155.218 116.749 156.195C116.749 156.87 116.97 157.638 117.412 158.499L135.564 195.221C136.332 196.78 137.007 197.851 137.589 198.433C138.17 198.991 138.95 199.363 139.927 199.55V200.667H122.404V199.55C123.94 199.294 124.708 198.572 124.708 197.385C124.708 196.897 124.475 196.175 124.01 195.221L120.729 188.519ZM117.727 181.991L110.012 165.027L102.193 181.991H117.727ZM153.753 179.827V197.001C153.753 197.723 153.916 198.281 154.242 198.677C154.591 199.049 155.173 199.34 155.987 199.55V200.667H141.117V199.55C141.955 199.317 142.537 199.014 142.862 198.642C143.188 198.27 143.351 197.723 143.351 197.001V156.684C143.351 155.963 143.188 155.416 142.862 155.043C142.537 154.671 141.955 154.368 141.117 154.136V153.019H183.285C183.983 153.019 184.518 152.856 184.89 152.53C185.263 152.204 185.565 151.611 185.798 150.75H186.915V163.072H185.798C185.565 162.234 185.263 161.664 184.89 161.361C184.518 161.036 183.983 160.873 183.285 160.873H153.753V172.252H173.057C173.778 172.252 174.325 172.089 174.697 171.764C175.07 171.415 175.372 170.821 175.605 169.983H176.722V182.026H175.605C175.372 181.212 175.07 180.642 174.697 180.316C174.325 179.99 173.778 179.827 173.057 179.827H153.753ZM192.503 197.001V156.649C192.503 155.951 192.34 155.416 192.014 155.043C191.688 154.671 191.107 154.368 190.269 154.136V153.019H205.139V154.136C204.301 154.345 203.72 154.648 203.394 155.043C203.068 155.416 202.905 155.951 202.905 156.649V197.001C202.905 197.723 203.068 198.281 203.394 198.677C203.743 199.049 204.325 199.34 205.139 199.55V200.667H190.269V199.55C191.107 199.317 191.688 199.014 192.014 198.642C192.34 198.27 192.503 197.723 192.503 197.001ZM245.774 188.519H224.131L220.92 195.221C220.478 196.152 220.257 196.885 220.257 197.42C220.257 198.444 221.036 199.154 222.595 199.55V200.667H206.817V199.55C207.748 199.363 208.458 199.038 208.947 198.572C209.435 198.107 209.994 197.199 210.622 195.849L228.146 159.232C228.704 158.069 228.983 157.138 228.983 156.44C228.983 155.369 228.308 154.601 226.959 154.136V153.019H243.854V154.136C242.481 154.531 241.794 155.218 241.794 156.195C241.794 156.87 242.015 157.638 242.457 158.499L260.609 195.221C261.377 196.78 262.052 197.851 262.634 198.433C263.215 198.991 263.995 199.363 264.972 199.55V200.667H247.449V199.55C248.985 199.294 249.753 198.572 249.753 197.385C249.753 196.897 249.52 196.175 249.055 195.221L245.774 188.519ZM242.772 181.991L235.057 165.027L227.238 181.991H242.772Z"
              fill="white"/>
        <path d="M48.8874 200.003L31.3292 167.749V197.001C31.3292 197.723 31.4921 198.27 31.8179 198.642C32.1437 199.014 32.7255 199.317 33.5632 199.55V200.667H19.5656V199.55C20.4033 199.317 20.9851 199.014 21.3109 198.642C21.6367 198.27 21.7996 197.723 21.7996 197.001V156.649C21.7996 155.951 21.6367 155.416 21.3109 155.043C20.9851 154.671 20.4033 154.368 19.5656 154.136V153.019H37.9266V154.136C36.8328 154.415 36.286 155.055 36.286 156.056C36.286 156.521 36.4489 157.056 36.7747 157.661L49.76 181.607L62.9199 158.08C63.5017 157.01 63.7926 156.23 63.7926 155.741C63.7926 154.787 63.2108 154.252 62.0473 154.136V153.019H80.0592V154.136C79.2215 154.368 78.6397 154.671 78.3139 155.043C77.9881 155.416 77.8252 155.951 77.8252 156.649V197.001C77.8252 197.723 77.9881 198.27 78.3139 198.642C78.6397 199.014 79.2215 199.317 80.0592 199.55V200.667H65.1889V199.55C66.0034 199.34 66.5735 199.049 66.8993 198.677C67.2484 198.281 67.4229 197.723 67.4229 197.001V167.749L48.8874 200.003ZM120.729 188.519H99.0863L95.8749 195.221C95.4327 196.152 95.2116 196.885 95.2116 197.42C95.2116 198.444 95.9912 199.154 97.5504 199.55V200.667H81.7725V199.55C82.7033 199.363 83.4131 199.038 83.9018 198.572C84.3905 198.107 84.949 197.199 85.5773 195.849L103.101 159.232C103.659 158.069 103.938 157.138 103.938 156.44C103.938 155.369 103.263 154.601 101.914 154.136V153.019H118.809V154.136C117.436 154.531 116.749 155.218 116.749 156.195C116.749 156.87 116.97 157.638 117.412 158.499L135.564 195.221C136.332 196.78 137.007 197.851 137.589 198.433C138.17 198.991 138.95 199.363 139.927 199.55V200.667H122.404V199.55C123.94 199.294 124.708 198.572 124.708 197.385C124.708 196.897 124.475 196.175 124.01 195.221L120.729 188.519ZM117.727 181.991L110.012 165.027L102.193 181.991H117.727ZM153.753 179.827V197.001C153.753 197.723 153.916 198.281 154.242 198.677C154.591 199.049 155.173 199.34 155.987 199.55V200.667H141.117V199.55C141.955 199.317 142.537 199.014 142.862 198.642C143.188 198.27 143.351 197.723 143.351 197.001V156.684C143.351 155.963 143.188 155.416 142.862 155.043C142.537 154.671 141.955 154.368 141.117 154.136V153.019H183.285C183.983 153.019 184.518 152.856 184.89 152.53C185.263 152.204 185.565 151.611 185.798 150.75H186.915V163.072H185.798C185.565 162.234 185.263 161.664 184.89 161.361C184.518 161.036 183.983 160.873 183.285 160.873H153.753V172.252H173.057C173.778 172.252 174.325 172.089 174.697 171.764C175.07 171.415 175.372 170.821 175.605 169.983H176.722V182.026H175.605C175.372 181.212 175.07 180.642 174.697 180.316C174.325 179.99 173.778 179.827 173.057 179.827H153.753ZM192.503 197.001V156.649C192.503 155.951 192.34 155.416 192.014 155.043C191.688 154.671 191.107 154.368 190.269 154.136V153.019H205.139V154.136C204.301 154.345 203.72 154.648 203.394 155.043C203.068 155.416 202.905 155.951 202.905 156.649V197.001C202.905 197.723 203.068 198.281 203.394 198.677C203.743 199.049 204.325 199.34 205.139 199.55V200.667H190.269V199.55C191.107 199.317 191.688 199.014 192.014 198.642C192.34 198.27 192.503 197.723 192.503 197.001ZM245.774 188.519H224.131L220.92 195.221C220.478 196.152 220.257 196.885 220.257 197.42C220.257 198.444 221.036 199.154 222.595 199.55V200.667H206.817V199.55C207.748 199.363 208.458 199.038 208.947 198.572C209.435 198.107 209.994 197.199 210.622 195.849L228.146 159.232C228.704 158.069 228.983 157.138 228.983 156.44C228.983 155.369 228.308 154.601 226.959 154.136V153.019H243.854V154.136C242.481 154.531 241.794 155.218 241.794 156.195C241.794 156.87 242.015 157.638 242.457 158.499L260.609 195.221C261.377 196.78 262.052 197.851 262.634 198.433C263.215 198.991 263.995 199.363 264.972 199.55V200.667H247.449V199.55C248.985 199.294 249.753 198.572 249.753 197.385C249.753 196.897 249.52 196.175 249.055 195.221L245.774 188.519ZM242.772 181.991L235.057 165.027L227.238 181.991H242.772Z"
              fill="url(#pattern2)"/>
    </g>
    <defs>
        <filter id="filter0_i" x="56.6666" y="22.6667" width="166.667" height="166.667" filterUnits="userSpaceOnUse"
                color-interpolation-filters="sRGB">
            <feFlood flood-opacity="0" result="BackgroundImageFix"/>
            <feBlend mode="normal" in="SourceGraphic" in2="BackgroundImageFix" result="shape"/>
            <feColorMatrix in="SourceAlpha" type="matrix" values="0 0 0 0 0 0 0 0 0 0 0 0 0 0 0 0 0 0 127 0"
                           result="hardAlpha"/>
            <feOffset dy="1.48936"/>
            <feComposite in2="hardAlpha" operator="arithmetic" k2="-1" k3="1"/>
            <feColorMatrix type="matrix" values="0 0 0 0 0.8 0 0 0 0 0 0 0 0 0 0 0 0 0 1 0"/>
            <feBlend mode="normal" in2="shape" result="effect1_innerShadow"/>
        </filter>
        <pattern id="pattern0" patternContentUnits="objectBoundingBox" width="4.57532" height="3.01819">
            <use xlink:href="#image0" transform="scale(0.00223404)"/>
        </pattern>
        <filter id="filter1_d" x="66.3892" y="216.99" width="148.409" height="26.0609" filterUnits="userSpaceOnUse"
                color-interpolation-filters="sRGB">
            <feFlood flood-opacity="0" result="BackgroundImageFix"/>
            <feColorMatrix in="SourceAlpha" type="matrix" values="0 0 0 0 0 0 0 0 0 0 0 0 0 0 0 0 0 0 127 0"/>
            <feOffset dy="2.97872"/>
            <feColorMatrix type="matrix" values="0 0 0 0 0 0 0 0 0 0 0 0 0 0 0 0 0 0 0.3 0"/>
            <feBlend mode="normal" in2="BackgroundImageFix" result="effect1_dropShadow"/>
            <feBlend mode="normal" in="SourceGraphic" in2="effect1_dropShadow" result="shape"/>
        </filter>
        <pattern id="pattern1" patternContentUnits="objectBoundingBox" width="4.57532" height="10.7793">
            <use xlink:href="#image0" transform="scale(0.00223404 0.00797872)"/>
        </pattern>
        <filter id="filter2_d" x="19.5656" y="150.75" width="245.407" height="52.8956" filterUnits="userSpaceOnUse"
                color-interpolation-filters="sRGB">
            <feFlood flood-opacity="0" result="BackgroundImageFix"/>
            <feColorMatrix in="SourceAlpha" type="matrix" values="0 0 0 0 0 0 0 0 0 0 0 0 0 0 0 0 0 0 127 0"/>
            <feOffset dy="2.97872"/>
            <feColorMatrix type="matrix" values="0 0 0 0 0 0 0 0 0 0 0 0 0 0 0 0 0 0 0.3 0"/>
            <feBlend mode="normal" in2="BackgroundImageFix" result="effect1_dropShadow"/>
            <feBlend mode="normal" in="SourceGraphic" in2="effect1_dropShadow" result="shape"/>
        </filter>
        <pattern id="pattern2" patternContentUnits="objectBoundingBox" width="2.11702" height="4.42674">
            <use xlink:href="#image0" transform="scale(0.0010337 0.00327664)"/>
        </pattern>
        <radialGradient id="paint0_angular" cx="0" cy="0" r="1" gradientUnits="userSpaceOnUse"
                        gradientTransform="translate(140 106) rotate(90) scale(83.3333)">
            <stop stop-color="#E80000"/>
            <stop offset="0.390625" stop-color="#A00006"/>
        </radialGradient>
        <linearGradient id="paint1_linear" x1="132.113" y1="1.02621" x2="132.113" y2="229.806"
                        gradientUnits="userSpaceOnUse">
            <stop offset="0.484375"/>
            <stop offset="1" stop-color="#111111"/>
        </linearGradient>
        <linearGradient id="paint2_linear" x1="132.121" y1="229.816" x2="132.121" y2="1.02518"
                        gradientUnits="userSpaceOnUse">
            <stop stop-color="#111111"/>
            <stop offset="0.151042" stop-color="#111111"/>
            <stop offset="0.991" stop-color="#AD0303"/>
            <stop offset="0.9911" stop-color="#CC0000"/>
        </linearGradient>
        <radialGradient id="paint3_radial" cx="0" cy="0" r="1" gradientUnits="userSpaceOnUse"
                        gradientTransform="translate(140 228.872) rotate(90) scale(23.0142 82.1935)">
            <stop stop-color="#A00006"/>
            <stop offset="0.380208" stop-color="#E80000"/>
        </radialGradient>
    </defs>
</svg>
