<?xml version="1.0" standalone="no"?>
<!DOCTYPE svg PUBLIC "-//W3C//DTD SVG 20010904//EN"
 "http://www.w3.org/TR/2001/REC-SVG-20010904/DTD/svg10.dtd">
<svg version="1.0" xmlns="http://www.w3.org/2000/svg"
 width="700.000000pt" height="700.000000pt" viewBox="0 0 700.000000 700.000000"
 preserveAspectRatio="xMidYMid meet">
<g transform="translate(0.000000,700.000000) scale(0.100000,-0.100000)"
fill="#000000" stroke="none">
<path d="M445 6896 c-33 -14 -65 -55 -65 -81 0 -45 83 -159 124 -169 13 -3 30
-16 38 -29 20 -30 64 -153 71 -199 6 -37 5 -38 -36 -49 -66 -18 -152 -65 -182
-100 -24 -30 -26 -38 -20 -83 3 -28 24 -98 47 -156 22 -58 58 -151 79 -208 38
-97 39 -103 24 -132 -8 -16 -33 -44 -55 -61 -22 -18 -40 -36 -40 -40 0 -11 36
-34 82 -53 34 -15 38 -14 63 6 23 18 29 19 40 7 7 -8 41 -84 75 -169 198 -498
466 -1078 510 -1105 5 -3 36 4 69 15 85 28 124 27 151 -7 28 -36 110 -206 146
-305 32 -89 33 -89 125 -58 58 20 62 20 80 4 10 -9 21 -26 25 -38 4 -11 11
-24 17 -27 5 -4 -22 -25 -60 -47 -97 -57 -649 -330 -1033 -511 -179 -84 -329
-156 -333 -161 -5 -4 -13 -39 -19 -79 -6 -39 -14 -71 -18 -71 -13 0 -70 136
-70 169 0 35 26 63 79 88 15 6 19 12 11 12 -8 0 -37 -12 -65 -27 -70 -38 -71
-62 -7 -183 49 -94 177 -299 187 -299 3 0 56 27 118 59 150 80 473 226 566
258 l75 25 18 -24 c39 -49 169 -327 193 -413 15 -49 29 -126 32 -171 l6 -81
-59 -33 c-130 -73 -302 -213 -349 -284 -23 -35 -36 -46 -57 -46 -15 0 -39 -11
-54 -24 -53 -45 -26 -129 82 -256 31 -36 107 -141 169 -235 471 -703 1025
-1161 1670 -1379 286 -97 541 -137 865 -137 502 1 967 118 1455 365 731 371
1314 969 1505 1543 60 183 83 342 77 543 -4 141 -8 178 -31 253 -47 158 -130
300 -240 412 -54 55 -152 135 -166 135 -5 0 38 -46 94 -102 98 -98 181 -209
255 -340 18 -32 29 -58 24 -58 -4 1 -33 33 -63 73 -186 243 -438 457 -540 457
-21 0 -33 8 -48 33 -38 65 -202 189 -450 339 -233 141 -211 121 -238 216 -50
172 -123 271 -246 331 l-68 33 0 86 c0 153 56 432 87 432 8 0 17 9 20 19 3 14
17 21 50 26 129 19 274 72 331 120 50 42 65 80 59 142 -8 81 -50 146 -175 273
l-113 115 21 70 c45 147 34 325 -29 475 -113 271 -412 488 -781 567 -116 25
-450 25 -557 1 -162 -37 -275 -100 -393 -218 -120 -120 -177 -240 -200 -424
-5 -44 -12 -82 -15 -84 -3 -3 -75 3 -160 13 -253 29 -385 25 -385 -13 0 -25
126 -141 227 -209 48 -32 139 -85 201 -117 113 -58 114 -58 108 -89 -23 -137
-13 -510 20 -732 69 -465 261 -854 471 -956 44 -21 52 -36 31 -57 -9 -9 -4
-20 23 -48 34 -35 34 -35 13 -52 -141 -114 -1258 -978 -1267 -980 -7 -2 -5 3
4 10 8 7 174 155 369 328 230 206 347 316 336 318 -16 4 -65 -36 -371 -303
-199 -174 -356 -305 -365 -305 -7 0 -19 26 -33 72 -4 12 6 23 36 38 47 24 77
49 77 62 0 19 -52 85 -81 102 -24 14 -42 17 -77 12 -44 -6 -45 -6 -27 14 22
24 78 43 105 35 26 -8 26 11 -1 25 -16 9 -30 6 -76 -20 -67 -38 -60 -43 -129
93 -24 48 -46 87 -49 87 -5 0 4 -24 39 -102 45 -101 13 -62 -53 65 -36 67 -68
125 -73 128 -14 9 -51 82 -54 106 -1 11 -11 34 -23 50 -11 15 -96 183 -187
373 -91 190 -218 453 -281 585 -186 386 -1113 2248 -1187 2385 -37 69 -73 130
-79 137 -9 9 -19 9 -42 -1z m1170 -3728 c14 -13 32 -41 40 -63 13 -37 15 -38
21 -17 10 33 24 8 24 -42 0 -57 -20 -115 -48 -137 -29 -22 -113 -26 -151 -6
-33 16 -64 60 -67 94 -2 15 -9 47 -15 70 -16 52 -7 64 25 34 35 -33 57 -23 89
37 16 28 34 52 42 52 8 0 26 -10 40 -22z m-104 -354 c53 -55 94 -77 132 -70
45 9 67 28 82 73 13 38 14 38 23 13 11 -30 -8 -94 -40 -127 -23 -25 -76 -31
-122 -13 -40 15 -146 160 -117 160 4 0 23 -16 42 -36z m186 1 c8 -22 -25 -55
-55 -55 -24 0 -112 45 -112 57 0 3 17 3 38 0 20 -2 48 -1 62 3 40 13 60 11 67
-5z"/>
<path d="M665 3390 c-22 -10 -33 -19 -25 -19 8 0 33 9 55 19 22 10 33 19 25
19 -8 0 -33 -9 -55 -19z"/>
<path d="M3505 3390 c-18 -19 -17 -20 2 -20 11 0 28 9 38 20 18 19 17 20 -2
20 -11 0 -28 -9 -38 -20z"/>
<path d="M6136 3385 c4 -8 16 -15 27 -15 20 0 20 0 1 15 -25 19 -35 19 -28 0z"/>
</g>
</svg>
