<svg width="7" height="11" viewBox="0 0 7 11" fill="none" xmlns="http://www.w3.org/2000/svg">
<path fill-rule="evenodd" clip-rule="evenodd" d="M0.314876 6.717L4.27638 10.6839C4.47609 10.8774 4.73213 10.9838 4.99713 10.9838C5.26213 10.9838 5.51817 10.8774 5.71788 10.6839C5.81122 10.5955 5.88619 10.4853 5.93759 10.3616C5.989 10.2379 6.01562 10.1032 6.01562 9.96692C6.01562 9.83064 5.989 9.69636 5.93759 9.57263C5.88619 9.4489 5.81122 9.33877 5.71788 9.25037L2.47638 5.98376L5.71788 2.73385C5.81132 2.64373 5.88626 2.53218 5.93761 2.4071C5.98896 2.28202 6.01554 2.14623 6.01554 2.00875C6.01554 1.87127 5.98896 1.73547 5.93761 1.61039C5.88626 1.48531 5.81132 1.37377 5.71788 1.28365C5.51499 1.09765 5.26016 0.995972 4.99713 0.995972C4.7341 0.995972 4.47927 1.09765 4.27638 1.28365L0.314876 5.26721C0.22099 5.35702 0.145656 5.46802 0.0940111 5.59314C0.0423663 5.71826 0.0156305 5.85466 0.0156305 5.99231C0.0156305 6.12996 0.0423663 6.26595 0.0940111 6.39107C0.145656 6.51619 0.22099 6.62719 0.314876 6.717Z" fill="white"/>
</svg>
