<svg width="16" height="20" viewBox="0 0 16 20" fill="none" xmlns="http://www.w3.org/2000/svg">
<path d="M8.82661 9.28639H4.52751C3.32842 9.29183 2.18002 9.76874 1.33213 10.6131C0.484234 11.4575 0.00546292 12.6011 0 13.7953V19.0343C0 19.5676 0.432371 20 0.965727 20C1.49908 20 1.93145 19.5676 1.93145 19.0343V14.6144C1.93145 14.3334 2.15926 14.1056 2.44027 14.1056C2.72128 14.1056 2.94909 14.3334 2.94909 14.6144V18.3333C2.94909 19.2538 3.69528 20 4.61576 20L7.53856 19.9632C7.01952 19.4432 6.60559 18.8226 6.29664 18.1007C5.98779 17.379 5.83333 16.6219 5.83333 15.8295C5.83333 15.0372 5.98779 14.2813 6.29664 13.5621C6.60551 12.8429 7.01955 12.2233 7.53856 11.7035C8.05755 11.1836 8.67787 10.7697 9.39947 10.4618C9.99954 10.2059 10.6233 10.0562 11.2706 10.0131C10.5482 9.54622 9.701 9.29038 8.82661 9.28639Z" fill="#E80000"/>
<path d="M10.5505 3.88818C10.5546 3.12238 10.3304 2.37259 9.90613 1.73385C9.48189 1.09511 8.87676 0.596223 8.16748 0.300318C7.4582 0.00441362 6.6767 -0.075057 5.92197 0.0718319C5.16724 0.218721 4.47325 0.585331 3.92803 1.12539C3.3828 1.66546 3.01085 2.35447 2.85931 3.10527C2.70776 3.85607 2.7835 4.63475 3.07683 5.34267C3.37016 6.05059 3.86789 6.65604 4.50701 7.08194C5.14612 7.50784 5.89781 7.73507 6.66682 7.73509C7.69325 7.7351 8.67794 7.33042 9.40568 6.60957C10.1334 5.88872 10.545 4.91035 10.5505 3.88818Z" fill="#E80000"/>
<path d="M15.5025 14.211C15.2818 13.6973 14.9861 13.2547 14.6153 12.8835C14.2447 12.5121 13.8015 12.2164 13.2861 11.9965C12.7708 11.7766 12.2309 11.6667 11.6667 11.6667C11.1025 11.6667 10.5627 11.7767 10.0472 11.9965C9.53181 12.2164 9.08872 12.5121 8.71802 12.8835C8.34729 13.2547 8.05155 13.6973 7.83093 14.211C7.61033 14.7248 7.5 15.2647 7.5 15.8306C7.5 16.3966 7.61033 16.9374 7.83093 17.4529C8.05161 17.9685 8.34727 18.4118 8.71802 18.7832C9.08872 19.1546 9.53181 19.4503 10.0472 19.67C10.5627 19.89 11.1025 20 11.6667 20C12.231 20 12.7708 19.89 13.2861 19.67C13.8015 19.4502 14.2447 19.1546 14.6153 18.7832C14.9861 18.4118 15.2818 17.9685 15.5025 17.4529C15.7231 16.9374 15.8333 16.3966 15.8333 15.8306C15.8333 15.2647 15.7231 14.7248 15.5025 14.211ZM9.19814 17.4474C8.87624 16.9537 8.71528 16.4145 8.71536 15.8305C8.71536 15.297 8.84741 14.8031 9.11143 14.3488C9.3754 13.8946 9.73355 13.5359 10.1856 13.2727C10.6377 13.0095 11.1314 12.8779 11.6667 12.8779C12.2636 12.8779 12.806 13.042 13.2944 13.3701L9.19814 17.4474ZM14.3847 16.9798C14.2291 17.3457 14.0194 17.6603 13.7554 17.9235C13.4913 18.1867 13.1776 18.3967 12.814 18.5534C12.4505 18.7102 12.068 18.7887 11.6666 18.7887C11.0879 18.7887 10.5508 18.6283 10.0553 18.3073L14.1461 14.2353C14.4609 14.7184 14.6181 15.2502 14.6181 15.8306C14.618 16.2308 14.5402 16.6138 14.3847 16.9798Z" fill="#E80000"/>
</svg>
