<svg width="23" height="28" viewBox="0 0 23 28" fill="none" xmlns="http://www.w3.org/2000/svg">
<path fill-rule="evenodd" clip-rule="evenodd" d="M18.2 0.643353V24.5569C18.2 24.6413 18.1815 24.7249 18.1455 24.8029C18.1095 24.881 18.057 24.9519 17.9905 25.0116C17.924 25.0713 17.8451 25.1187 17.7582 25.151C17.6713 25.1834 17.5781 25.2 17.4841 25.2H0.716209C0.622191 25.2 0.528927 25.1834 0.442065 25.151C0.355204 25.1187 0.27626 25.0713 0.209779 25.0116C0.143298 24.9519 0.0907477 24.881 0.0547684 24.8029C0.0187892 24.7249 0.000261658 24.6413 0.000261658 24.5569V0.643353C-0.00233501 0.558264 0.0144186 0.473698 0.0494787 0.394617C0.0845389 0.315537 0.137024 0.243671 0.20403 0.183481C0.271035 0.123292 0.35104 0.0759392 0.439076 0.0444455C0.527111 0.0129518 0.621484 -0.00209749 0.716209 0.000235041H17.4841C17.5781 0.000235041 17.6713 0.0168778 17.7582 0.0491971C17.8451 0.0815164 17.924 0.128928 17.9905 0.188646C18.057 0.248364 18.1095 0.319277 18.1455 0.397303C18.1815 0.475329 18.2 0.558899 18.2 0.643353ZM22.5403 2.98829C22.6745 3.10881 22.75 3.27224 22.75 3.44269V27.3573C22.75 27.5278 22.6745 27.6912 22.5403 27.8117C22.406 27.9322 22.2239 28 22.0341 28H5.26595C5.07607 28 4.89401 27.9322 4.75975 27.8117C4.62548 27.6912 4.55 27.5278 4.55 27.3573V26.055H17.1731C17.6727 26.055 18.152 25.8769 18.5054 25.5597C18.8587 25.2425 19.0571 24.8123 19.0571 24.3637V2.8H22.0341C22.2239 2.8 22.406 2.86776 22.5403 2.98829ZM12.8391 7.24845C13.735 4.84145 9.1364 3.40085 8.92748 6.44723C7.99193 6.311 7.09745 6.20635 8.78277 7.25786C8.82182 10.4389 9.93325 10.756 9.93981 10.7579L9.93984 10.7579C9.93988 10.758 7.72171 12.764 7.48104 12.9316C7.44479 12.957 7.34561 12.7082 7.37257 12.6369C7.66777 12.513 7.65457 12.489 7.56343 12.3237C7.56017 12.3177 7.55682 12.3116 7.55337 12.3054C7.50971 12.2257 7.49932 12.1817 7.47566 12.1727C7.44574 12.1614 7.39457 12.206 7.22798 12.3054C7.17391 12.3382 6.37266 10.6082 5.50361 8.7318C4.58491 6.7482 3.59045 4.60102 3.32281 4.1999C3.18132 4.21627 3.1191 4.30513 3.07409 4.3694C3.05947 4.39028 3.04667 4.40856 3.03355 4.42093C2.91103 4.53647 3.20178 4.93519 3.28668 4.89987C3.35241 4.92933 3.38241 5.02193 3.41595 5.12546C3.43117 5.17245 3.44712 5.22169 3.46748 5.26829C3.4174 5.30099 3.35721 5.32724 3.29762 5.35321C3.20819 5.3922 3.12013 5.43059 3.06972 5.48932C2.91583 5.66861 3.0387 5.97176 3.17473 6.30739C3.22722 6.43688 3.28166 6.5712 3.32292 6.70511C3.32292 6.70511 2.75047 6.9136 3.35909 7.14716C3.41022 7.16682 3.50372 7.07346 3.50372 7.07346C3.50372 7.07346 4.39352 9.38013 4.66083 9.65245C4.67632 9.65205 4.7169 9.63911 4.76664 9.62325C4.87622 9.5883 5.03025 9.53918 5.05855 9.57878C5.25471 9.85217 5.42014 10.3893 5.42014 10.3893C5.42014 10.3893 5.62708 10.38 5.74552 10.3156C5.77719 10.2984 5.78204 10.3161 5.78842 10.3394C5.79325 10.3571 5.79896 10.3779 5.81782 10.3893C5.89092 10.4334 4.83242 10.8854 3.95966 11.258C3.3821 11.5047 2.88589 11.7165 2.85279 11.7525C2.76969 11.8428 3.28664 12.5999 3.28664 12.5999C3.28664 12.5999 4.72097 11.8117 4.80534 11.9368C4.94275 12.1405 5.37125 12.8876 5.2754 13.3736C5.02133 13.4889 4.39704 13.9673 4.44375 14.1105C3.87668 14.0433 4.55221 14.7368 4.55221 14.7368L6.64935 19.2683C6.64935 19.2683 6.72165 20.6698 6.72165 20.9999C8.21204 20.8482 8.82358 20.6899 8.96353 20.4841C8.96353 20.3156 8.92089 20.0818 8.8189 19.7473C9.03684 19.6625 9.27355 19.0848 9.03583 18.7157C13.0201 20.6484 15.1835 15.9162 15.5806 13.9261C15.9019 12.3163 14.8467 11.7106 14.4552 11.4858C14.3658 11.4345 14.311 11.403 14.3151 11.384C14.317 11.1706 14.0052 10.9873 13.6733 10.7921C13.4598 10.6665 13.2378 10.536 13.0857 10.3894C13.034 10.2093 12.9365 10.0464 12.8032 9.917C12.6699 9.78762 12.5054 9.69639 12.3264 9.65252C12.3283 9.32881 12.375 9.00699 12.4651 8.69655C13.1754 8.57007 13.9863 8.23114 12.8391 7.24845ZM5.63695 12.0841C5.63695 11.9108 5.55411 11.7703 5.42003 11.7157C5.36803 11.6945 5.32814 11.774 5.29152 11.847C5.27364 11.8827 5.25654 11.9167 5.23919 11.9368C5.21448 11.9654 5.19853 11.9446 5.17807 11.9178C5.15837 11.8921 5.13448 11.8609 5.09456 11.8631C4.91627 11.8729 5.16095 12.3378 5.32084 12.3378C5.48073 12.3378 5.63695 12.2575 5.63695 12.0841ZM5.70928 12.5263C5.70928 12.4652 5.64204 12.4137 5.52849 12.4526H5.52852C5.44991 12.4795 5.39665 12.4642 5.32853 12.4446C5.29276 12.4343 5.25289 12.4229 5.2031 12.4157C5.2031 12.4768 5.40866 12.6736 5.52849 12.6736C5.64832 12.6736 5.70928 12.5873 5.70928 12.5263Z" fill="#888888"/>
</svg>
