<svg width="25" height="24" viewBox="0 0 25 24" fill="none" xmlns="http://www.w3.org/2000/svg">
<path d="M12.5 24C10.126 24 7.80542 23.2958 5.8317 21.9766C3.85799 20.6574 2.31987 18.7823 1.41205 16.5887C0.504239 14.3952 0.267434 11.9817 0.731663 9.65348C1.19589 7.3253 2.34032 5.1871 4.02004 3.50946C5.69976 1.83182 7.83929 0.690128 10.168 0.228783C12.4968 -0.232562 14.9101 0.00716507 17.1026 0.917696C19.2951 1.82823 21.1681 3.36862 22.4849 5.34396C23.8017 7.31931 24.503 9.64081 24.5001 12.0148C24.4961 15.1948 23.2301 18.2433 20.9801 20.4905C18.7301 22.7378 15.6801 24 12.5 24ZM13.1684 10.0396V3.74256C13.1684 3.37347 12.8692 3.07427 12.5001 3.07427C12.131 3.07427 11.8318 3.37347 11.8318 3.74256V10.0396C11.5279 10.142 11.2518 10.3131 11.0251 10.5398C10.7984 10.7665 10.6272 11.0427 10.5248 11.3466H6.24754C5.87846 11.3466 5.57925 11.6458 5.57925 12.0149C5.57925 12.3839 5.87846 12.6832 6.24754 12.6832H10.4951C10.6069 13.0229 10.8038 13.3284 11.0671 13.5704C11.3304 13.8125 11.6513 13.983 11.9992 14.0659C12.3471 14.1487 12.7105 14.1412 13.0546 14.0438C13.3987 13.9464 13.7122 13.7624 13.965 13.5095C14.2179 13.2566 14.4018 12.9432 14.4992 12.599C14.5966 12.2549 14.6043 11.8916 14.5214 11.5436C14.4386 11.1957 14.2679 10.8748 14.0259 10.6115C13.7838 10.3482 13.4784 10.1514 13.1387 10.0396H13.1684Z" fill="#888888"/>
</svg>
