<svg width="20" height="24" viewBox="0 0 20 24" fill="none" xmlns="http://www.w3.org/2000/svg">
<path d="M7.51322 19.1268L0.584478 19.1268C0.298198 19.1268 0.0661215 19.3589 0.0661215 19.6452C0.0661215 19.9315 0.298197 20.1635 0.584478 20.1635L7.51322 20.1635C7.62873 20.9684 8.04119 21.7056 8.6745 22.2392C9.30782 22.7727 10.1193 23.0667 10.959 23.0667C11.7988 23.0667 12.6102 22.7727 13.2435 22.2392C13.8768 21.7056 14.2893 20.9684 14.4048 20.1635L19.4816 20.1635C19.7679 20.1635 20 19.9315 20 19.6452C20 19.3589 19.7679 19.1268 19.4816 19.1268L14.4048 19.1268C14.2704 18.3364 13.8502 17.6178 13.219 17.0993C12.5879 16.5809 11.787 16.2963 10.959 16.2963C10.1311 16.2963 9.3301 16.5809 8.69897 17.0993C8.06783 17.6178 7.64758 18.3364 7.51322 19.1268ZM12.0502 11.1787L0.558077 11.1787C0.271797 11.1787 0.0397214 11.4108 0.0397214 11.697C0.0397214 11.9833 0.271797 12.2154 0.558078 12.2154L12.0502 12.2154C12.1658 13.0202 12.5783 13.7574 13.2116 14.291C13.8449 14.8246 14.6563 15.1185 15.4961 15.1185C16.3358 15.1185 17.1472 14.8246 17.7805 14.291C18.4138 13.7574 18.8263 13.0202 18.9418 12.2154L19.4552 12.2154C19.7415 12.2154 19.9736 11.9833 19.9736 11.697C19.9736 11.4108 19.7415 11.1787 19.4552 11.1787L18.9418 11.1787C18.8075 10.3882 18.3872 9.66965 17.7561 9.1512C17.1249 8.63275 16.324 8.34814 15.4961 8.34814C14.6682 8.34814 13.8671 8.63275 13.236 9.1512C12.6049 9.66965 12.1846 10.3882 12.0502 11.1787ZM2.03701 3.23051L0.518356 3.23051C0.232076 3.23051 2.33776e-07 3.46259 2.30362e-07 3.74887C2.26949e-07 4.03515 0.232076 4.26722 0.518356 4.26722L2.07673 4.26722C2.19224 5.07204 2.6047 5.8093 3.23801 6.34287C3.87133 6.87645 4.68273 7.17035 5.52247 7.17035C6.36222 7.17035 7.17362 6.87645 7.80693 6.34287C8.44025 5.8093 8.85279 5.07204 8.9683 4.26722L19.4552 4.26722C19.7415 4.26722 19.9736 4.03515 19.9736 3.74887C19.9736 3.46259 19.7415 3.23051 19.4552 3.23051L8.9683 3.23051C8.83393 2.44005 8.41369 1.72151 7.78255 1.20306C7.15141 0.684607 6.35038 0.4 5.52247 0.4C4.69457 0.4 3.89361 0.684607 3.26248 1.20306C2.63134 1.72151 2.21109 2.44005 2.07673 3.23051L2.03701 3.23051Z" fill="#888888"/>
</svg>
