<svg width="10" height="15" viewBox="0 0 10 15" fill="none" xmlns="http://www.w3.org/2000/svg">
<path d="M3.41079 6.43469C3.41079 6.2399 3.25288 6.082 3.05809 6.082C2.8633 6.082 2.7054 6.2399 2.7054 6.43469V12.8877C2.7054 13.0824 2.8633 13.2404 3.05809 13.2404C3.25288 13.2404 3.41079 13.0824 3.41079 12.8877V6.43469ZM5.3527 6.43469C5.3527 6.2399 5.19479 6.082 5 6.082C4.80521 6.082 4.6473 6.2399 4.6473 6.43469V12.8877C4.6473 13.0824 4.80521 13.2404 5 13.2404C5.19479 13.2404 5.3527 13.0824 5.3527 12.8877V6.43469ZM7.29338 6.4353C7.29405 6.24038 7.13622 6.082 6.9413 6.082C6.74685 6.082 6.58921 6.23963 6.58921 6.43408V12.8995C6.58921 13.0878 6.74181 13.2404 6.93005 13.2404C7.11783 13.2404 7.27024 13.0885 7.27089 12.9007L7.29338 6.4353ZM10 4.1225C10 4.52583 9.67304 4.8528 9.26971 4.8528C8.86638 4.8528 8.53942 5.17976 8.53942 5.58309V12.4444C8.53942 13.549 7.64399 14.4444 6.53942 14.4444H3.46058C2.35601 14.4444 1.46058 13.549 1.46058 12.4444V5.55798C1.46058 5.15465 1.13362 4.82768 0.730291 4.82768C0.326962 4.82768 0 4.50072 0 4.09739V3.87858C0 3.35441 0.424928 2.92948 0.949103 2.92948H9.03834C9.56945 2.92948 10 3.36003 10 3.89114V4.1225ZM5.00811 0.567048C5.0162 0.575204 5.02722 0.579763 5.03871 0.579893C5.4548 0.584611 5.85285 0.753129 6.14742 1.04995C6.37121 1.27545 6.52156 1.56113 6.58295 1.86924C6.61727 2.0415 6.7565 2.18524 6.93215 2.18524C7.11524 2.18524 7.26249 2.03018 7.22546 1.85088C7.12963 1.387 6.89468 0.960776 6.54848 0.632259C6.12048 0.226111 5.55473 0 4.9668 0C4.37888 0 3.81313 0.226111 3.38513 0.632259C3.0445 0.955487 2.81157 1.3733 2.71289 1.8285C2.67147 2.01956 2.82884 2.18524 3.02433 2.18524C3.21397 2.18524 3.36333 2.02829 3.40056 1.84235C3.42017 1.74444 3.44885 1.64834 3.48637 1.55533C3.56701 1.3554 3.68683 1.17389 3.83867 1.02168C3.9905 0.869467 4.17123 0.749652 4.37005 0.669414C4.56349 0.591352 4.77019 0.552304 4.97844 0.554409C4.98961 0.554522 5.00025 0.559115 5.00811 0.567048Z" fill="#555555"/>
</svg>
