<svg width="13" height="20" viewBox="0 0 13 20" fill="none" xmlns="http://www.w3.org/2000/svg">
<path d="M10.3725 3.83425C10.3764 3.10824 10.1638 2.39742 9.76163 1.79188C9.35944 1.18634 8.78576 0.713382 8.11334 0.432857C7.44092 0.152332 6.70005 0.0769916 5.98455 0.216246C5.26904 0.355501 4.61112 0.703056 4.09423 1.21505C3.57734 1.72704 3.22473 2.38025 3.08106 3.09203C2.93739 3.80381 3.00919 4.54201 3.28727 5.21314C3.56536 5.88426 4.03722 6.45825 4.64312 6.86201C5.24902 7.26578 5.96164 7.4812 6.69068 7.48121C7.66377 7.48122 8.59727 7.09758 9.28719 6.41419C9.97711 5.73081 10.3673 4.80329 10.3725 3.83425Z" fill="#00A44C"/>
<path d="M3.01524 3.83472C3.01137 3.10862 3.2224 2.39771 3.62162 1.79209C4.02084 1.18647 4.59028 0.713455 5.25772 0.432894C5.92517 0.152332 6.66057 0.0769824 7.37079 0.216255C8.081 0.355527 8.73406 0.703128 9.24713 1.21519C9.7602 1.72725 10.1102 2.38053 10.2528 3.09241C10.3954 3.80428 10.3242 4.54258 10.0481 5.21379C9.7721 5.885 9.30372 6.45906 8.7023 6.86288C8.10088 7.2667 7.39352 7.48214 6.66987 7.48215C5.70398 7.48217 4.77737 7.09847 4.09256 6.415C3.40774 5.73153 3.0204 4.80389 3.01524 3.83472Z" fill="#00A44C"/>
<path d="M1.63325 10.2097C0.829427 11.0102 0.37554 12.0944 0.370361 13.2264V18.1931C0.370361 18.6988 0.78026 19.1087 1.2859 19.1087C1.79153 19.1087 2.20143 18.6988 2.20143 18.1931V14.003C2.20143 13.7365 2.4174 13.5206 2.6838 13.5206C2.95021 13.5206 3.16617 13.7365 3.16617 14.003V17.5286C3.16617 18.4013 3.87358 19.1087 4.74622 19.1087L8.59996 19.1111C9.46615 19.1111 10.1683 18.4036 10.1683 17.5309V14.0047C10.1683 13.7383 10.3827 13.5223 10.6471 13.5223C10.9116 13.5223 11.1259 13.7383 11.1259 14.0047V18.1955C11.1259 18.7012 11.5328 19.1111 12.0347 19.1111C12.5366 19.1111 12.9435 18.7012 12.9435 18.1955V13.2281C12.9383 12.0959 12.4878 11.0116 11.6899 10.211L11.0552 9.64083C10.3704 9.19821 9.56716 8.95567 8.73821 8.95189L4.4595 8.95757C3.3968 9.01228 2.38909 9.45697 1.63325 10.2097Z" fill="#00A44C"/>
</svg>
