<svg width="16" height="20" viewBox="0 0 16 20" fill="none" xmlns="http://www.w3.org/2000/svg">
<path d="M8.36762 8.95349H4.29208C3.15534 8.95865 2.06666 9.41076 1.26286 10.2112C0.459054 11.0117 0.00517885 12.0959 0 13.2279V18.1945C0 18.7001 0.409888 19.11 0.915509 19.11C1.42113 19.11 1.83102 18.7001 1.83102 18.1945V14.0044C1.83102 13.738 2.04698 13.5221 2.31338 13.5221C2.57978 13.5221 2.79574 13.738 2.79574 14.0044V17.53C2.79574 18.4026 3.50313 19.11 4.37574 19.11L7.14656 19.0751C6.6545 18.5821 6.2621 17.9938 5.96921 17.3095C5.67643 16.6253 5.53 15.9076 5.53 15.1564C5.53 14.4053 5.67643 13.6887 5.96921 13.0069C6.26202 12.3251 6.65453 11.7377 7.14656 11.2449C7.63856 10.752 8.22662 10.3597 8.9107 10.0678C9.47956 9.82516 10.0709 9.68331 10.6845 9.64241C9.99973 9.19981 9.19655 8.95728 8.36762 8.95349Z" fill="#E80000"/>
<path d="M10.0019 3.83599C10.0058 3.11001 9.79319 2.39921 9.39101 1.79368C8.98883 1.18816 8.41517 0.715213 7.74277 0.434696C7.07037 0.154178 6.32951 0.0788399 5.61403 0.218091C4.89855 0.357341 4.24064 0.704887 3.72377 1.21687C3.2069 1.72885 2.85429 2.38203 2.71062 3.09379C2.56696 3.80555 2.63876 4.54374 2.91683 5.21484C3.19491 5.88595 3.66676 6.45992 4.27264 6.86368C4.87852 7.26743 5.59113 7.48284 6.32015 7.48285C7.29321 7.48287 8.22668 7.09923 8.91658 6.41587C9.60648 5.7325 9.99669 4.80501 10.0019 3.83599Z" fill="#E80000"/>
<path d="M14.6963 13.622C14.4872 13.135 14.2068 12.7155 13.8553 12.3635C13.504 12.0115 13.0838 11.7312 12.5952 11.5227C12.1068 11.3142 11.5949 11.21 11.0601 11.21C10.5252 11.21 10.0134 11.3143 9.52479 11.5227C9.03616 11.7312 8.61611 12.0114 8.26468 12.3635C7.91324 12.7155 7.63287 13.135 7.42373 13.622C7.21459 14.1091 7.11 14.6209 7.11 15.1574C7.11 15.694 7.21459 16.2066 7.42373 16.6953C7.63293 17.1841 7.91322 17.6044 8.26468 17.9565C8.61611 18.3085 9.03616 18.5889 9.52479 18.7972C10.0134 19.0057 10.5252 19.11 11.0601 19.11C11.595 19.11 12.1068 19.0057 12.5952 18.7972C13.0838 18.5887 13.504 18.3085 13.8553 17.9565C14.2068 17.6044 14.4871 17.1841 14.6963 16.6953C14.9055 16.2066 15.01 15.694 15.01 15.1574C15.0099 14.6209 14.9055 14.1091 14.6963 13.622ZM8.71984 16.6902C8.41467 16.2221 8.26209 15.711 8.26216 15.1574C8.26216 14.6516 8.38734 14.1834 8.63764 13.7527C8.88788 13.3221 9.2274 12.982 9.65595 12.7325C10.0845 12.483 10.5526 12.3583 11.0601 12.3583C11.6259 12.3583 12.1401 12.5138 12.6031 12.8248L8.71984 16.6902ZM13.6367 16.2469C13.4892 16.5937 13.2904 16.892 13.0401 17.1415C12.7897 17.391 12.4923 17.5901 12.1477 17.7386C11.8031 17.8872 11.4405 17.9617 11.06 17.9617C10.5114 17.9617 10.0022 17.8096 9.53242 17.5053L13.4105 13.6451C13.7089 14.103 13.8579 14.6072 13.8579 15.1574C13.8578 15.5368 13.7841 15.8999 13.6367 16.2469Z" fill="#E80000"/>
</svg>
