<svg width="26" height="32" viewBox="0 0 26 32" fill="none" xmlns="http://www.w3.org/2000/svg">
<path d="M21.7674 28.3077V24.0578L24.186 21.9237V28.3077C24.186 30.3458 22.5608 32 20.5581 32H3.62791C1.6253 32 0 30.3458 0 28.3077V3.69231C0 1.65416 1.6253 0 3.62791 0H20.5581C22.5608 0 24.186 1.65416 24.186 3.69231V10.0751L21.7674 7.94216V3.69231C21.7674 3.01292 21.2245 2.46154 20.5581 2.46154H3.62791C2.96159 2.46154 2.4186 3.01292 2.4186 3.69231V16V28.3077C2.4186 28.9871 2.96159 29.5385 3.62791 29.5385H20.5581C21.2245 29.5385 21.7674 28.9871 21.7674 28.3077Z" fill="#888888"/>
<path d="M15.7209 22.7692C15.7209 24.3458 16.9302 24 16.9302 24L26 16L16.9302 8C16.9302 8 15.7209 7.53846 15.7209 9.19262V12.3077H8.46512C7.79758 12.3077 7.25581 12.8603 7.25581 13.5385V18.4615C7.25581 19.1397 7.79758 19.6923 8.46512 19.6923H15.7209V22.7692Z" fill="#888888"/>
</svg>
