<svg width="24" height="28" viewBox="0 0 24 28" fill="none" xmlns="http://www.w3.org/2000/svg">
<path d="M12 28C13.5529 28 14.8235 26.74 14.8235 25.2H9.17647C9.17647 26.74 10.4471 28 12 28ZM21.1765 19.6V11.9C21.1765 7.56 18.2118 4.06 14.1176 3.08V2.1C14.1176 0.98 13.1294 0 12 0C10.8706 0 9.88235 0.98 9.88235 2.1V3.08C5.78824 4.06 2.82353 7.56 2.82353 11.9V19.6L0.292378 22.1101C0.105256 22.2956 0 22.5482 0 22.8118C0 23.3576 0.442448 23.8 0.988236 23.8H23.0118C23.5576 23.8 24 23.3576 24 22.8118C24 22.5482 23.8947 22.2956 23.7076 22.1101L21.1765 19.6Z" fill="#888888"/>
</svg>
