<svg width="18" height="26" viewBox="0 0 18 26" fill="none" xmlns="http://www.w3.org/2000/svg">
<path d="M13.7139 5.05399C13.7192 4.05856 13.4277 3.08397 12.8763 2.25371C12.3249 1.42346 11.5383 0.77499 10.6164 0.390363C9.6944 0.00573696 8.67859 -0.0975615 7.69757 0.0933694C6.71655 0.2843 5.81448 0.760832 5.10578 1.46282C4.39707 2.16481 3.9136 3.06042 3.71662 4.03633C3.51964 5.01225 3.61808 6.0244 3.99936 6.94458C4.38064 7.86475 5.02761 8.65174 5.85835 9.20534C6.68909 9.75894 7.66617 10.0543 8.66575 10.0543C9.99994 10.0543 11.2799 9.52832 12.2258 8.59133C13.1717 7.65435 13.7068 6.38263 13.7139 5.05399Z" fill="#00A44C"/>
<path d="M3.62637 5.05464C3.62107 4.05909 3.91042 3.08437 4.45778 2.254C5.00515 1.42364 5.7859 0.77509 6.70103 0.390414C7.61617 0.00573771 8.62447 -0.0975741 9.59824 0.0933814C10.572 0.284337 11.4674 0.76093 12.1709 1.46301C12.8743 2.16509 13.3542 3.06081 13.5498 4.03685C13.7453 5.0129 13.6476 6.02518 13.2691 6.94547C12.8907 7.86577 12.2485 8.65286 11.4239 9.20653C10.5993 9.7602 9.62941 10.0556 8.63722 10.0556C7.31289 10.0556 6.04243 9.52955 5.10348 8.59244C4.16453 7.65533 3.63346 6.38346 3.62637 5.05464Z" fill="#00A44C"/>
<path d="M1.73154 13.7953C0.629423 14.8928 0.00710088 16.3794 0 17.9315V24.7414C0 25.4346 0.56201 25.9966 1.25528 25.9966C1.94856 25.9966 2.51057 25.4346 2.51057 24.7414V18.9962C2.51057 18.631 2.80668 18.3349 3.17194 18.3349C3.53721 18.3349 3.83332 18.631 3.83332 18.9962V23.8303C3.83332 25.0267 4.80325 25.9966 5.99971 25.9966L11.2836 26C12.4712 26 13.4339 25.0299 13.4339 23.8333V18.9987C13.4339 18.6334 13.7279 18.3372 14.0904 18.3372C14.453 18.3372 14.7469 18.6334 14.7469 18.9987V24.7446C14.7469 25.4379 15.3048 26 15.9929 26C16.6811 26 17.2389 25.4379 17.2389 24.7446V17.9339C17.2319 16.3815 16.6142 14.8948 15.5202 13.7971L14.6499 13.0154C13.7109 12.4085 12.6097 12.0759 11.4731 12.0708L5.60659 12.0785C4.14953 12.1536 2.76786 12.7633 1.73154 13.7953Z" fill="#00A44C"/>
</svg>
