<svg width="21" height="32" viewBox="0 0 21 32" fill="none" xmlns="http://www.w3.org/2000/svg">
<path d="M16.7059 6.22029C16.7124 4.99516 16.3573 3.79565 15.6856 2.7738C15.0138 1.75195 14.0557 0.953833 12.9326 0.480447C11.8095 0.00706088 10.572 -0.120076 9.37698 0.114916C8.18193 0.349908 7.08304 0.936408 6.21972 1.8004C5.3564 2.66439 4.76745 3.76666 4.52749 4.96779C4.28753 6.16892 4.40745 7.41465 4.87192 8.54717C5.33638 9.6797 6.1245 10.6483 7.13649 11.3296C8.14848 12.011 9.33872 12.3745 10.5564 12.3745C12.1817 12.3746 13.7408 11.7272 14.8932 10.574C16.0455 9.42074 16.6972 7.85555 16.7059 6.22029Z" fill="#888888"/>
<path d="M4.41755 6.2211C4.41109 4.9958 4.76357 3.79614 5.43035 2.77416C6.09714 1.75217 7.04823 0.953956 8.16302 0.480509C9.27782 0.00706179 10.5061 -0.120091 11.6923 0.114931C12.8785 0.349953 13.9693 0.936529 14.8262 1.80063C15.6832 2.66473 16.2678 3.76715 16.506 4.96844C16.7442 6.16972 16.6251 7.4156 16.1641 8.54827C15.7031 9.68094 14.9208 10.6497 13.9163 11.3311C12.9117 12.0126 11.7303 12.3761 10.5216 12.3761C8.90837 12.3762 7.36073 11.7287 6.21692 10.5753C5.07311 9.42195 4.42618 7.85656 4.41755 6.2211Z" fill="#888888"/>
<path d="M2.10932 16.9788C0.766746 18.3297 0.00865011 20.1592 0 22.0696V30.4509C0 31.3042 0.684625 31.9959 1.52915 31.9959C2.37368 31.9959 3.05831 31.3042 3.05831 30.4509V23.38C3.05831 22.9304 3.41902 22.566 3.86398 22.566C4.30894 22.566 4.66965 22.9304 4.66965 23.38V29.3296C4.66965 30.8021 5.85119 31.9959 7.30869 31.9959L13.7453 32C15.1921 32 16.3649 30.8061 16.3649 29.3333V23.383C16.3649 22.9334 16.7229 22.5689 17.1646 22.5689C17.6063 22.5689 17.9643 22.9334 17.9643 23.383V30.4548C17.9643 31.3082 18.6439 32 19.4821 32C20.3204 32 21 31.3082 21 30.4548V22.0724C20.9914 20.1618 20.2389 18.332 18.9063 16.981L17.8461 16.0189C16.7023 15.272 15.3608 14.8627 13.9762 14.8563L6.82981 14.8659C5.05484 14.9582 3.37173 15.7086 2.10932 16.9788Z" fill="#888888"/>
</svg>
