<svg width="32" height="30" viewBox="0 0 32 30" fill="none" xmlns="http://www.w3.org/2000/svg">
<g filter="url(#filter0_d)">
<path d="M16.2612 3.26355C17.0633 3.29876 17.6736 3.33398 18.0921 3.3692C18.1067 3.3692 18.1212 3.36931 18.1356 3.36953C18.7889 3.37958 19.3475 3.93075 19.3475 4.58415C19.3814 4.9942 19.3824 5.60317 19.3505 6.41107C19.3486 6.46034 19.3333 6.5109 19.318 6.55777C19.2892 6.64598 19.3403 6.73663 19.3467 6.82921C19.3472 6.83771 19.3475 6.84651 19.3475 6.85559C19.3475 7.45427 19.365 7.89447 19.3998 8.1762C19.4347 8.45793 19.5219 8.65162 19.6614 8.75727C19.8358 8.86292 20.0624 8.91574 20.3414 8.91574C20.6553 8.88052 21.1087 8.86292 21.7015 8.86292H23.8986C24.4914 8.86292 24.7879 9.16225 24.7879 9.76093C24.7879 11.0639 24.8402 12.3141 24.9448 13.5114C24.9797 14.1453 24.7181 14.4623 24.1601 14.4623C23.5673 14.4975 22.9919 14.5151 22.4339 14.5151C21.9108 14.5151 21.3702 14.5327 20.8122 14.5679C20.324 14.5679 20.0276 14.6208 19.9229 14.7264C19.8183 14.8321 19.7486 15.1314 19.7137 15.6244C19.6788 16.047 19.6614 16.54 19.6614 17.1035C19.6614 17.6317 19.6614 18.1072 19.6614 18.5298C19.6614 19.3749 19.3475 19.7095 18.7198 19.5334C18.1269 19.3925 17.5341 19.3397 16.9412 19.3749C16.3832 19.4102 15.8078 19.4454 15.215 19.4806C14.6221 19.5158 14.2385 19.4278 14.0641 19.2165C13.8897 19.0052 13.7851 18.5826 13.7502 17.9487C13.7154 17.5613 13.6979 17.1035 13.6979 16.5753C13.6979 16.047 13.6979 15.5892 13.6979 15.2018C13.6631 14.5327 13.3143 14.1982 12.6517 14.1982C12.3727 14.2334 12.0937 14.251 11.8147 14.251C11.5357 14.251 11.2567 14.251 10.9778 14.251C10.7336 14.251 10.507 14.2686 10.2977 14.3038C10.0885 14.339 9.87922 14.339 9.66998 14.3038C9.18174 14.2686 8.79813 14.2334 8.51914 14.1982C8.24015 14.1629 8.01347 14.0925 7.8391 13.9869C7.66473 13.846 7.54266 13.6347 7.47292 13.353C7.43804 13.0712 7.42061 12.631 7.42061 12.0324C7.42061 11.6802 7.38573 11.3457 7.31598 11.0287C7.28111 10.7118 7.26367 10.3772 7.26367 10.025C7.29855 9.60245 7.38573 9.32073 7.52523 9.17986C7.66472 9.00378 7.96115 8.89813 8.41452 8.86292C8.93763 8.8277 9.46074 8.8277 9.98385 8.86292C10.507 8.89813 11.0301 8.91574 11.5532 8.91574C12.0763 8.91574 12.4773 8.89813 12.7563 8.86292C13.0702 8.8277 13.2794 8.75727 13.3841 8.65162C13.5236 8.51075 13.5933 8.29946 13.5933 8.01773C13.6282 7.70078 13.6456 7.27819 13.6456 6.74995C13.6107 6.25692 13.5759 5.81672 13.541 5.42934C13.541 5.00675 13.5236 4.54894 13.4887 4.05591C13.4887 3.45724 13.8026 3.1579 14.4303 3.1579C14.7442 3.1579 15.058 3.17551 15.3719 3.21072C15.6858 3.21072 15.9822 3.22833 16.2612 3.26355Z" fill="white"/>
<path d="M16.2612 3.26355C17.0633 3.29876 17.6736 3.33398 18.0921 3.3692C18.1067 3.3692 18.1212 3.36931 18.1356 3.36953C18.7889 3.37958 19.3475 3.93075 19.3475 4.58415C19.3814 4.9942 19.3824 5.60317 19.3505 6.41107C19.3486 6.46034 19.3333 6.5109 19.318 6.55777C19.2892 6.64598 19.3403 6.73663 19.3467 6.82921C19.3472 6.83771 19.3475 6.84651 19.3475 6.85559C19.3475 7.45427 19.365 7.89447 19.3998 8.1762C19.4347 8.45793 19.5219 8.65162 19.6614 8.75727C19.8358 8.86292 20.0624 8.91574 20.3414 8.91574C20.6553 8.88052 21.1087 8.86292 21.7015 8.86292H23.8986C24.4914 8.86292 24.7879 9.16225 24.7879 9.76093C24.7879 11.0639 24.8402 12.3141 24.9448 13.5114C24.9797 14.1453 24.7181 14.4623 24.1601 14.4623C23.5673 14.4975 22.9919 14.5151 22.4339 14.5151C21.9108 14.5151 21.3702 14.5327 20.8122 14.5679C20.324 14.5679 20.0276 14.6208 19.9229 14.7264C19.8183 14.8321 19.7486 15.1314 19.7137 15.6244C19.6788 16.047 19.6614 16.54 19.6614 17.1035C19.6614 17.6317 19.6614 18.1072 19.6614 18.5298C19.6614 19.3749 19.3475 19.7095 18.7198 19.5334C18.1269 19.3925 17.5341 19.3397 16.9412 19.3749C16.3832 19.4102 15.8078 19.4454 15.215 19.4806C14.6221 19.5158 14.2385 19.4278 14.0641 19.2165C13.8897 19.0052 13.7851 18.5826 13.7502 17.9487C13.7154 17.5613 13.6979 17.1035 13.6979 16.5753C13.6979 16.047 13.6979 15.5892 13.6979 15.2018C13.6631 14.5327 13.3143 14.1982 12.6517 14.1982C12.3727 14.2334 12.0937 14.251 11.8147 14.251C11.5357 14.251 11.2567 14.251 10.9778 14.251C10.7336 14.251 10.507 14.2686 10.2977 14.3038C10.0885 14.339 9.87922 14.339 9.66998 14.3038C9.18174 14.2686 8.79813 14.2334 8.51914 14.1982C8.24015 14.1629 8.01347 14.0925 7.8391 13.9869C7.66473 13.846 7.54266 13.6347 7.47292 13.353C7.43804 13.0712 7.42061 12.631 7.42061 12.0324C7.42061 11.6802 7.38573 11.3457 7.31598 11.0287C7.28111 10.7118 7.26367 10.3772 7.26367 10.025C7.29855 9.60245 7.38573 9.32073 7.52523 9.17986C7.66472 9.00378 7.96115 8.89813 8.41452 8.86292C8.93763 8.8277 9.46074 8.8277 9.98385 8.86292C10.507 8.89813 11.0301 8.91574 11.5532 8.91574C12.0763 8.91574 12.4773 8.89813 12.7563 8.86292C13.0702 8.8277 13.2794 8.75727 13.3841 8.65162C13.5236 8.51075 13.5933 8.29946 13.5933 8.01773C13.6282 7.70078 13.6456 7.27819 13.6456 6.74995C13.6107 6.25692 13.5759 5.81672 13.541 5.42934C13.541 5.00675 13.5236 4.54894 13.4887 4.05591C13.4887 3.45724 13.8026 3.1579 14.4303 3.1579C14.7442 3.1579 15.058 3.17551 15.3719 3.21072C15.6858 3.21072 15.9822 3.22833 16.2612 3.26355Z" fill="url(#paint0_linear)"/>
</g>
<defs>
<filter id="filter0_d" x="0.947883" y="0.631582" width="30.3158" height="29.0526" filterUnits="userSpaceOnUse" color-interpolation-filters="sRGB">
<feFlood flood-opacity="0" result="BackgroundImageFix"/>
<feColorMatrix in="SourceAlpha" type="matrix" values="0 0 0 0 0 0 0 0 0 0 0 0 0 0 0 0 0 0 127 0" result="hardAlpha"/>
<feOffset dy="3.78947"/>
<feGaussianBlur stdDeviation="3.15789"/>
<feColorMatrix type="matrix" values="0 0 0 0 0 0 0 0 0 0 0 0 0 0 0 0 0 0 0.15 0"/>
<feBlend mode="normal" in2="BackgroundImageFix" result="effect1_dropShadow"/>
<feBlend mode="normal" in="SourceGraphic" in2="effect1_dropShadow" result="shape"/>
</filter>
<linearGradient id="paint0_linear" x1="16.1058" y1="3.1579" x2="16.1058" y2="19.579" gradientUnits="userSpaceOnUse">
<stop offset="0.494792" stop-color="white"/>
<stop offset="1" stop-color="#CFE2D1"/>
</linearGradient>
</defs>
</svg>
