<svg width="37" height="37" viewBox="0 0 37 37" fill="none" xmlns="http://www.w3.org/2000/svg">
<ellipse cx="18.789" cy="18.04" rx="18.009" ry="18" fill="#888888"/>
<path d="M19.442 7.17981C20.7531 7.17981 21.8624 7.42185 22.7701 7.90593C23.6979 8.39001 24.3938 9.03546 24.8577 9.84226C25.3216 10.6289 25.5535 11.4861 25.5535 12.4139C25.5535 13.1804 25.4325 13.846 25.1905 14.4108C24.9686 14.9554 24.6963 15.4092 24.3736 15.7723C24.071 16.1353 23.6475 16.5488 23.1029 17.0127C22.4373 17.5775 21.9431 18.0918 21.6204 18.5557C21.2977 18.9995 21.1363 19.5844 21.1363 20.3105V20.7644H16.0837V20.129C16.0837 19.1608 16.1946 18.354 16.4165 17.7086C16.6384 17.0631 16.9006 16.5589 17.2031 16.1958C17.5057 15.8328 17.8889 15.4495 18.3528 15.0461C18.8167 14.6427 19.1495 14.2898 19.3512 13.9872C19.5731 13.6645 19.6841 13.2611 19.6841 12.777C19.6841 12.0307 19.3311 11.6576 18.6251 11.6576C17.8788 11.6576 17.072 12.1517 16.2047 13.1401L12.8464 10.5381C14.4802 8.29925 16.6787 7.17981 19.442 7.17981ZM18.6251 23.3663C19.4924 23.3663 20.1984 23.6688 20.743 24.2739C21.3077 24.879 21.5901 25.5951 21.5901 26.4221C21.5901 27.249 21.3077 27.9651 20.743 28.5702C20.1984 29.1551 19.4924 29.4476 18.6251 29.4476C17.7578 29.4476 17.0418 29.1551 16.477 28.5702C15.9324 27.9651 15.6601 27.249 15.6601 26.4221C15.6601 25.5951 15.9324 24.879 16.477 24.2739C17.0418 23.6688 17.7578 23.3663 18.6251 23.3663Z" fill="#333333"/>
</svg>
