<svg width="32" height="32" viewBox="0 0 32 32" fill="none" xmlns="http://www.w3.org/2000/svg">
<path d="M32 15.9896C31.9808 13.4184 31.3634 10.8873 30.1969 8.59858L24.6218 12.0546C25.18 13.2907 25.4697 14.6322 25.4715 15.9896C25.4828 18.3097 24.6443 20.553 23.1155 22.2922C21.5868 24.0314 19.4747 25.1451 17.1814 25.421L17.1814 32C21.2062 31.7007 24.9696 29.8845 27.7177 26.9154C30.4657 23.9463 31.9953 20.0437 32 15.9896Z" fill="white"/>
<path d="M1.39968e-06 15.9896C0.00869283 20.0357 1.53415 23.93 4.27261 26.897C7.01107 29.864 10.7616 31.686 14.7771 32L14.7771 25.421C12.5018 25.1166 10.414 23.9924 8.90181 22.2576C7.38964 20.5228 6.55607 18.2954 6.55607 15.9896C6.55607 13.6837 7.38964 11.4563 8.90181 9.72153C10.414 7.98675 12.5018 6.8627 14.7771 6.55828L14.7771 -1.50567e-06C10.7651 0.313751 7.01758 2.13281 4.27963 5.09541C1.54168 8.058 0.013893 11.9471 1.39968e-06 15.9896Z" fill="white"/>
<path d="M17.2021 -1.29367e-06L17.2021 6.579C19.6381 6.87566 21.8658 8.10651 23.4197 10.0143L28.8705 6.53744C27.5123 4.66444 25.7657 3.1099 23.7511 1.98121C21.7365 0.852511 19.5021 0.176524 17.2021 -1.29367e-06Z" fill="white"/>
</svg>
