<svg width="28" height="36" viewBox="0 0 28 36" fill="none" xmlns="http://www.w3.org/2000/svg">
<path fill-rule="evenodd" clip-rule="evenodd" d="M22.4 1.72039V31.1524C22.4 31.2564 22.3772 31.3592 22.3329 31.4553C22.2886 31.5513 22.224 31.6386 22.1421 31.7121C22.0603 31.7856 21.9632 31.8439 21.8562 31.8837C21.7493 31.9235 21.6346 31.944 21.5188 31.944H0.881488C0.765773 31.944 0.650987 31.9235 0.544081 31.8837C0.437174 31.8439 0.340013 31.7856 0.25819 31.7121C0.176367 31.6386 0.111689 31.5513 0.0674073 31.4553C0.0231251 31.3592 0.000322041 31.2564 0.000322041 31.1524V1.72039C-0.00287386 1.61567 0.0177459 1.51158 0.0608969 1.41426C0.104048 1.31693 0.168645 1.22847 0.251113 1.1544C0.333582 1.08032 0.432049 1.02204 0.540401 0.983276C0.648753 0.944515 0.764904 0.925992 0.881488 0.928863H21.5188C21.6346 0.928863 21.7493 0.949346 21.8562 0.989124C21.9632 1.0289 22.0603 1.08725 22.1421 1.16075C22.224 1.23425 22.2886 1.32153 22.3329 1.41756C22.3772 1.51359 22.4 1.61645 22.4 1.72039ZM27.7418 4.60646C27.9071 4.7548 28 4.95595 28 5.16573V34.5991C28 34.8089 27.9071 35.01 27.7418 35.1584C27.5766 35.3067 27.3525 35.3901 27.1188 35.3901H6.48117C6.24747 35.3901 6.0234 35.3067 5.85815 35.1584C5.6929 35.01 5.6 34.8089 5.6 34.5991V32.9963H21.1361C21.7511 32.9963 22.341 32.7771 22.7758 32.3867C23.2107 31.9963 23.4549 31.4668 23.4549 30.9147V4.37473H27.1188C27.3525 4.37473 27.5766 4.45812 27.7418 4.60646ZM15.8019 9.84986C16.9046 6.88739 11.2448 5.11435 10.9877 8.86374C9.83622 8.69607 8.73532 8.56728 10.8096 9.86144C10.8576 13.7765 12.2256 14.1669 12.2336 14.1692L12.2337 14.1692C12.2337 14.1692 9.50364 16.6382 9.20743 16.8445C9.16282 16.8758 9.04075 16.5695 9.07393 16.4818C9.43725 16.3293 9.421 16.2998 9.30884 16.0963C9.30483 16.089 9.3007 16.0815 9.29645 16.0737C9.24271 15.9757 9.22993 15.9215 9.20081 15.9105C9.16398 15.8965 9.10101 15.9515 8.89598 16.0737C8.82943 16.1142 7.84327 13.9849 6.77366 11.6755C5.64296 9.23416 4.41901 6.59148 4.08961 6.09779C3.91547 6.11794 3.83889 6.2273 3.78349 6.30641C3.7655 6.33211 3.74974 6.35461 3.7336 6.36982C3.5828 6.51203 3.94065 7.00277 4.04515 6.95929C4.12604 6.99555 4.16296 7.10953 4.20424 7.23694C4.22298 7.29478 4.24261 7.35538 4.26766 7.41274C4.20604 7.45299 4.13195 7.48528 4.0586 7.51726C3.94854 7.56524 3.84016 7.61249 3.77811 7.68477C3.58871 7.90543 3.73994 8.27854 3.90736 8.69163C3.97196 8.851 4.03896 9.01632 4.08975 9.18113C4.08975 9.18113 3.38519 9.43773 4.13426 9.72519C4.19719 9.74939 4.31227 9.63448 4.31227 9.63448C4.31227 9.63448 5.40741 12.4735 5.7364 12.8086C5.75547 12.8081 5.80542 12.7922 5.86664 12.7727C6.0015 12.7297 6.19108 12.6692 6.2259 12.718C6.46734 13.0544 6.67094 13.7155 6.67094 13.7155C6.67094 13.7155 6.92563 13.7041 7.07141 13.6249C7.11038 13.6037 7.11635 13.6254 7.12421 13.6541C7.13015 13.6759 7.13718 13.7015 7.16039 13.7155C7.25037 13.7698 5.94759 14.3261 4.87343 14.7847C4.16259 15.0883 3.55186 15.349 3.51113 15.3933C3.40885 15.5044 4.0451 16.4362 4.0451 16.4362C4.0451 16.4362 5.81042 15.4662 5.91427 15.6201C6.08339 15.8708 6.61077 16.7903 6.49279 17.3885C6.1801 17.5304 5.41174 18.1192 5.46923 18.2954C4.7713 18.2127 5.60272 19.0663 5.60272 19.0663L8.18382 24.6435C8.18382 24.6435 8.2728 26.3684 8.2728 26.7747C10.1071 26.588 10.8598 26.3932 11.032 26.1399C11.032 25.9324 10.9796 25.6448 10.854 25.233C11.1223 25.1287 11.4136 24.4177 11.121 23.9634C16.0247 26.342 18.6874 20.5178 19.1762 18.0685C19.5715 16.0872 18.2729 15.3417 17.791 15.0651C17.6809 15.0019 17.6135 14.9632 17.6185 14.9398C17.6209 14.6772 17.2372 14.4515 16.8287 14.2113C16.5659 14.0567 16.2927 13.896 16.1054 13.7156C16.0418 13.494 15.9219 13.2935 15.7578 13.1342C15.5937 12.975 15.3913 12.8627 15.171 12.8087C15.1734 12.4103 15.2308 12.0142 15.3416 11.6321C16.2159 11.4765 17.2139 11.0593 15.8019 9.84986ZM6.93778 15.8015C6.93778 15.5881 6.83582 15.4152 6.6708 15.348C6.6068 15.322 6.55771 15.4198 6.51264 15.5096C6.49063 15.5535 6.46959 15.5954 6.44823 15.6201C6.41782 15.6553 6.39819 15.6297 6.373 15.5968C6.34876 15.5651 6.31936 15.5267 6.27023 15.5294C6.0508 15.5415 6.35194 16.1137 6.54872 16.1137C6.74551 16.1137 6.93778 16.0149 6.93778 15.8015ZM7.02681 16.3456C7.02681 16.2705 6.94404 16.207 6.80429 16.2549H6.80434C6.70758 16.2881 6.64202 16.2692 6.55819 16.2451C6.51417 16.2325 6.4651 16.2184 6.40381 16.2096C6.40381 16.2847 6.65681 16.527 6.80429 16.527C6.95178 16.527 7.02681 16.4208 7.02681 16.3456Z" fill="white"/>
</svg>
