<svg width="20" height="20" viewBox="0 0 20 20" fill="none" xmlns="http://www.w3.org/2000/svg">
<path d="M10.2593 19.4815C8.38357 19.4815 6.55001 18.9251 4.99054 17.8827C3.43106 16.8404 2.21575 15.3589 1.49847 13.6257C0.781182 11.8924 0.594076 9.98548 0.960874 8.14593C1.32767 6.30638 2.23192 4.61694 3.5591 3.2914C4.88629 1.96586 6.57678 1.06378 8.41678 0.699261C10.2568 0.334741 12.1636 0.524155 13.8959 1.24359C15.6282 1.96302 17.1082 3.18012 18.1486 4.74088C19.1891 6.30165 19.7432 8.13592 19.7409 10.0117C19.7377 12.5243 18.7374 14.933 16.9596 16.7085C15.1818 18.4841 12.7719 19.4815 10.2593 19.4815ZM10.7874 8.45104V3.47558C10.7874 3.18395 10.551 2.94754 10.2594 2.94754C9.96774 2.94754 9.73133 3.18395 9.73133 3.47558V8.45104C9.49124 8.53189 9.27311 8.66711 9.09397 8.84625C8.91483 9.02539 8.77954 9.24359 8.69869 9.48369H5.3191C5.02748 9.48369 4.79107 9.72009 4.79107 10.0117C4.79107 10.3033 5.02748 10.5398 5.3191 10.5398H8.6752C8.7635 10.8082 8.9191 11.0495 9.12713 11.2408C9.33516 11.432 9.58872 11.5668 9.86362 11.6323C10.1385 11.6977 10.4256 11.6917 10.6975 11.6148C10.9694 11.5378 11.2171 11.3925 11.4169 11.1927C11.6167 10.9928 11.762 10.7452 11.839 10.4733C11.9159 10.2014 11.922 9.91429 11.8565 9.63939C11.791 9.3645 11.6562 9.11094 11.4649 8.9029C11.2737 8.69487 11.0324 8.53935 10.764 8.45104H10.7874Z" fill="#888888"/>
</svg>
