<svg width="49" height="49" viewBox="0 0 49 49" fill="none" xmlns="http://www.w3.org/2000/svg">
<path d="M48.9537 24.3505C48.979 23.6321 48.4035 23.036 47.6847 23.036H43.0389C42.6826 18.5439 40.7076 14.3352 37.4826 11.1959C34.2576 8.05649 30.0031 6.20089 25.5134 5.9756V1.22202C25.5134 0.547116 24.9663 0 24.2914 0V0C23.6164 0 23.0693 0.547117 23.0693 1.22202V5.9756C18.587 6.29651 14.3757 8.24635 11.2257 11.459C8.07574 14.6717 6.20374 18.9263 5.96107 23.4244L1.22492 23.4244C0.548414 23.4244 0 23.9728 0 24.6494V24.6494C0 25.3259 0.548415 25.8743 1.22492 25.8743L5.96107 25.8743C6.29982 30.3608 8.25075 34.5718 11.4518 37.7257C14.6529 40.8796 18.8866 42.7624 23.3674 43.0244V47.778C23.3674 48.4529 23.9145 49 24.5894 49V49C25.2643 49 25.8114 48.4529 25.8114 47.778V43.0244C30.2901 42.6856 34.4945 40.7308 37.6456 37.5226C40.7967 34.3143 42.6811 30.0699 42.9495 25.5756H47.6847C48.3686 25.5756 48.9296 25.0339 48.9537 24.3505V24.3505ZM25.8114 40.4847V34.0878C25.8114 33.4129 25.2643 32.8658 24.5894 32.8658V32.8658C23.9145 32.8658 23.3674 33.4129 23.3674 34.0878V40.4847C19.5442 40.2144 15.9426 38.5854 13.2107 35.8906C10.4788 33.1959 8.79591 29.6124 8.46472 25.7847L14.8401 25.7847C15.5166 25.7847 16.0651 25.2363 16.0651 24.5597V24.5597C16.0651 23.8832 15.5166 23.3347 14.8401 23.3347L8.40511 23.3347C8.66873 19.5001 10.2918 15.8865 12.9812 13.1468C15.6706 10.407 19.2488 8.72178 23.0693 8.39571V14.7626C23.0693 15.4375 23.6164 15.9847 24.2914 15.9847V15.9847C24.9663 15.9847 25.5134 15.4375 25.5134 14.7626V8.3658C29.3392 8.64292 32.9411 10.2782 35.6725 12.9779C38.4039 15.6776 40.0857 19.2648 40.416 23.0956H34.1003C33.4237 23.0956 32.8753 23.6441 32.8753 24.3206V24.3206C32.8753 24.9972 33.4237 25.5457 34.1003 25.5457H40.5055C40.229 29.3808 38.5978 32.9916 35.9047 35.7296C33.2116 38.4676 29.633 40.1535 25.8114 40.4847Z" fill="url(#paint0_linear)"/>
<defs>
<linearGradient id="paint0_linear" x1="1.36111" y1="56.7368" x2="44.2869" y2="-9.89626" gradientUnits="userSpaceOnUse">
<stop offset="0.291667" stop-color="white"/>
<stop offset="0.510417" stop-color="#555555"/>
<stop offset="0.734375" stop-color="white"/>
</linearGradient>
</defs>
</svg>
