<svg id="eYkmjLJnICN1" xmlns="http://www.w3.org/2000/svg" xmlns:xlink="http://www.w3.org/1999/xlink" viewBox="0 0 280 252" shape-rendering="geometricPrecision" text-rendering="geometricPrecision"><style><![CDATA[#eYkmjLJnICN3_ts {animation: eYkmjLJnICN3_ts__ts 3000ms linear infinite normal forwards}@keyframes eYkmjLJnICN3_ts__ts { 0% {transform: translate(139.977123px,65.526613px) scale(0.227731,0.265879)} 33.333333% {transform: translate(139.977123px,65.526613px) scale(0.227731,0.448271)} 100% {transform: translate(139.977123px,65.526613px) scale(0.227731,0.651063)}}]]></style><g id="eYkmjLJnICN2"><g id="eYkmjLJnICN3_ts" transform="translate(139.977123,65.526613) scale(0.227731,0.265879)"><path id="eYkmjLJnICN3" d="M295.004,0.213577L14.2097,0.213584C14.2097,0.213584,-21.0586,3.6414,21.8047,261.507C36.5315,350.103,36.7005,342.592,32.2725,405.47C28.0135,465.948,86.075,459.731,80.8252,411.432C72.3072,333.067,56.4877,287.707,93.6022,270.033C111.49,261.515,107.231,263.219,128.526,267.478C155.404,272.853,159.895,290.703,154.08,329.659C145.562,386.73,204.442,376.412,194.115,330.511C186.449,296.439,187.25,274.931,214.558,261.515C228.205,254.811,239.116,259.544,246.927,272.589C272.235,314.862,254.593,406.322,248.63,459.133C243.278,506.541,301.442,502.575,294.628,458.282C288.47,418.258,282.702,337.326,295.004,250.534C330.133,2.69077,295.004,0.213577,295.004,0.213577Z" transform="translate(-155.590567,-246.666336)" fill="rgb(255,0,0)" stroke="none" stroke-width="1"/></g></g></svg>