<svg width="64" height="64" xmlns="http://www.w3.org/2000/svg" fill="none">
 <g>
  <title>Layer 1</title>


  <g stroke="null" id="svg_35">
   <g stroke="null" id="svg_34">
    <title stroke="null">Layer 1</title>
    <defs stroke="null" transform="translate(0 -9.53674e-7) translate(-2.54854 0) translate(0.242718 0) translate(0 -0.699006) translate(5.58251 0) translate(3 0) translate(0 -17.301) translate(9.83403 64.699) scale(0.748149 0.748149) translate(-9.83403 -64.699) translate(20.6062 85.5444) scale(0.985364 0.985364) translate(-20.6062 -85.5444) translate(21.2416 86.815) scale(1.15596 1.15596) translate(-21.2416 -86.815)">
     <linearGradient stroke="null" y2="1" x2="0.5" y1="0" x1="0.5" id="svg_32">
      <stop stroke="null" offset="0.48438"/>
      <stop stroke="null" stop-color="#111111" offset="1"/>
     </linearGradient>
    </defs>
    <g stroke="null" id="svg_29">
     <g stroke="null" id="svg_30">
      <title stroke="null">Layer 1</title>
      <path stroke="null" id="svg_31" fill="url(#svg_32)" d="m50.86886,54.93286l-0.03238,2.68776c-0.16191,0.12953 -0.35621,0.25906 -0.5505,0.38859c-0.25906,0.16191 -0.51812,0.35621 -0.7448,0.51812c-5.14884,3.46494 -11.33392,5.47267 -18.00475,5.47267c-6.41176,0 -12.40253,-1.87819 -17.42184,-5.08407c-0.16191,-0.09715 -0.32383,-0.22668 -0.48574,-0.32383c-0.06477,-0.03238 -0.09715,-0.06477 -0.16191,-0.09715c-0.09715,-0.06477 -0.22668,-0.16191 -0.32383,-0.22668l-0.03238,-3.33541c0,-4.33927 0.09715,-4.24213 1.19816,-5.63458c1.06863,-1.36007 3.82115,-2.78491 5.05169,-3.46494c3.91828,-2.20202 6.21745,-2.59061 8.03088,-4.56595c0.48574,-0.5505 0.35621,-1.6839 0.51812,-2.59061c0.12953,-0.64765 -2.36393,-2.10487 -2.65538,-2.78491c-0.90671,-1.19816 -1.26292,-2.16964 -1.39245,-4.04783c-0.38859,0.38859 -1.61913,-0.38859 -1.71628,-1.52198c-0.12953,-1.23054 -0.7448,-1.97534 -0.97146,-3.20588c-0.1943,-1.06863 -0.51812,-2.10487 0.29143,-1.97534c-1.78103,-1.58675 -1.81341,-6.21747 -0.87431,-9.06715c0.61527,-1.81343 1.78103,-3.14112 3.56207,-4.63072c0.38859,-0.32383 0.9391,-1.19816 1.39245,-1.45722c0.9391,-0.5505 1.32769,-0.32383 2.49346,-0.5505c1.23054,-0.22668 1.4896,-1.16577 3.9183,-1.16577c2.4287,0 2.68776,0.97148 3.9183,1.16577c1.13339,0.1943 1.39245,0.90671 2.33155,1.45722c0.45336,0.25906 1.29531,0.77718 1.65151,1.10101c1.81343,1.52198 2.62299,2.33155 3.20588,4.14498c0.58289,1.74867 0.5505,3.10874 0.29144,5.0517c-0.16191,1.26292 -0.51812,3.30303 -0.9391,3.98306c0.80957,-0.12953 0.48574,0.87433 0.29144,1.97534c-0.22668,1.23054 -0.77718,1.97534 -0.97148,3.20588c-0.16191,1.00386 -1.32769,1.91058 -1.71628,1.52198c-0.16191,1.81343 -0.64765,2.84967 -1.39245,4.04783c-0.29144,0.71242 -2.68776,2.13725 -2.59061,2.78491c0.16191,0.87433 0,2.04011 0.51812,2.59061c1.81343,1.97534 4.43642,2.46108 8.35472,4.63072c1.23054,0.68004 4.11259,2.20202 4.88978,3.62686c1.32769,2.39632 1.06863,3.36779 1.06863,5.37552z"/>
     </g>
    </g>
   </g>
  </g>
 </g>
</svg>