<svg width="17" height="19" viewBox="0 0 17 19" fill="none" xmlns="http://www.w3.org/2000/svg">
<g filter="url(#filter0_d)">
<path d="M7.43613 4.82505C7.56879 4.69397 7.56244 4.47789 7.42231 4.35483C6.37279 3.4332 5.29843 2.57697 4.25719 1.82429C4.03257 1.66191 4.01451 1.3323 4.22278 1.14941C4.38432 1.00756 4.62605 1.00766 4.78747 1.14965L10.5997 6.26236C10.7285 6.37568 10.9217 6.37476 11.0494 6.26022C11.2005 6.12476 11.1994 5.8878 11.047 5.7538L5.16514 0.580427C4.78772 0.248466 4.22254 0.248245 3.84486 0.579911L0.230336 3.75404C0.103611 3.86533 0.0923248 4.05874 0.205245 4.18401C1.23162 5.29404 2.44165 6.47048 3.73812 7.61846C3.88649 7.74872 4.10845 7.7487 4.2568 7.61843L7.42231 4.8387L7.43613 4.82505Z" fill="white"/>
<path d="M16.664 16.8025C16.8419 16.6625 16.8558 16.3979 16.6935 16.24L16.2321 15.7914C16.0711 15.6348 16.0319 15.3969 16.0326 15.1723C16.0326 14.1681 15.0652 12.8124 13.6413 11.0752C11.9598 9.09986 10.1446 7.22497 8.20648 5.46172C8.05756 5.32987 7.83368 5.32987 7.68476 5.46172L4.49998 8.41401C4.36431 8.53935 4.36201 8.753 4.49495 8.88123L4.49998 8.88608C6.40504 10.6763 8.43085 12.3533 10.5652 13.9071C12.4565 15.2126 13.9565 16.0862 15 16.1163C15.2458 16.1156 15.5027 16.1589 15.6833 16.3257L16.1785 16.7833C16.3136 16.9081 16.5194 16.9163 16.664 16.8025Z" fill="white"/>
</g>
<defs>
<filter id="filter0_d" x="0.127441" y="0.331299" width="16.6794" height="18.5514" filterUnits="userSpaceOnUse" color-interpolation-filters="sRGB">
<feFlood flood-opacity="0" result="BackgroundImageFix"/>
<feColorMatrix in="SourceAlpha" type="matrix" values="0 0 0 0 0 0 0 0 0 0 0 0 0 0 0 0 0 0 127 0"/>
<feOffset dy="2"/>
<feColorMatrix type="matrix" values="0 0 0 0 0 0 0 0 0 0 0 0 0 0 0 0 0 0 0.25 0"/>
<feBlend mode="normal" in2="BackgroundImageFix" result="effect1_dropShadow"/>
<feBlend mode="normal" in="SourceGraphic" in2="effect1_dropShadow" result="shape"/>
</filter>
</defs>
</svg>
