<svg width="64" height="64" xmlns="http://www.w3.org/2000/svg" fill="none">
 <g>
  <title>Layer 1</title>


  <g stroke="null" id="svg_48">
   <g stroke="null" id="svg_47">
    <title stroke="null">Layer 1</title>
    <defs stroke="null" transform="translate(-3.15533 0) translate(0 8.52992) translate(9.53674e-7 0) translate(0 -8.52994) translate(15.2357 64) scale(1.18822 1.18822) translate(-15.2357 -64)">
     <linearGradient stroke="null" id="svg_45" x1="0.5" y1="0" x2="0.5" y2="1">
      <stop stroke="null" offset="0.48438"/>
      <stop stroke="null" offset="1" stop-color="#111111"/>
     </linearGradient>
    </defs>
    <g stroke="null" id="svg_42">
     <g stroke="null" id="svg_43">
      <title stroke="null">Layer 1</title>
      <path stroke="null" d="m51.74348,54.75973c-0.14244,-1.85509 -0.92613,-4.63782 -2.67162,-5.49411c-1.10417,-0.53509 -2.31529,-0.96323 -3.66894,-1.42704c0.07127,-0.46373 -0.10686,-1.14162 -0.39185,-1.71247c0.49871,-0.35669 0.9618,-0.67779 1.10426,-1.96213c0.17813,-1.74815 0,-2.64003 -0.71242,-3.4963c0.67682,-0.71348 1.03299,-1.74815 1.03299,-2.8541c0,-1.21297 -0.14244,-2.28324 -0.89045,-3.24655c0.42744,-0.67779 0.78359,-1.67679 0.71242,-2.78273c-0.07127,-1.42704 -0.64123,-2.46163 -1.17553,-3.03248c0.49871,-1.53407 -1.06867,-2.49731 -0.89053,-4.28113c0.07127,-0.89186 0.10686,-1.64111 0.07127,-2.96113c-0.03559,-1.53407 0.17813,-2.24756 -0.60556,-4.1741c-0.74809,-1.89082 -1.35365,-3.31786 -2.84967,-4.74491c-0.85495,-1.14164 -3.13465,-3.4606 -4.31017,-3.63897c-0.92613,-0.53514 -3.2415,-0.64217 -4.38144,-0.71352c-1.13986,-0.03568 -2.63595,-0.03568 -3.56207,0.49947c-1.21111,0.17838 -2.49351,0.92758 -3.38395,2.03355c-2.27978,1.24866 -3.91834,4.17411 -4.66639,6.02927c-0.74804,1.9265 -0.96177,3.06812 -0.99739,4.6022c-0.03561,1.32 0.42746,2.49739 0.39184,3.56766c-0.03561,0.92755 -0.96177,1.78382 -0.67678,3.28224c-0.53432,0.53509 -1.06865,1.67679 -1.1755,2.88977c-0.10686,1.03458 0.17811,2.06916 0.64119,2.78273c-0.56994,0.96323 -0.96178,1.89077 -0.96178,3.06817c0,1.10593 0.46307,2.17621 1.03301,2.99681c-0.78366,1.24865 -1.1755,2.39028 -0.92616,3.71028c0.28497,1.35568 0.74805,2.24756 1.3536,2.71138c-0.21372,0.39246 -0.39184,0.92764 -0.42746,1.42704c-1.3536,0.42814 -2.56471,0.89196 -3.63334,1.39137c-1.74543,0.85628 -2.5291,3.63902 -2.67159,5.4942c-0.10687,1.42704 -0.30189,1.68724 -0.37314,3.07861c5.75191,3.98394 12.42403,6.19723 19.47701,6.19723c7.69413,0 14.52046,-2.50147 20.36233,-6.63989c-0.14254,-0.78483 -0.06932,-1.53001 -0.17618,-2.60035l-0.00001,-0.00001l0,-0.00002zm-24.93474,-10.31032c-0.28498,0.67779 -1.4961,1.35568 -3.31277,1.96213c-0.14244,-0.39246 -0.35617,-0.71348 -0.56998,-0.9989c0.78368,-0.9989 0.9618,-1.99789 0.85495,-3.10385c-0.10686,-0.9989 -0.60556,-1.71247 -1.17553,-2.60435c0.39185,-0.28542 0.89053,-2.53299 0.9618,-3.53199c0.60556,1.03468 1.60295,1.60544 2.38656,2.64003c0.9618,0.92764 1.2468,2.17629 1.28238,3.03248c0,0.85628 0.03559,1.56975 -0.42744,2.60443l0.00001,0l0.00001,0.00001zm13.46472,-2.85418c0.07127,1.42704 0.42752,1.92654 0.81928,2.49739c-0.46302,0.60644 -0.85486,1.39137 -0.89045,2.17621c-1.60295,-0.53509 -2.67162,-1.1773 -2.92093,-1.81942c-0.42752,-1.07035 -0.42752,-1.78382 -0.39185,-2.60443c0.03559,-0.85619 0.32057,-2.10484 1.2823,-3.03248c0.89053,-1.1773 2.06607,-1.78374 2.63604,-3.13944c0,0.21399 0,0.46373 0.03559,0.67779c0.07127,0.9989 0.14244,1.67679 0.56998,2.21197c-0.9618,1.07026 -1.17553,1.81942 -1.13994,3.0324l-0.00001,0l0.00001,0z" fill="url(#svg_45)" id="svg_44"/>
     </g>
    </g>
   </g>
  </g>
 </g>
</svg>