<svg width="64" height="64" xmlns="http://www.w3.org/2000/svg" fill="none">
 <g>
  <title>Layer 1</title>


  <g stroke="null" id="svg_61">
   <g stroke="null" id="svg_60">
    <title stroke="null">Layer 1</title>
    <defs stroke="null" transform="translate(0 4.76837e-7) translate(-3.64077 0) translate(0 8.00604) translate(-0.00000667572 0) translate(0 -8.00604) translate(11.018 64) scale(1.17352 1.17352) translate(-11.018 -64)">
     <linearGradient stroke="null" y2="1" x2="0.5" y1="0" x1="0.5" id="svg_58">
      <stop stroke="null" offset="0.48438"/>
      <stop stroke="null" stop-color="#111111" offset="1"/>
     </linearGradient>
    </defs>
    <g stroke="null" id="svg_55">
     <g stroke="null" id="svg_56">
      <title stroke="null">Layer 1</title>
      <path stroke="null" id="svg_57" fill="url(#svg_58)" d="m56.62276,52.54379c-0.78111,0.91128 -1.59475,1.75749 -2.44095,2.57113c-0.8462,0.78111 -1.72503,1.52966 -2.63631,2.24568c-0.26037,0.19527 -0.55328,0.4231 -0.81365,0.61837c-0.09764,0.0651 -0.16273,0.13018 -0.26037,0.16273c-5.27246,3.6777 -11.68403,5.85829 -18.61634,5.85829c-6.44412,0 -12.46505,-1.88768 -17.50972,-5.10972c-0.22783,-0.13018 -0.4231,-0.29291 -0.65092,-0.4231c-0.09764,-0.0651 -0.19527,-0.13018 -0.32546,-0.22783c-1.36694,-0.94384 -2.66878,-1.98531 -3.84043,-3.12442c-0.74856,-0.71601 -1.46457,-1.46457 -2.14804,-2.24568c-0.03254,-1.04147 0.16273,-2.21313 1.07402,-2.8966c1.95276,-1.13911 5.40265,-2.44095 8.72238,-3.54752c2.4735,-0.81365 4.06825,-0.68347 6.5092,-2.8315c0.78111,-0.68347 0.58583,-2.86405 0.4882,-4.36117c-0.0651,-1.13911 -0.4882,-1.69239 -0.65092,-2.79896c-0.09764,-0.58583 0,-1.65985 -0.4882,-2.57113c-0.78111,0.52074 -1.17165,-0.22783 -1.75749,-1.2693c-0.4882,-0.87874 -1.52966,-2.18059 -1.65985,-2.73386c-0.32546,-1.59475 0.03254,-1.92022 -0.4882,-3.35224c-0.19527,-0.52074 0.39055,-1.2693 0.81365,-1.2693c0.16273,0 0.45564,0.03254 0.55328,0.13018c-2.57113,-5.37009 -1.10657,-10.51239 1.88768,-13.47408c3.51497,-3.54752 5.63038,-4.42627 9.63354,-4.1659c1.49712,0.09764 3.84043,0.91128 5.04464,1.59475c1.39948,0.78111 2.31086,1.95276 2.53867,2.70132c0.97638,0.22783 1.13903,0.4231 2.08287,1.39948c1.13911,1.17165 4.39371,6.60688 1.85512,11.97697c0.09764,-0.09764 0.39064,-0.13018 0.55337,-0.13018c0.4231,0 1.00893,0.71601 0.81365,1.2693c-0.52074,1.43202 -0.13018,1.75749 -0.4882,3.35224c-0.13018,0.55328 -1.17175,1.85512 -1.65993,2.73386c-0.58583,1.04147 -0.9763,1.82258 -1.7574,1.2693c-0.4882,0.87874 -0.4231,1.98531 -0.4882,2.57113c-0.16273,1.13911 -0.61837,1.69239 -0.65092,2.79896c-0.0651,1.52966 -0.26037,3.71024 0.4882,4.36117c2.44095,2.14804 4.03571,2.01785 6.5092,2.8315c3.35224,1.10657 6.76949,2.40841 8.7548,3.54752c0.74856,0.58583 1.00901,1.56221 1.00901,2.53859l0,0.00001z"/>
     </g>
    </g>
   </g>
  </g>
 </g>
</svg>