<svg width="25" height="28" viewBox="0 0 25 28" fill="none" xmlns="http://www.w3.org/2000/svg">
<g filter="url(#filter0_d)">
<path fill-rule="evenodd" clip-rule="evenodd" d="M8.71724 2.22508C8.4985 2.69054 8.37237 3.19542 8.34618 3.71065L8.29493 13.0751C8.32112 13.5903 8.44717 14.0952 8.66591 14.5606C8.74683 14.7328 8.83983 14.8983 8.94402 15.056L6.74443 17.2556C5.81152 16.0547 5.23004 14.605 5.07432 13.0745C5.04553 12.7914 4.81361 12.5664 4.52909 12.5664C4.23676 12.5664 3.99807 12.8034 4.01423 13.0953C4.1159 14.9307 4.75999 16.6896 5.85726 18.1428L0.488713 23.5113C0.19582 23.8042 0.19582 24.2791 0.488713 24.572C0.781606 24.8649 1.25648 24.8649 1.54937 24.572L6.85855 19.2628C8.15575 20.4917 9.78025 21.3006 11.5244 21.591C12.0469 21.678 12.4616 22.1098 12.4616 22.6395V23.9436C12.4616 24.4959 12.0139 24.9436 11.4616 24.9436H8.6308C8.33908 24.9436 8.10259 25.1801 8.10259 25.4718C8.10259 25.7635 8.33908 26 8.6308 26H17.4205C17.7122 26 17.9487 25.7635 17.9487 25.4718C17.9487 25.1801 17.7122 24.9436 17.4205 24.9436H14.5385C13.9862 24.9436 13.5385 24.4959 13.5385 23.9436V22.6395C13.5385 22.1098 13.9532 21.678 14.4757 21.591C16.4106 21.2688 18.1983 20.3084 19.5552 18.8444C21.0052 17.2799 21.8619 15.2498 21.9847 13.1148C22.0021 12.8122 21.7545 12.5664 21.4513 12.5664C21.1563 12.5664 20.9158 12.7998 20.8853 13.0933C20.6886 14.9832 19.8426 16.7489 18.4874 18.0732C17.0069 19.52 15.0336 20.328 12.9808 20.328C11.0625 20.328 9.2138 19.6225 7.77171 18.3496L9.99672 16.1246C10.2666 16.3084 10.5589 16.457 10.8668 16.5665C11.3456 16.7367 11.8527 16.809 12.359 16.779H13.641C14.1473 16.809 14.6544 16.7367 15.1332 16.5665C15.6119 16.3963 16.0528 16.1314 16.4306 15.7872C16.8083 15.4429 17.1154 15.0261 17.3341 14.5606C17.5529 14.0952 17.6789 13.5903 17.7051 13.0751L17.7308 8.39055L24.5303 1.59099C24.8232 1.2981 24.8232 0.823223 24.5303 0.53033C24.2374 0.237437 23.7626 0.237437 23.4697 0.530331L17.7425 6.25754L17.7564 3.71065C17.7302 3.19542 17.6041 2.69054 17.3854 2.22508C17.1666 1.75962 16.8595 1.34272 16.4818 0.998456C16.1041 0.654196 15.6632 0.38936 15.1844 0.21913C14.7057 0.0489006 14.1986 -0.0233371 13.6923 0.00658689H12.4102C11.904 -0.0233371 11.3968 0.0489006 10.9181 0.21913C10.4394 0.38936 9.99844 0.654196 9.62072 0.998456C9.24299 1.34272 8.93598 1.75962 8.71724 2.22508ZM17.7425 6.25754L8.94402 15.056C9.12151 15.3245 9.33146 15.5703 9.56946 15.7872C9.70422 15.91 9.84702 16.0227 9.99672 16.1246L17.7308 8.39055L17.7425 6.25754ZM7.77171 18.3496C7.67048 18.2603 7.57126 18.1681 7.47416 18.0732C7.21144 17.8165 6.96786 17.5432 6.74443 17.2556L5.85726 18.1428C6.04056 18.3855 6.23652 18.6197 6.44471 18.8444C6.57855 18.9888 6.71659 19.1283 6.85855 19.2628L7.77171 18.3496Z" fill="white"/>
</g>
<defs>
<filter id="filter0_d" x="0.269043" y="0" width="24.481" height="28" filterUnits="userSpaceOnUse" color-interpolation-filters="sRGB">
<feFlood flood-opacity="0" result="BackgroundImageFix"/>
<feColorMatrix in="SourceAlpha" type="matrix" values="0 0 0 0 0 0 0 0 0 0 0 0 0 0 0 0 0 0 127 0"/>
<feOffset dy="2"/>
<feColorMatrix type="matrix" values="0 0 0 0 0 0 0 0 0 0 0 0 0 0 0 0 0 0 0.25 0"/>
<feBlend mode="normal" in2="BackgroundImageFix" result="effect1_dropShadow"/>
<feBlend mode="normal" in="SourceGraphic" in2="effect1_dropShadow" result="shape"/>
</filter>
</defs>
</svg>
