<svg width="18" height="28" viewBox="0 0 18 28" fill="none" xmlns="http://www.w3.org/2000/svg">
<g filter="url(#filter0_d)">
<path d="M4.34617 3.71065C4.37236 3.19542 4.49848 2.69054 4.71723 2.22508C4.93597 1.75962 5.24298 1.34272 5.6207 0.998456C5.99843 0.654196 6.43934 0.38936 6.91808 0.21913C7.39682 0.0489006 7.90394 -0.0233371 8.41023 0.00658689H9.69228C10.1986 -0.0233371 10.7057 0.0489006 11.1844 0.21913C11.6632 0.38936 12.1041 0.654196 12.4818 0.998456C12.8595 1.34272 13.1666 1.75962 13.3854 2.22508C13.6041 2.69054 13.7302 3.19542 13.7564 3.71065V6.54511C13.7564 7.09739 13.3087 7.54511 12.7564 7.54511H5.38414C4.83707 7.54511 4.39154 7.1055 4.38423 6.55847L4.34617 3.71065ZM4.33324 10.1492C4.34041 9.60212 4.78598 9.16235 5.33315 9.16235H12.7051C13.2574 9.16235 13.7051 9.61006 13.7051 10.1623V13.0751C13.6789 13.5903 13.5528 14.0952 13.3341 14.5606C13.1154 15.0261 12.8083 15.4429 12.4306 15.7872C12.0528 16.1314 11.6119 16.3963 11.1332 16.5665C10.6544 16.7367 10.1473 16.809 9.64102 16.779H8.35898C7.85269 16.809 7.34557 16.7367 6.86683 16.5665C6.38809 16.3963 5.94717 16.1314 5.56945 15.7872C5.19172 15.4429 4.88464 15.0261 4.6659 14.5606C4.44715 14.0952 4.32111 13.5903 4.29491 13.0751L4.33324 10.1492ZM17.9847 13.1148C18.0021 12.8122 17.7545 12.5664 17.4513 12.5664C17.1562 12.5664 16.9158 12.7998 16.8853 13.0933C16.6886 14.9832 15.8426 16.7489 14.4874 18.0732C13.0069 19.52 11.0336 20.328 8.98075 20.328C6.92789 20.328 4.9546 19.52 3.47415 18.0732C2.11445 16.7445 1.26731 14.9715 1.07431 13.0745C1.04551 12.7914 0.813598 12.5664 0.529073 12.5664C0.236744 12.5664 -0.00194818 12.8034 0.0142195 13.0953C0.132872 15.2373 0.990312 17.2751 2.44469 18.8444C3.80162 20.3084 5.58938 21.2688 7.52435 21.591C8.04686 21.678 8.46156 22.1098 8.46156 22.6395V23.9436C8.46156 24.4959 8.01385 24.9436 7.46156 24.9436H4.63079C4.33906 24.9436 4.10257 25.1801 4.10257 25.4718C4.10257 25.7635 4.33906 26 4.63079 26H13.4205C13.7122 26 13.9487 25.7635 13.9487 25.4718C13.9487 25.1801 13.7122 24.9436 13.4205 24.9436H10.5384C9.98615 24.9436 9.53844 24.4959 9.53844 23.9436V22.6395C9.53844 22.1098 9.95314 21.678 10.4757 21.591C12.4106 21.2688 14.1983 20.3084 15.5552 18.8444C17.0052 17.2799 17.8619 15.2498 17.9847 13.1148Z" fill="white"/>
</g>
<defs>
<filter id="filter0_d" x="0.0134277" y="0" width="17.9721" height="28" filterUnits="userSpaceOnUse" color-interpolation-filters="sRGB">
<feFlood flood-opacity="0" result="BackgroundImageFix"/>
<feColorMatrix in="SourceAlpha" type="matrix" values="0 0 0 0 0 0 0 0 0 0 0 0 0 0 0 0 0 0 127 0"/>
<feOffset dy="2"/>
<feColorMatrix type="matrix" values="0 0 0 0 0 0 0 0 0 0 0 0 0 0 0 0 0 0 0.25 0"/>
<feBlend mode="normal" in2="BackgroundImageFix" result="effect1_dropShadow"/>
<feBlend mode="normal" in="SourceGraphic" in2="effect1_dropShadow" result="shape"/>
</filter>
</defs>
</svg>
