<svg width="36" height="35" viewBox="0 0 36 35" fill="none" xmlns="http://www.w3.org/2000/svg">
<g filter="url(#filter0_i)">
<path fill-rule="evenodd" clip-rule="evenodd" d="M22.1503 16.5801H13.9762C12.8192 16.5801 11.7096 16.1157 10.8915 15.2892C10.0734 14.4627 9.61383 13.3417 9.61383 12.1729V4.27877C9.64155 3.13055 10.114 2.03904 10.9297 1.23896C11.7455 0.438892 12.8393 -0.00588527 13.9762 5.88201e-05H22.1503C23.2872 -0.00588527 24.3811 0.438892 25.1968 1.23896C26.0125 2.03904 26.485 3.13055 26.5127 4.27877V12.1729C26.5127 13.3417 26.0532 14.4627 25.235 15.2892C24.4169 16.1157 23.3073 16.5801 22.1503 16.5801ZM19.6447 11.85C20.0781 12.0826 20.5644 12.2026 21.058 12.1989V12.1847C21.8162 12.1536 22.5332 11.8368 23.0606 11.2998C23.5879 10.7629 23.8852 10.0469 23.8908 9.30021C23.8964 8.55354 23.6099 7.83338 23.0907 7.28882C22.5715 6.74426 21.8593 6.41707 21.1016 6.37497C21.236 6.04052 21.3049 5.68406 21.3049 5.32444C21.3053 4.89668 21.2098 4.47415 21.0252 4.08688C20.8406 3.69961 20.5714 3.35716 20.2369 3.08397C19.9024 2.81078 19.5107 2.61353 19.0898 2.50632C18.669 2.39911 18.2293 2.3846 17.802 2.46375C17.3748 2.5429 16.9706 2.71382 16.6182 2.96429C16.2658 3.21476 15.9738 3.53865 15.7632 3.91285C15.5526 4.28704 15.4285 4.70231 15.3996 5.12913C15.3708 5.55594 15.438 5.9838 15.5965 6.38213H15.3931C14.8809 6.38197 14.3774 6.51279 13.932 6.76176C13.4867 7.01073 13.1147 7.36924 12.8526 7.80227C12.5905 8.23529 12.4473 8.72793 12.4369 9.23182C12.4266 9.73572 12.5495 10.2337 12.7936 10.6767C13.0377 11.1198 13.3947 11.4928 13.8295 11.7593C14.2642 12.0257 14.762 12.1765 15.2738 12.1967C15.7857 12.2169 16.294 12.1058 16.7491 11.8744C17.2041 11.6431 17.5903 11.2994 17.8697 10.8769C17.4049 12.3705 16.5115 13.9854 15.4948 13.9854H20.9563C19.9323 13.9854 19.0462 12.3705 18.5814 10.8698C18.8455 11.2801 19.2114 11.6175 19.6447 11.85Z" fill="url(#paint0_linear)"/>
<path fill-rule="evenodd" clip-rule="evenodd" d="M4.34122 18.4199H12.5365C13.6514 18.4471 14.7131 18.9066 15.5016 19.7032C16.2901 20.4998 16.745 21.5724 16.7719 22.6986V30.5927C16.7723 31.7397 16.3301 32.8418 15.5393 33.6647C14.7485 34.4876 13.6714 34.9665 12.5365 34.9999H4.34122C3.76934 34.9999 3.20313 34.8858 2.67504 34.6641C2.14696 34.4424 1.6674 34.1173 1.264 33.7078C0.860607 33.2982 0.54126 32.8123 0.324344 32.2777C0.107428 31.7431 -0.00273798 31.1705 5.1684e-05 30.5927V22.6986C0.0276917 21.5541 0.49718 20.4659 1.30834 19.6664C2.11949 18.8669 3.20798 18.4196 4.34122 18.4199ZM9.58982 29.6751C10.0731 29.9957 10.653 30.1683 11.2479 30.1687C11.9987 30.159 12.7153 29.8772 13.2432 29.384C13.7711 28.8909 14.0681 28.2259 14.0701 27.5323C14.0952 27.0269 13.9376 26.5281 13.6224 26.1144C13.2386 25.531 8.36181 20.598 8.36181 20.598C8.36181 20.598 3.42901 25.5827 3.06924 26.1144C2.7588 26.5303 2.60185 27.0275 2.62158 27.5323C2.58722 28.1789 2.81154 28.8146 3.25194 29.3182C3.69233 29.8218 4.318 30.1581 5.00959 30.2631C5.70117 30.368 6.41036 30.2342 7.00204 29.8872C7.59373 29.5402 8.02655 29.0043 8.21795 28.3815C7.8342 30.0062 6.79478 32.1699 5.52361 32.1699H11.2479C10.0007 32.1699 8.93743 30.0062 8.55367 28.3815C8.7442 28.9021 9.10655 29.3546 9.58982 29.6751Z" fill="url(#paint1_linear)"/>
<path fill-rule="evenodd" clip-rule="evenodd" d="M31.6376 18.42H23.4634C22.3281 18.4195 21.2374 18.866 20.4229 19.6649C19.6083 20.4638 19.1341 21.5523 19.101 22.6987V30.5928C19.101 31.7616 19.5607 32.8826 20.3788 33.7091C21.1969 34.5356 22.3064 35 23.4634 35H31.6376C32.7946 35 33.9041 34.5356 34.7222 33.7091C35.5403 32.8826 36 31.7616 36 30.5928V22.6987C35.9723 21.5505 35.4998 20.459 34.6841 19.6589C33.8684 18.8588 32.7745 18.414 31.6376 18.42ZM22.2631 22.4205C22.2397 22.1904 22.2644 21.9578 22.3355 21.7378C22.4066 21.5179 22.5225 21.3155 22.6759 21.1437C22.8293 20.9719 23.0169 20.8345 23.2262 20.7405C23.4354 20.6465 23.6618 20.598 23.8908 20.598C24.1198 20.598 24.3464 20.6465 24.5557 20.7405C24.7649 20.8345 24.9523 20.9719 25.1057 21.1437C25.2591 21.3155 25.3752 21.5179 25.4463 21.7378C25.5174 21.9578 25.5421 22.1904 25.5187 22.4205C25.4772 22.8275 25.2878 23.2045 24.9871 23.4786C24.6865 23.7527 24.2958 23.9043 23.8908 23.9043C23.4858 23.9043 23.0954 23.7527 22.7947 23.4786C22.494 23.2045 22.3046 22.8275 22.2631 22.4205ZM22.5325 25.969C22.3563 26.2386 22.2622 26.5546 22.2617 26.8777C22.2614 27.1023 22.3064 27.3246 22.394 27.5311C22.4816 27.7376 22.6098 27.9238 22.771 28.0785C22.9322 28.2332 23.123 28.3531 23.3315 28.4309C23.5401 28.5087 23.7622 28.5426 23.9842 28.5307C24.3036 28.5137 24.611 28.4025 24.8686 28.2108C25.1261 28.0192 25.3224 27.7555 25.4331 27.4523C25.5439 27.1491 25.5643 26.8199 25.4918 26.5051C25.4192 26.1904 25.2571 25.9039 25.0252 25.6814C24.7933 25.4588 24.5017 25.3098 24.1869 25.2527C23.872 25.1957 23.5476 25.2331 23.2535 25.3604C22.9595 25.4877 22.7088 25.6993 22.5325 25.969ZM22.2617 31.2551C22.2788 30.936 22.3871 30.6287 22.5734 30.3704C22.7596 30.1121 23.0159 29.9139 23.3113 29.7996C23.6067 29.6854 23.9286 29.6599 24.2379 29.7265C24.5473 29.7931 24.8311 29.9488 25.0548 30.1748C25.2785 30.4008 25.4326 30.6875 25.4985 31C25.5645 31.3126 25.5393 31.6377 25.4262 31.9362C25.3131 32.2346 25.1169 32.4935 24.8612 32.6817C24.6055 32.8699 24.3013 32.9792 23.9854 32.9965C23.5283 32.9965 23.0898 32.8131 22.7665 32.4865C22.4433 32.16 22.2617 31.7169 22.2617 31.2551ZM30.4229 30.3699C30.2367 30.628 30.1286 30.9351 30.1115 31.254C30.099 31.4858 30.1351 31.7177 30.2172 31.9345C30.2994 32.1513 30.4258 32.3481 30.5883 32.5123C30.7508 32.6765 30.9456 32.8042 31.1603 32.8872C31.3749 32.9702 31.6045 33.0066 31.8339 32.9941C32.1496 32.9768 32.4536 32.8675 32.709 32.6795C32.9645 32.4914 33.1606 32.2328 33.2736 31.9345C33.3866 31.6363 33.4118 31.3114 33.3459 30.9991C33.2801 30.6867 33.126 30.4003 32.9025 30.1745C32.679 29.9487 32.3954 29.793 32.0862 29.7265C31.7771 29.6599 31.4555 29.6854 31.1603 29.7995C30.8651 29.9137 30.609 30.1118 30.4229 30.3699ZM30.1092 26.8772C30.1096 26.5541 30.2037 26.2383 30.3799 25.9687C30.5562 25.6992 30.8068 25.4876 31.1007 25.3603C31.3946 25.2331 31.719 25.1957 32.0337 25.2527C32.3485 25.3097 32.64 25.4587 32.8718 25.6812C33.1036 25.9037 33.2657 26.1901 33.3382 26.5047C33.4107 26.8193 33.3903 27.1485 33.2796 27.4516C33.1689 27.7546 32.9726 28.0182 32.7152 28.2099C32.4578 28.4015 32.1504 28.5127 31.8311 28.5297C31.6086 28.5441 31.3856 28.512 31.1759 28.4352C30.9663 28.3584 30.7745 28.2385 30.6128 28.0833C30.4512 27.9281 30.323 27.7409 30.2364 27.5333C30.1497 27.3257 30.1064 27.1024 30.1092 26.8772ZM30.19 21.7378C30.1189 21.9578 30.0942 22.1904 30.1177 22.4205C30.1592 22.8275 30.3486 23.2045 30.6492 23.4786C30.9499 23.7526 31.3404 23.9043 31.7453 23.9043C32.1503 23.9043 32.541 23.7526 32.8417 23.4786C33.1423 23.2045 33.3317 22.8275 33.3732 22.4205C33.3967 22.1904 33.372 21.9578 33.3009 21.7378C33.2298 21.5179 33.1139 21.3155 32.9605 21.1437C32.807 20.9719 32.6195 20.8345 32.4102 20.7405C32.2009 20.6465 31.9744 20.598 31.7453 20.598C31.5163 20.598 31.29 20.6465 31.0807 20.7405C30.8714 20.8345 30.6839 20.9719 30.5304 21.1437C30.377 21.3155 30.2611 21.5179 30.19 21.7378Z" fill="url(#paint2_linear)"/>
</g>
<defs>
<filter id="filter0_i" x="0" y="0" width="36" height="35" filterUnits="userSpaceOnUse" color-interpolation-filters="sRGB">
<feFlood flood-opacity="0" result="BackgroundImageFix"/>
<feBlend mode="normal" in="SourceGraphic" in2="BackgroundImageFix" result="shape"/>
<feColorMatrix in="SourceAlpha" type="matrix" values="0 0 0 0 0 0 0 0 0 0 0 0 0 0 0 0 0 0 127 0" result="hardAlpha"/>
<feOffset dx="1"/>
<feComposite in2="hardAlpha" operator="arithmetic" k2="-1" k3="1"/>
<feColorMatrix type="matrix" values="0 0 0 0 1 0 0 0 0 1 0 0 0 0 1 0 0 0 0.3 0"/>
<feBlend mode="normal" in2="shape" result="effect1_innerShadow"/>
</filter>
<linearGradient id="paint0_linear" x1="1" y1="40.5263" x2="31.2963" y2="-7.84598" gradientUnits="userSpaceOnUse">
<stop offset="0.291667" stop-color="white"/>
<stop offset="0.510417" stop-color="#555555"/>
<stop offset="0.734375" stop-color="white"/>
</linearGradient>
<linearGradient id="paint1_linear" x1="1" y1="40.5263" x2="31.2963" y2="-7.84598" gradientUnits="userSpaceOnUse">
<stop offset="0.291667" stop-color="white"/>
<stop offset="0.510417" stop-color="#555555"/>
<stop offset="0.734375" stop-color="white"/>
</linearGradient>
<linearGradient id="paint2_linear" x1="1" y1="40.5263" x2="31.2963" y2="-7.84598" gradientUnits="userSpaceOnUse">
<stop offset="0.291667" stop-color="white"/>
<stop offset="0.510417" stop-color="#555555"/>
<stop offset="0.734375" stop-color="white"/>
</linearGradient>
</defs>
</svg>
