<svg width="34" height="34" viewBox="0 0 34 34" fill="none" xmlns="http://www.w3.org/2000/svg">
<g filter="url(#filter0_i)">
<path d="M31.3348 11.2193L25.7379 10.3584C24.8542 10.1595 24.02 9.7682 23.2888 9.20969C22.5576 8.65117 21.9458 7.93779 21.4927 7.11558L18.9798 1.79087C18.8586 1.2794 18.5782 0.825479 18.1832 0.500925C17.7882 0.176371 17.3013 0 16.8 0C16.2987 0 15.8119 0.176371 15.4169 0.500925C15.0219 0.825479 14.7416 1.2794 14.6204 1.79087L12.2026 7.11558C11.7468 7.93543 11.1341 8.64687 10.4034 9.20504C9.67269 9.76322 8.83986 10.156 7.95744 10.3584L2.36057 11.2193C1.77091 11.2117 1.20019 11.4385 0.762571 11.8541C0.324955 12.2697 0.0526937 12.8436 0 13.4612C0.0233977 13.8681 0.124756 14.2658 0.29815 14.6304C0.471543 14.9951 0.713327 15.3191 1.0089 15.5829L5.06378 19.7267C6.11857 20.9756 6.71291 22.5806 6.73905 24.2506C6.76028 24.497 6.76028 24.7449 6.73905 24.9913L5.7872 30.8362C5.76 31.089 5.76 31.3441 5.7872 31.5969C5.76089 32.2135 5.95048 32.8191 6.32017 33.2986C6.50098 33.5209 6.72596 33.6987 6.97922 33.8198C7.23247 33.9408 7.50788 34.002 7.78606 33.9991C8.34076 33.9848 8.88355 33.8267 9.36616 33.5388L14.3538 30.7763C15.1776 30.3798 16.0751 30.1814 16.9809 30.1958C17.893 30.1811 18.7967 30.3795 19.6271 30.7763L24.6148 33.5388C25.0974 33.8267 25.6401 33.9848 26.1948 33.9991C26.4793 34.008 26.7621 33.9496 27.0224 33.8283C27.2827 33.7071 27.5139 33.5261 27.6988 33.2986C28.0541 32.8121 28.2359 32.2098 28.2127 31.5969C28.2308 31.3504 28.2308 31.1028 28.2127 30.8562L27.2608 24.9913C27.2404 24.7449 27.2404 24.497 27.2608 24.2506C27.2784 22.5788 27.8739 20.9708 28.9361 19.7267L32.991 15.5829C33.578 15.0414 33.9402 14.2799 34 13.4612C33.6954 12.1801 32.5912 11.3794 31.3348 11.2193ZM14.8488 23.65C14.0272 23.65 13.224 23.3937 12.5411 22.9133C11.8582 22.4329 11.3264 21.7502 11.0128 20.9516C10.6993 20.1531 10.6182 19.2745 10.7799 18.4274C10.9416 17.5804 11.3387 16.803 11.921 16.1936C12.5033 15.5841 13.2446 15.1699 14.0509 15.0038C14.8572 14.8377 15.6922 14.927 16.4502 15.2604C17.2082 15.5937 17.855 16.1563 18.3087 16.8765C18.7624 17.5968 19.0026 18.4422 18.9989 19.3061C18.9989 19.8783 18.8914 20.4448 18.6826 20.9731C18.4738 21.5014 18.1678 21.9814 17.7822 22.385C17.3966 22.7886 16.9389 23.1081 16.4355 23.3253C15.9321 23.5424 15.3929 23.6526 14.8488 23.65ZM22.0447 17.5048C21.559 17.5048 21.0842 17.3533 20.6804 17.0696C20.2765 16.7858 19.9618 16.3824 19.776 15.9106C19.5901 15.4388 19.5414 14.9195 19.6362 14.4186C19.7309 13.9177 19.9648 13.4578 20.3082 13.0966C20.6517 12.7355 21.0893 12.4893 21.5657 12.3897C22.042 12.2901 22.5358 12.3414 22.9845 12.5368C23.4332 12.7323 23.8169 13.0632 24.0867 13.4878C24.3565 13.9125 24.5006 14.4117 24.5006 14.9224C24.5006 15.6073 24.2418 16.264 23.7812 16.7482C23.3207 17.2325 22.696 17.5048 22.0447 17.5048Z" fill="url(#paint0_linear)"/>
</g>
<defs>
<filter id="filter0_i" x="0" y="0" width="34" height="34" filterUnits="userSpaceOnUse" color-interpolation-filters="sRGB">
<feFlood flood-opacity="0" result="BackgroundImageFix"/>
<feBlend mode="normal" in="SourceGraphic" in2="BackgroundImageFix" result="shape"/>
<feColorMatrix in="SourceAlpha" type="matrix" values="0 0 0 0 0 0 0 0 0 0 0 0 0 0 0 0 0 0 127 0" result="hardAlpha"/>
<feOffset dx="1"/>
<feComposite in2="hardAlpha" operator="arithmetic" k2="-1" k3="1"/>
<feColorMatrix type="matrix" values="0 0 0 0 1 0 0 0 0 1 0 0 0 0 1 0 0 0 0.3 0"/>
<feBlend mode="normal" in2="shape" result="effect1_innerShadow"/>
</filter>
<linearGradient id="paint0_linear" x1="0.944446" y1="39.3684" x2="30.7297" y2="-6.86679" gradientUnits="userSpaceOnUse">
<stop offset="0.291667" stop-color="white"/>
<stop offset="0.510417" stop-color="#555555"/>
<stop offset="0.734375" stop-color="white"/>
</linearGradient>
</defs>
</svg>
