<svg width="32" height="34" viewBox="0 0 32 34" fill="none" xmlns="http://www.w3.org/2000/svg">
<g filter="url(#filter0_d)">
<path d="M27.008 11.0647L25.3814 16.0477C25.267 16.3984 25.0124 16.6877 24.6787 16.8463C24.345 17.0049 23.962 17.0188 23.6207 16.8845L18.7752 14.9778C18.0946 14.7101 17.7659 13.9389 18.0407 13.2557C18.1106 13.0819 18.2128 12.9307 18.3376 12.8059C18.7034 12.4401 19.2633 12.3033 19.7707 12.503L21.4836 13.177C21.1349 12.5298 20.6953 11.9357 20.1655 11.4059C17.1709 8.4113 12.2729 8.43688 9.24687 11.4629C6.22084 14.489 6.19505 19.3872 9.18965 22.3818C12.1842 25.3764 17.0822 25.3508 20.1083 22.3247C20.6739 21.7591 21.1464 21.1176 21.5126 20.4179C21.8543 19.7637 22.6582 19.5069 23.3075 19.842C23.9571 20.1771 24.2065 20.978 23.8647 21.631C23.3717 22.5729 22.7368 23.4354 21.9779 24.1944C17.9101 28.2621 11.3259 28.2965 7.30041 24.271C3.27493 20.2455 3.30931 13.6613 7.37705 9.59351C11.4448 5.52577 18.029 5.49139 22.0545 9.51687C22.8049 10.2672 23.4221 11.1133 23.9021 12.04L24.482 10.2636C24.7103 9.56398 25.4614 9.17593 26.1587 9.39688C26.8561 9.61803 27.2364 10.3647 27.008 11.0647Z" fill="white"/>
</g>
<defs>
<filter id="filter0_d" x="0" y="0" width="31.5714" height="33.5714" filterUnits="userSpaceOnUse" color-interpolation-filters="sRGB">
<feFlood flood-opacity="0" result="BackgroundImageFix"/>
<feColorMatrix in="SourceAlpha" type="matrix" values="0 0 0 0 0 0 0 0 0 0 0 0 0 0 0 0 0 0 127 0"/>
<feOffset dy="2"/>
<feColorMatrix type="matrix" values="0 0 0 0 0 0 0 0 0 0 0 0 0 0 0 0 0 0 0.25 0"/>
<feBlend mode="normal" in2="BackgroundImageFix" result="effect1_dropShadow"/>
<feBlend mode="normal" in="SourceGraphic" in2="effect1_dropShadow" result="shape"/>
</filter>
</defs>
</svg>
