<svg width="36" height="38" viewBox="0 0 36 38" fill="none" xmlns="http://www.w3.org/2000/svg">
<g filter="url(#filter0_i)">
<path d="M31.1122 23.2713C31.2207 22.8995 31.5386 22.6268 31.9226 22.5761L34.6418 22.2172C35.3015 22.1301 35.8304 21.6193 35.8982 20.9573C35.9126 20.8165 35.9256 20.6756 35.9372 20.5346C35.9923 19.8631 35.5545 19.259 34.9108 19.0602L32.2765 18.2469C31.916 18.1356 31.6702 17.8024 31.6702 17.4251C31.6702 16.8932 31.5324 16.3813 31.4232 15.8706C31.4091 15.8045 31.4024 15.737 31.4024 15.6693C31.4024 15.3616 31.5437 15.0709 31.7858 14.881L34.1956 12.9897C34.7007 12.5933 34.9028 11.9171 34.6576 11.3237C34.6067 11.2003 34.5545 11.0776 34.501 10.9553C34.2217 10.3165 33.5126 9.99871 32.836 10.167L30.2015 10.8223C29.7951 10.9234 29.3682 10.7651 29.1259 10.4234C28.8215 9.97657 28.4858 9.5525 28.1215 9.15452C27.8756 8.87714 27.8091 8.48398 27.9501 8.14118L29.1011 5.34249C29.354 4.7275 29.1718 4.0194 28.6535 3.60282L28.4563 3.44429C27.9101 3.07456 27.1795 3.13835 26.7057 3.59713L24.6666 5.57137C24.3559 5.8722 23.8899 5.94588 23.5016 5.7556C23.0256 5.52237 22.5333 5.32542 22.0285 5.16643C21.6607 5.04193 21.398 4.71608 21.3544 4.33026L21.0175 1.35163C20.9422 0.685835 20.435 0.143817 19.7682 0.0778105C19.7322 0.074245 19.6961 0.0707945 19.6601 0.0674589C18.9798 0.00449602 18.3712 0.458607 18.1835 1.11551L17.3916 3.88808C17.2827 4.26916 16.9344 4.5319 16.5381 4.5319C16.0248 4.5319 15.4892 4.6905 14.9981 4.8038C14.5934 4.8997 14.1709 4.74065 13.9298 4.40164L12.2961 2.10395C11.8918 1.53539 11.1465 1.31574 10.5163 1.61493C10.4742 1.63491 10.4322 1.65502 10.3902 1.67527C9.78208 1.96865 9.48147 2.65336 9.63679 3.31044L10.3047 6.13599C10.3899 6.49624 10.2519 6.87256 9.95412 7.09243C9.53007 7.40966 9.12834 7.77229 8.70428 8.1575C8.40624 8.44628 7.96508 8.5303 7.58175 8.3713L5.15796 7.36587C4.51564 7.09943 3.7572 7.29702 3.36127 7.86868C3.34178 7.89682 3.32241 7.92509 3.30317 7.9535C3.2693 8.00352 3.23586 8.05396 3.20278 8.10472C2.83832 8.66399 2.91989 9.40398 3.36841 9.89839L5.335 12.0662C5.57843 12.3345 5.63946 12.7217 5.49039 13.0519C5.2672 13.5731 5.08865 14.0942 4.9101 14.6381C4.80149 14.9965 4.49237 15.2576 4.12084 15.3048L1.37903 15.6527C0.719969 15.7364 0.18905 16.2431 0.116186 16.9034C0.100395 17.0465 0.0860337 17.1898 0.0731045 17.3332C0.0117869 18.0133 0.456567 18.627 1.11073 18.8229L3.85588 19.645C4.21663 19.753 4.46373 20.085 4.46373 20.4616C4.496 20.9732 4.56933 21.4812 4.68294 21.9805C4.69996 22.0554 4.70924 22.1318 4.70924 22.2085C4.70924 22.5076 4.57198 22.7901 4.33686 22.9749L1.90665 24.8856C1.39534 25.2876 1.19641 25.9756 1.45261 26.5734C1.50231 26.6894 1.55305 26.8049 1.60481 26.92C1.88948 27.5526 2.59501 27.8665 3.26825 27.699L5.91006 27.0419C6.31653 26.9408 6.74344 27.0991 6.98574 27.4407C7.29562 27.8906 7.63097 28.3218 7.99009 28.7322C8.22348 29.011 8.28352 29.396 8.14608 29.7326L7.00116 32.5369C6.75302 33.1447 6.92894 33.8432 7.43535 34.261L7.6553 34.4424C8.19937 34.8107 8.9283 34.7409 9.39255 34.276L11.3419 32.324C11.6465 32.019 12.1114 31.9415 12.4984 32.1311C12.9764 32.3532 13.4685 32.5425 13.9715 32.6976C14.3393 32.8221 14.6019 33.148 14.6456 33.5338L14.9898 36.5773C15.0616 37.212 15.5266 37.738 16.1571 37.84C16.1804 37.8438 16.2038 37.8475 16.2271 37.8512C16.9359 37.9629 17.5954 37.5021 17.7925 36.8122L18.5638 34.1119C18.6726 33.7308 19.0209 33.4681 19.4172 33.4681C19.9352 33.4182 20.4496 33.335 20.9572 33.2189C21.3622 33.1229 21.785 33.2814 22.0271 33.6199L23.6722 35.9199C24.0708 36.4772 24.7997 36.7001 25.4194 36.4077C25.4785 36.3798 25.5374 36.3516 25.5962 36.323C26.1913 36.0336 26.4794 35.3608 26.3301 34.716L25.6733 31.8783C25.5874 31.5072 25.7239 31.12 26.0236 30.8849C26.4476 30.545 26.8493 30.2052 27.2511 29.82C27.5475 29.5327 27.9892 29.4554 28.3655 29.625L30.8468 30.7432C31.4749 31.0262 32.2214 30.8493 32.6129 30.2825C32.6411 30.2416 32.6691 30.2007 32.6968 30.1598C32.728 30.1138 32.7588 30.0678 32.7893 30.0218C33.157 29.4668 33.0826 28.7325 32.6368 28.2379L30.6774 26.0639C30.4256 25.7846 30.3601 25.3839 30.5096 25.0388C30.7595 24.4681 30.9611 23.8768 31.1122 23.2713ZM18.0335 26.6703C16.5361 26.6972 15.0646 26.2711 13.8066 25.4461C12.5485 24.6211 11.5608 23.4346 10.9693 22.0377C10.3777 20.6408 10.2091 19.0968 10.4849 17.6023C10.7606 16.1078 11.4683 14.7304 12.5178 13.6456C13.5673 12.5609 14.911 11.8178 16.3779 11.5111C17.8448 11.2043 19.3684 11.3479 20.7546 11.9233C22.1409 12.4988 23.3271 13.4802 24.162 14.7425C24.997 16.0048 25.443 17.4908 25.4433 19.0113C25.4551 20.009 25.2724 20.9992 24.9059 21.925C24.5393 22.8507 23.9961 23.6937 23.3074 24.4056C22.6188 25.1174 21.7983 25.6838 20.8932 26.0725C19.9881 26.4612 19.0162 26.6644 18.0335 26.6703Z" fill="url(#paint0_linear)"/>
</g>
<defs>
<filter id="filter0_i" x="0.0675049" y="0.0616455" width="35.8744" height="37.8062" filterUnits="userSpaceOnUse" color-interpolation-filters="sRGB">
<feFlood flood-opacity="0" result="BackgroundImageFix"/>
<feBlend mode="normal" in="SourceGraphic" in2="BackgroundImageFix" result="shape"/>
<feColorMatrix in="SourceAlpha" type="matrix" values="0 0 0 0 0 0 0 0 0 0 0 0 0 0 0 0 0 0 127 0" result="hardAlpha"/>
<feOffset dx="1"/>
<feComposite in2="hardAlpha" operator="arithmetic" k2="-1" k3="1"/>
<feColorMatrix type="matrix" values="0 0 0 0 1 0 0 0 0 1 0 0 0 0 1 0 0 0 0.3 0"/>
<feBlend mode="normal" in2="shape" result="effect1_innerShadow"/>
</filter>
<linearGradient id="paint0_linear" x1="1" y1="44" x2="35" y2="-6" gradientUnits="userSpaceOnUse">
<stop offset="0.291667" stop-color="white"/>
<stop offset="0.510417" stop-color="#555555"/>
<stop offset="0.734375" stop-color="white"/>
</linearGradient>
</defs>
</svg>
