<svg width="40" height="38" viewBox="0 0 40 38" fill="none" xmlns="http://www.w3.org/2000/svg">
	<g filter="url(#filter0_d)">
	<path fill-rule="evenodd" clip-rule="evenodd" d="M40 15.4983C40 17.3177 31.0457 18.7927 20 18.7927C8.95432 18.7927 0 17.3177 0 15.4983C0 14.3022 3.87029 13.255 9.66042 12.6778L11.2898 2.05601C11.2898 0.930352 12.1763 0.0178596 13.2699 0.0178596C14.8153 -0.235005 17.7189 2.28123 20.2004 2.25983C22.6141 2.23902 25.2081 0.0746671 26.9329 0.0178596C27.4579 0.0178596 27.9619 0.232719 28.333 0.614829C28.6914 0.983631 28.913 1.4932 28.913 2.05601L30.3617 12.68C36.1396 13.2576 40 14.3037 40 15.4983ZM7.23497 20.4565C19.0889 22.2158 32.7001 20.653 32.684 20.5284C33.2936 21.7998 31.2732 27.6437 31.2732 27.6437C31.2732 27.6437 33.4181 29.4971 29.5743 31.891C26.5281 33.7881 27.466 31.3892 26.1763 31.891C23.6354 32.8797 25.7525 33.7339 24.801 34.6985C24.3116 35.1946 23.5093 35.5365 22.5597 35.745C22.5021 34.8819 22.3252 34.2534 22.1159 34.2534C21.8943 34.2534 21.7092 34.9573 21.6632 35.8981C21.1202 35.9669 20.5498 36 19.9764 36C19.9352 34.9024 19.7047 34.0622 19.4264 34.0622C19.1516 34.0622 18.9235 34.8823 18.8782 35.9602C18.3571 35.9226 17.847 35.8592 17.3671 35.7717C17.3045 34.7881 17.0872 34.0622 16.8286 34.0622C16.5921 34.0622 16.3903 34.6692 16.3096 35.525C15.236 35.2112 14.4545 34.755 14.2837 34.1946C14.1107 33.6272 15.1474 33.0387 13.3129 31.963C11.4783 30.8873 13.7501 34.5604 9.75314 31.819C5.7562 29.0777 8.45869 27.5717 8.45869 27.5717C8.40819 26.8957 7.09248 23.534 7.23497 20.4565ZM26.3823 28.0837C28.5018 28.0837 29.2908 26.7848 29.2908 25.4933C29.2908 24.2018 28.3402 22.4712 26.2208 22.4712C24.1014 22.4712 22.4508 22.9098 21.9389 23.9822C21.9389 25.2738 24.263 28.0837 26.3823 28.0837ZM18.1417 30.5301C18.5236 31.1647 21.6347 31.1674 21.6157 30.3862C21.5857 29.1546 20.6999 27.0763 19.9191 27.0763C19.1383 27.0763 17.4883 29.4443 18.1417 30.5301ZM13.779 28.2276C15.5861 28.2276 18.2731 25.2169 17.6569 23.9822C17.3826 23.4324 15.8328 22.6024 14.0214 22.6151C12.2143 22.6278 10.7897 23.5665 10.7897 24.9177C10.7897 26.2688 11.9719 28.2276 13.779 28.2276Z" fill="#E80000"/>
	<path fill-rule="evenodd" clip-rule="evenodd" d="M40 15.4983C40 17.3177 31.0457 18.7927 20 18.7927C8.95432 18.7927 0 17.3177 0 15.4983C0 14.3022 3.87029 13.255 9.66042 12.6778L11.2898 2.05601C11.2898 0.930352 12.1763 0.0178596 13.2699 0.0178596C14.8153 -0.235005 17.7189 2.28123 20.2004 2.25983C22.6141 2.23902 25.2081 0.0746671 26.9329 0.0178596C27.4579 0.0178596 27.9619 0.232719 28.333 0.614829C28.6914 0.983631 28.913 1.4932 28.913 2.05601L30.3617 12.68C36.1396 13.2576 40 14.3037 40 15.4983ZM7.23497 20.4565C19.0889 22.2158 32.7001 20.653 32.684 20.5284C33.2936 21.7998 31.2732 27.6437 31.2732 27.6437C31.2732 27.6437 33.4181 29.4971 29.5743 31.891C26.5281 33.7881 27.466 31.3892 26.1763 31.891C23.6354 32.8797 25.7525 33.7339 24.801 34.6985C24.3116 35.1946 23.5093 35.5365 22.5597 35.745C22.5021 34.8819 22.3252 34.2534 22.1159 34.2534C21.8943 34.2534 21.7092 34.9573 21.6632 35.8981C21.1202 35.9669 20.5498 36 19.9764 36C19.9352 34.9024 19.7047 34.0622 19.4264 34.0622C19.1516 34.0622 18.9235 34.8823 18.8782 35.9602C18.3571 35.9226 17.847 35.8592 17.3671 35.7717C17.3045 34.7881 17.0872 34.0622 16.8286 34.0622C16.5921 34.0622 16.3903 34.6692 16.3096 35.525C15.236 35.2112 14.4545 34.755 14.2837 34.1946C14.1107 33.6272 15.1474 33.0387 13.3129 31.963C11.4783 30.8873 13.7501 34.5604 9.75314 31.819C5.7562 29.0777 8.45869 27.5717 8.45869 27.5717C8.40819 26.8957 7.09248 23.534 7.23497 20.4565ZM26.3823 28.0837C28.5018 28.0837 29.2908 26.7848 29.2908 25.4933C29.2908 24.2018 28.3402 22.4712 26.2208 22.4712C24.1014 22.4712 22.4508 22.9098 21.9389 23.9822C21.9389 25.2738 24.263 28.0837 26.3823 28.0837ZM18.1417 30.5301C18.5236 31.1647 21.6347 31.1674 21.6157 30.3862C21.5857 29.1546 20.6999 27.0763 19.9191 27.0763C19.1383 27.0763 17.4883 29.4443 18.1417 30.5301ZM13.779 28.2276C15.5861 28.2276 18.2731 25.2169 17.6569 23.9822C17.3826 23.4324 15.8328 22.6024 14.0214 22.6151C12.2143 22.6278 10.7897 23.5665 10.7897 24.9177C10.7897 26.2688 11.9719 28.2276 13.779 28.2276Z" fill="url(#paint0_diamond)"/>
	</g>
	<defs>
<filter id="filter0_d" x="0" y="0" width="40" height="38" filterUnits="userSpaceOnUse" color-interpolation-filters="sRGB">
<feFlood flood-opacity="0" result="BackgroundImageFix"/>
<feColorMatrix in="SourceAlpha" type="matrix" values="0 0 0 0 0 0 0 0 0 0 0 0 0 0 0 0 0 0 127 0"/>
<feOffset dy="2"/>
<feColorMatrix type="matrix" values="0 0 0 0 0 0 0 0 0 0 0 0 0 0 0 0 0 0 0.25 0"/>
<feBlend mode="normal" in2="BackgroundImageFix" result="effect1_dropShadow"/>
<feBlend mode="normal" in="SourceGraphic" in2="effect1_dropShadow" result="shape"/>
</filter>
<radialGradient id="paint0_diamond" cx="0" cy="0" r="1" gradientUnits="userSpaceOnUse" gradientTransform="translate(20 15.8684) rotate(90) scale(20.1316 22.3684)">
<stop offset="0.328125" stop-color="#E80000"/>
<stop offset="1" stop-color="#A00006"/>
</radialGradient>
</defs>
</svg>
