<svg width="25" height="27" viewBox="0 0 25 27" fill="none" xmlns="http://www.w3.org/2000/svg">
<path fill-rule="evenodd" clip-rule="evenodd" d="M24.5303 0.530339C24.2374 0.237445 23.7626 0.237446 23.4697 0.530339L17.2309 6.76915C16.8161 5.71873 15.8761 5.00001 14.7899 5.00001H3.6673C2.20029 5.00001 1.00001 6.34079 1.00001 7.97953V18.0205C1.00001 19.4319 1.89036 20.6223 3.07464 20.9254L0.488713 23.5113C0.19582 23.8042 0.19582 24.2791 0.488713 24.572C0.781606 24.8649 1.25648 24.8649 1.54937 24.572L5.12133 21H14.7899C16.2569 21 17.4572 19.6592 17.4572 18.0205V8.66417L24.5303 1.591C24.8232 1.29811 24.8232 0.823232 24.5303 0.530339ZM17.4572 8.66417V7.97953C17.4572 7.54642 17.3763 7.1374 17.2309 6.76915L3.07464 20.9254C3.2654 20.9742 3.46378 21 3.6673 21H5.12133L17.4572 8.66417ZM22.979 6.60102C23.09 6.50776 23.2233 6.4145 23.3565 6.38341C24.2227 6.10363 25 7.03623 25 8.18644V17.7922C25 18.1342 24.9334 18.4451 24.8223 18.7248C24.4448 19.6264 23.6452 19.9372 23.0012 19.4088L19.5143 16.611V9.39883L22.979 6.60102Z" fill="white"/>
</svg>
