<svg width="24" height="18" viewBox="0 0 24 18" fill="none" xmlns="http://www.w3.org/2000/svg">
<g filter="url(#filter0_d)">
<path d="M13.7899 0H2.66729C1.20028 0 0 1.34078 0 2.97952V13.0205C0 14.6592 1.20028 16 2.66729 16H13.7899C15.2569 16 16.4572 14.6592 16.4572 13.0205V2.97952C16.4572 1.31099 15.2569 0 13.7899 0Z" fill="white"/>
<path d="M22.3565 1.3834C22.2232 1.41449 22.09 1.50775 21.9789 1.60101L18.5143 4.39882V11.6109L22.0012 14.4087C22.6452 14.9372 23.4448 14.6264 23.8223 13.7248C23.9334 13.4451 24 13.1342 24 12.7922V3.18643C24 2.03623 23.2227 1.10362 22.3565 1.3834Z" fill="white"/>
</g>
<defs>
<filter id="filter0_d" x="0" y="0" width="24" height="18" filterUnits="userSpaceOnUse" color-interpolation-filters="sRGB">
<feFlood flood-opacity="0" result="BackgroundImageFix"/>
<feColorMatrix in="SourceAlpha" type="matrix" values="0 0 0 0 0 0 0 0 0 0 0 0 0 0 0 0 0 0 127 0"/>
<feOffset dy="2"/>
<feColorMatrix type="matrix" values="0 0 0 0 0 0 0 0 0 0 0 0 0 0 0 0 0 0 0.25 0"/>
<feBlend mode="normal" in2="BackgroundImageFix" result="effect1_dropShadow"/>
<feBlend mode="normal" in="SourceGraphic" in2="effect1_dropShadow" result="shape"/>
</filter>
</defs>
</svg>
