<svg width="64" height="64" xmlns="http://www.w3.org/2000/svg" fill="none">
 <g>
  <title>Layer 1</title>


  <g stroke="null" id="svg_78">
   <g stroke="null" id="svg_77">
    <title stroke="null">Layer 1</title>
    <g stroke="null" id="svg_70">
     <g stroke="null" id="svg_71">
      <title stroke="null">Layer 1</title>
      <defs stroke="null" transform="translate(0 -0.00000190735) translate(0.364079 0) translate(-3.27669 0) translate(0 7.91446) translate(-0.0000104904 0) translate(0 -7.91445) translate(0.364079 0) translate(0 -0.889061) translate(6.43202 0) translate(2.99997 0) translate(0 -17.1109) translate(6.61045 64.8891) scale(0.746666 0.746666) translate(-6.61045 -64.8891) translate(17.4676 85.7143) scale(0.980795 0.980795) translate(-17.4676 -85.7143) translate(18.3068 87.3927) scale(1.17623 1.17623) translate(-18.3068 -87.3927) translate(11.76 74.2991) scale(0.983353 0.983353) translate(-11.76 -74.2991)">
       <linearGradient stroke="null" id="svg_75" x1="0.5" y1="0" x2="0.5" y2="1">
        <stop stroke="null" offset="0.48438"/>
        <stop stroke="null" offset="1" stop-color="#111111"/>
       </linearGradient>
      </defs>
      <g stroke="null" id="svg_72">
       <g stroke="null" id="svg_73">
        <title stroke="null">Layer 1</title>
        <path stroke="null" d="m53.50603,55.5237c-0.78777,0.72474 -1.60705,1.41798 -2.42632,2.04819c-0.09453,0.06303 -0.18907,0.12596 -0.2836,0.22049c-0.18907,0.12604 -0.34662,0.25209 -0.53568,0.37813c-0.25209,0.15755 -0.50417,0.34671 -0.75626,0.50425c-5.0102,3.34014 -11.02876,5.32523 -17.51996,5.32523c-6.23912,0 -12.06861,-1.82763 -16.95275,-4.94719c-0.15755,-0.09453 -0.31511,-0.22058 -0.47266,-0.31511c-0.03151,-0.03151 -0.09453,-0.06303 -0.15755,-0.09453c-0.09453,-0.06303 -0.22058,-0.15755 -0.31511,-0.22058c-1.26042,-0.8823 -2.48935,-1.85904 -3.59222,-2.8989c0.09453,-1.1659 0.53568,-2.58396 1.4495,-3.21417c2.01668,-1.38647 4.37999,-1.89064 7.27897,-2.96201c1.51251,-0.56719 5.16775,-0.72466 6.71178,-2.48927c0.63022,-0.72474 0.63022,-2.1428 0.66173,-3.34021c0.06303,-1.48101 -0.63022,-2.70992 -0.97683,-3.93883c-0.63022,-0.85078 -1.10287,-1.4495 -1.35497,-2.70992c-0.09453,-0.44115 -0.50417,-1.16581 -0.69324,-2.11114c-0.81928,3.05654 -0.22058,4.88408 1.60705,6.36509c-0.44115,0.31511 -0.18907,1.07145 -0.18907,1.32353c-1.10287,-0.09453 -2.64691,-1.19741 -3.90733,-2.04819c-0.75626,-0.50417 -1.26042,-1.35505 -1.82763,-2.1113c-0.97682,-1.29194 -1.13437,-2.3002 -1.95365,-3.71818c-1.22891,-2.20575 -1.32345,-4.9787 -1.26042,-6.30214c0.15755,-3.49769 0.37813,-6.49121 1.57554,-9.01206c1.32342,-2.83596 2.48932,-3.87586 5.26228,-6.52276c1.48101,-2.11122 3.68676,-3.15107 5.10474,-3.40316c0.63022,-0.12604 1.51251,0.15755 1.85914,0.44115c1.73309,-1.48101 3.62373,-1.89064 6.33365,-1.07137c3.11956,0.94532 6.83783,4.31697 8.79149,7.40497c1.51251,2.20575 1.92215,4.69518 2.52087,6.01863c0.56719,1.22891 1.32345,3.37157 1.32345,5.26221c0,0.94532 -0.34662,1.7646 -0.53568,3.02503c-0.15755,1.19741 0.06303,1.1659 -0.44115,2.80445c-0.31511,1.00834 -0.8823,1.67006 -1.35497,2.58388c-0.56719,1.79611 -0.8823,2.52087 -1.63855,3.46618c-0.44115,1.00834 -1.54402,1.67006 -2.52087,2.01668c-1.26042,0.44115 -1.79611,0.78777 -2.83596,0.50417c0.53568,-0.40964 0.50417,-0.5987 -0.15755,-0.94532c-0.40964,0.15755 -0.78777,0.25209 -1.1659,0.25209c-0.12604,0.97683 -0.12604,1.82763 -0.12604,2.52087c0,0.97683 0.09453,2.26878 0.5987,2.89899c1.60705,2.04819 4.56906,2.17424 6.1761,2.80445c2.86747,1.07137 5.23079,1.57554 7.27898,2.96201c0.91381,0.66173 1.32345,2.04828 1.41798,3.24569l-0.00002,0.00001l-0.00002,-0.00002z" fill="url(#svg_75)" id="svg_74"/>
       </g>
      </g>
     </g>
    </g>
   </g>
  </g>
 </g>
</svg>