<svg width="282" height="20" viewBox="0 0 282 20" fill="none" xmlns="http://www.w3.org/2000/svg">
<path d="M0 11.5H120V10H0V11.5Z" fill="url(#paint0_radial)"/>
<path d="M162 11.5H282V10H162V11.5Z" fill="url(#paint1_radial)"/>
<path d="M141.435 19.9975C145.517 20.0132 149.465 18.5289 152.544 15.8214C153.727 14.8146 154.655 13.5372 155.25 12.0954C155.846 10.6536 156.092 9.08903 155.969 7.5317C155.908 6.75156 155.694 5.99148 155.339 5.29587C154.984 4.60026 154.495 3.98306 153.901 3.48033C153.321 2.97023 152.645 2.58321 151.913 2.34229C151.182 2.10137 150.41 2.01147 149.643 2.07793C148.477 2.19647 147.404 2.7721 146.654 3.68116C145.904 4.59021 145.537 5.76013 145.631 6.93958C145.71 7.83849 146.136 8.66985 146.818 9.25328C147.5 9.83671 148.382 10.1251 149.273 10.056C149.974 10.0242 150.637 9.7222 151.125 9.21214C151.613 8.70207 151.888 8.02267 151.896 7.31355C151.896 7.11518 151.818 6.92494 151.679 6.78467C151.54 6.64441 151.351 6.56561 151.155 6.56561C150.959 6.56561 150.77 6.64441 150.631 6.78467C150.492 6.92494 150.414 7.11518 150.414 7.31355C150.399 7.64446 150.26 7.95711 150.025 8.18845C149.79 8.41979 149.477 8.55261 149.149 8.56013C148.648 8.58648 148.157 8.41637 147.777 8.08534C147.398 7.75432 147.16 7.28797 147.113 6.78376C147.105 6.02754 147.37 5.29442 147.859 4.72105C148.347 4.14767 149.025 3.77316 149.766 3.66732C150.926 3.58943 152.069 3.97313 152.951 4.73622C153.834 5.49932 154.385 6.58111 154.488 7.74985C154.582 9.07847 154.365 10.4108 153.856 11.6395C153.347 12.8682 152.559 13.9591 151.556 14.8242C149.865 16.2661 147.891 17.3308 145.764 17.9485C143.637 18.5661 141.404 18.7227 139.213 18.4081C130.511 16.9122 128.165 11.5519 128.813 7.43821C128.94 5.80057 129.701 4.2795 130.932 3.20571C132.163 2.13192 133.763 1.59223 135.386 1.70396C136.325 1.84009 137.197 2.27182 137.879 2.93769C138.56 3.60357 139.016 4.46962 139.182 5.41252C139.368 6.16335 139.313 6.95462 139.025 7.67178C138.736 8.38894 138.229 8.99477 137.577 9.40157C137.41 9.50526 137.288 9.66928 137.237 9.8603C137.185 10.0513 137.208 10.255 137.299 10.43C137.407 10.5932 137.569 10.7116 137.757 10.7632C137.944 10.8147 138.143 10.796 138.318 10.7105C139.264 10.1368 139.998 9.26451 140.405 8.22824C140.812 7.19197 140.87 6.04922 140.57 4.97622C140.364 3.72007 139.764 2.56395 138.858 1.67768C137.953 0.791408 136.79 0.221705 135.541 0.0522493C134.525 -0.0683262 133.496 0.0203004 132.516 0.312769C131.535 0.605237 130.624 1.09547 129.836 1.75383C129.049 2.41219 128.402 3.225 127.934 4.14311C127.467 5.06122 127.188 6.06556 127.116 7.0954C126.314 12.2999 129.616 18.2211 138.75 19.7793C139.635 19.9419 140.535 20.015 141.435 19.9975Z" fill="url(#paint2_radial)"/>
<path d="M149.9 7.02631C149.906 7.22289 149.969 7.41358 150.082 7.57453C150.195 7.73549 150.352 7.85955 150.536 7.93122C150.719 8.00289 150.919 8.01898 151.111 7.97747C151.303 7.93597 151.479 7.83871 151.616 7.69786C151.753 7.55702 151.846 7.37884 151.883 7.18561C151.919 6.99238 151.898 6.79268 151.821 6.61149C151.745 6.43029 151.617 6.27563 151.453 6.16687C151.289 6.05811 151.097 6.00007 150.9 6C150.767 5.99995 150.635 6.02667 150.512 6.07856C150.388 6.13045 150.277 6.20647 150.184 6.30213C150.091 6.3978 150.017 6.51117 149.969 6.63555C149.92 6.75993 149.897 6.89279 149.9 7.02631Z" fill="url(#paint3_radial)"/>
<path d="M136 9.46202C135.993 9.76183 136.075 10.057 136.237 10.3095C136.399 10.562 136.633 10.7602 136.908 10.8784C137.184 10.9967 137.489 11.0296 137.783 10.973C138.078 10.9164 138.349 10.7727 138.561 10.5607C138.773 10.3486 138.916 10.0778 138.973 9.78332C139.03 9.48881 138.997 9.18408 138.878 8.90848C138.76 8.63287 138.562 8.39905 138.31 8.23719C138.057 8.07534 137.762 7.99289 137.462 8.00048C137.074 8.00048 136.703 8.15446 136.429 8.42856C136.154 8.70265 136 9.07439 136 9.46202Z" fill="url(#paint4_radial)"/>
<defs>
<radialGradient id="paint0_radial" cx="0" cy="0" r="1" gradientUnits="userSpaceOnUse" gradientTransform="translate(60 10.75) rotate(90) scale(0.75 60)">
<stop stop-color="#111111"/>
<stop offset="0.854167" stop-color="#555555"/>
<stop offset="1" stop-color="#111111"/>
</radialGradient>
<radialGradient id="paint1_radial" cx="0" cy="0" r="1" gradientUnits="userSpaceOnUse" gradientTransform="translate(222 10.75) rotate(90) scale(0.75 60)">
<stop stop-color="#111111"/>
<stop offset="0.854167" stop-color="#555555"/>
<stop offset="1" stop-color="#111111"/>
</radialGradient>
<radialGradient id="paint2_radial" cx="0" cy="0" r="1" gradientUnits="userSpaceOnUse" gradientTransform="translate(141.5 10) rotate(90) scale(10 14.5)">
<stop offset="0.854167" stop-color="#555555"/>
<stop offset="1" stop-color="#333333"/>
</radialGradient>
<radialGradient id="paint3_radial" cx="0" cy="0" r="1" gradientUnits="userSpaceOnUse" gradientTransform="translate(150.9 7) rotate(90)">
<stop offset="0.854167" stop-color="#555555"/>
<stop offset="1" stop-color="#333333"/>
</radialGradient>
<radialGradient id="paint4_radial" cx="0" cy="0" r="1" gradientUnits="userSpaceOnUse" gradientTransform="translate(137.5 9.5) rotate(90) scale(1.5)">
<stop offset="0.854167" stop-color="#555555"/>
<stop offset="1" stop-color="#333333"/>
</radialGradient>
</defs>
</svg>
